<svg xmlns="http://www.w3.org/2000/svg" viewBox="0 0 100 100"><style>.l{fill:#efe6c8;stroke:#a89c78;stroke-width:.3}.g{fill:none;stroke:#fff;stroke-opacity:.28;stroke-width:.35}.t{fill:#d9302b;stroke:#7a1512;stroke-width:.4}.mh{fill:none;stroke:#fff;stroke-width:3.2}.m{fill:none;stroke:#d9302b;stroke-width:1.8}.r{fill:none;stroke:#1d3a5c;stroke-width:1.4}</style><defs><clipPath id="c"><circle cx="50" cy="50" r="48"/></clipPath><radialGradient id="o" cx="42%" cy="38%" r="65%"><stop offset="0" stop-color="#5aa4dc"/><stop offset="1" stop-color="#21609e"/></radialGradient><radialGradient id="s" cx="34%" cy="28%" r="80%"><stop offset="0" stop-color="#fff" stop-opacity=".38"/><stop offset=".35" stop-color="#fff" stop-opacity="0"/><stop offset=".8" stop-color="#000" stop-opacity=".05"/><stop offset="1" stop-color="#000" stop-opacity=".35"/></radialGradient></defs><g clip-path="url(#c)"><circle cx="50" cy="50" r="48" fill="url(#o)"/><path class="g" d="M39.7 100L41 24.3L41.6 0M100 89.4L94.2 22.2L91.5 0M0 59.5L11.5 60.5L25.9 61.4L40.3 61.9L54.7 62L69.2 61.7L83.6 60.9L97.9 59.7L100 59.5"/><path class="l" d="M100 9.3L98.8 9.5L97.1 10.2L97 10.8L96.8 11.6L96.6 12.1L96 13.7L94.7 15.6L93.6 16.2L93.1 16.6L92.7 16.8L92 16.7L91.7 17L91.7 17.9L92.1 18.3L92.5 19.8L92.5 20.4L92.1 20L91.7 19.6L90.7 19.4L89.8 19.6L88.8 20.3L88.2 20.6L87.8 20.4L87.5 20.7L85.8 20.7L85.1 20.4L84.5 19.6L85 19.3L85.8 19.1L86 18.6L85.8 17.9L86.1 17.4L86.6 16.9L86.9 16.4L86.9 15.8L87.5 15.4L87.9 14.8L88 14.3L88.1 13.9L87.7 13.1L87.6 12.5L87.6 12.1L88.1 11.5L88.6 11.2L89 12.3L89.5 11.6L90 11.8L90.5 11.7L91.1 11.9L91.6 11.5L92.3 12.2L93.5 11.9L93.8 11.5L92.6 10.7L92.6 10.1L92.6 9.3L92.4 8.9L92.1 8.6L91.3 8.3L90.6 7.9L90.4 7.5L90.4 7.1L90.1 6.8L90.1 6.1L90.2 5.6L89.9 5.3L89.2 5.1L88.2 4.3L87.9 4L87.9 3.3L88 2.7L88.1 2.2L88.1 1.8L87.9 1L87.5 0.5L87 0.6L86.5 0.6L86.2 0.3L100 0ZM73.2 0L72.9 0.7L72.6 1.3L71.3 1.5L70.2 1.9L69.1 2.1L67.7 2.8L67.2 3.4L66.7 3.6L66.3 3.6L66 3.3L65 2.5L64.6 2.1L64.2 2L63.6 2.1L63.1 2.3L62.6 2.3L62 2.1L60.2 1.8L59.8 1.7L58.7 1.8L57.7 1.1L57.3 1.1L56.9 1.7L56.2 2L55.9 1.6L55.5 1.1L55.1 1L54.5 0.8L54.2 0.2L53.8 0L73.2 0ZM74.7 60.4L73.4 60.7L73 60.5L73.4 60L74.1 59.7L74.7 60.1ZM100 88.2L99.2 88.5L98.6 88.7L96.5 88.1L95.7 87.7L95.2 87.2L94.9 86.3L94.6 85.8L94.5 85.4L94.4 85L93.9 84.9L93.5 85.2L93 85.3L92.4 85.1L91 84.5L89.9 84.5L89.3 85.5L88.8 85.8L88.3 86L88.6 85L86.9 85.3L86.1 85.8L85.4 85.8L84.8 85.6L85.4 85.2L85.9 85L87.7 84.7L88.1 84.5L88.5 83.8L89.3 83.1L88.8 82.9L86 83.3L84.1 83.3L83.6 83.7L83.5 82.9L84.1 82.6L85.1 82.2L85 81.6L84.3 81.2L83.6 80.9L83.1 80.6L83 79.9L82.6 79L82.1 78.7L83 78.1L83.1 76.9L82.9 76.2L82.5 76.2L81.2 75.7L80.8 75.7L80.4 75.1L79.6 74.7L79.2 74.9L78.7 75.1L78.1 74.7L77.5 74.5L77.5 73.6L78 73.6L78 73L77.6 72.1L77.6 71.6L78 71.5L78.4 71.6L78.9 72.1L79.1 72.6L79 73.1L79.3 73.6L79.6 73.2L80 73.3L80.6 73.4L82 73L81.2 72.8L80.8 72.5L80.4 72L80.1 71.5L79.9 70.9L80.7 70.3L81.2 69.4L80.7 69.1L80.1 69L80 68.6L80.2 68.2L80.2 67.8L79.4 66.7L79.3 66.1L79.9 65.5L80.4 64.7L79.9 64.4L77.9 64.9L77.1 65.2L75.8 65.4L75.6 65L75.7 64.6L76 63.9L75.8 62.3L76 61.4L76.7 61.1L77.6 59.8L79 58.2L80.6 58.1L81.2 57.6L82.1 57.5L82.4 58.1L83.3 58.5L84.7 58.3L85.4 57.9L84.6 57.2L85.4 56.9L86.1 57L86 57.4L85.8 57.9L87.8 57.5L89.8 57.6L90.4 57.4L92 57.3L91.7 56.7L91.3 56.7L90.9 56.5L91.5 55.5L92.1 55.3L94.6 54.7L96.5 54.3L93.7 54L93.1 53.7L92.2 53.1L91.8 52.7L91.9 51.9L92 51.4L92.2 51L93.2 50.9L96.6 51.1L99 50.5L100 50.8L100 88.2ZM85.4 45.9L85.4 46.7L85.8 47.7L86.7 48.9L87.6 49.5L91.1 50.9L91.7 51L91.6 51.7L91.5 52.3L91.3 52.7L90.3 53L87.5 52.5L86.8 52.5L86.3 52.7L85.5 53.3L84.4 53.2L83.1 53.6L82.7 54.6L81.8 55.8L80.3 56.8L79.2 57.4L77.5 59.3L76.8 60.4L76.4 60.6L76.3 59.8L76.3 59L76.8 58.4L77.3 57.9L78.8 57.1L79.2 56.4L78 56.5L76.8 56.7L76 56.7L75.3 56.8L75 56.2L75 55.8L75.6 55.1L76 54.7L76.5 54.1L76.5 53.5L76.4 53L76.3 52L77.5 51.1L77.9 50.7L77.8 49.8L77.6 49.2L77.1 49L76.6 48.5L76.1 48.4L76.3 47.7L77.1 47.5L77.3 47L77.4 46.6L78 46.4L78.7 46.3L79.1 46.1L79.6 45.8L80.8 45.4L81.4 45.3L81.8 45.7L82.4 46.3L82.8 46.4L83.5 46.1L83.9 46L84.3 46.1L84.7 45.8ZM42.4 0L41.3 0.6L40.6 0.5L40.1 0.2L39.7 0L39 0.5L37.8 1.1L36.1 1.2L35.4 1.6L35.2 2L35.3 2.7L35 3.1L33.8 3.2L32.1 3.2L31.1 3.1L30.2 3.1L29.5 2.8L28.8 2.1L28 1.3L27.3 1.1L26.9 0.9L26.5 0L42.4 0ZM23.2 12.3L22.8 12.1L22.2 11.9L21.8 12.3L21.8 13L21 13L20.5 13.6L20.1 13.7L19.7 13.9L19.3 14L18.9 14.1L18.5 14.2L18.3 14.6L18.6 15.4L18.6 15.9L18.5 16.4L18.4 16.8L17.3 17.2L16.4 17.6L16.7 18.2L16.4 18.5L16.3 19L16.5 19.6L16 19.7L15.3 19.6L14.5 19.2L14 19.4L13.4 19L13 18.5L12.7 17.9L12.2 18.3L11.8 18.9L11 19L10.4 19L10 19L9.5 18.7L9.1 19.1L7.5 18.8L7.3 18.4L7.7 18.3L8.1 18L8.8 18L8.8 17.3L8.3 16.7L8 16.4L7.6 16.2L7.9 15.1L7.3 15L7.3 14.5L7.6 14.1L8 13.9L8.1 13.5L7.7 13.3L7.2 13.1L6.9 12.8L7 12.4L7.5 12L7.9 11.7L8.4 11.5L8.7 11L9.4 11.1L9.9 11.3L10.3 11.4L10.7 11.6L11.6 11.9L12.4 12L12.8 12.1L13.2 12.2L13.7 11.9L14.2 11.6L14.6 11.1L15.2 10.9L16.6 10.7L17.7 10.9L18.3 10.8L18.8 10.5L19.4 10.4L20.4 10.7L20.6 9.8L20.9 9.5L22.2 9.5L22.3 10.1L22.4 10.5L22.6 10.9L22.8 11.4L23.2 12.1ZM55.5 30.1L55.1 30.4L55 31.3L54.3 31.7L53.9 32.1L53.7 32.9L53.7 33.5L53.9 34.1L54.3 34.9L54.5 35.5L54.8 36L55.6 36.4L56 36.7L56.2 37.1L56.5 37.5L57.1 37.9L56.9 38.6L56.5 39.2L56.2 39.5L55.7 40.3L54.9 40.3L54.3 40.6L54.2 41L54.3 41.6L54.2 42.2L54.4 42.8L54.7 43.1L54.7 43.6L54.3 44.2L53.7 44.6L53.3 44.3L52.6 44.5L52.1 44.6L51.6 44.5L51 44.6L50.3 44.9L49.7 45.1L49.3 45.1L49.1 44.5L49.6 44L50.3 42.5L50.4 42L49.9 41.8L48.4 41.3L48.5 40.7L48 40.4L47.6 40.1L47.5 39.7L46.9 39.1L46.6 38.7L46.1 38.5L45.6 38.2L45.3 37.8L45.2 37.4L44.6 37.7L44.2 37.9L44.3 38.4L44.2 39.1L43.3 39.7L43.4 40.3L42.6 40.7L42.6 40.2L42.2 39.8L41.7 39.6L40.4 38.7L40 38.6L39.5 38.5L39 38L38.3 37.7L37.6 36.7L37 36.1L36.5 35.8L36.4 35.3L36.8 34.8L37.3 34.8L37.8 35L38.1 34.4L37.4 32.9L36.9 32.1L37.3 31.8L37.9 31.9L38.4 31.8L38.6 31.4L37.8 30.6L37.3 30L36.8 29.6L36.4 29.4L36.2 29L36.3 28.5L36.3 28L36.8 27.1L37.2 26.4L37.4 25.8L37.6 25.2L37 24.8L36.4 24.9L35.9 25.1L35.7 24.7L36.2 24.7L36.1 23.1L36.5 22.8L37.4 22.9L37.9 22.8L37.8 22.4L37.2 22.1L36.3 21.6L35.8 21.1L35.9 20.6L36.2 20.3L35.6 19.9L35.6 19.2L35.4 18.3L35.1 17.8L35.4 17.3L36 16.9L36.3 16.5L36.7 16.7L37.4 16.6L38 16.3L38.4 16L38.8 15.5L39.2 15.4L39.8 15.6L40.4 15.6L40.9 15.5L42.1 15.7L42.5 15.9L42.8 16.4L43.1 17L43.5 17.2L44 17.5L44.6 18.5L44.9 18.8L45.2 19.3L45.2 19.8L45.3 20.3L45.2 20.7L45.7 21.1L46.1 21.6L46.5 21.9L46.9 22.1L47.6 22.5L48.4 22.8L48.9 23.1L48.7 23.8L48.5 24.2L48.6 24.7L49.2 25L48.7 25.3L48.3 25.4L49.2 25.9L49.6 26.2L50.3 26.8L51.2 26.9L51.9 27.2L52.2 27.8L52.8 27.6L53.6 26.8L54.4 26.5L55.2 26.9L55.6 27.3L55.5 27.7L55.1 27.6L54.7 27.8L54.4 28.2L54.4 28.6L54.6 29L54.9 29.3L55.4 29.7ZM0 29.4L0.4 29.3L0.3 30L0 29.4ZM76.7 0L77.2 0.6L77.6 1.2L78.1 2.1L78.2 2.5L78.4 3L78.7 3.6L79.3 4.2L79.7 4.7L80.3 5.7L80.7 6.1L81.1 6.5L81.3 6.9L81.6 7.3L82.3 7.8L82.8 8.3L83.3 9.6L83.7 10.2L83.9 10.7L83.9 11.7L84 12.1L83.9 12.9L83.6 14.5L83.6 15.8L83.7 16.4L83.7 16.9L84 17.7L84.1 18.2L83.7 18.5L84.2 19.2L84.5 19.6L85.1 20.4L85.8 20.7L87.5 21L87.6 20.5L88.2 20.6L88.8 20.3L89.8 19.6L90.7 19.4L91.7 19.6L92.1 20L92.5 20.4L92.4 20.9L92.3 22.5L92.2 23L92 23.6L89.3 24.5L89.4 23.6L89.2 23.2L89.4 22.8L88.8 22.8L88.4 23.4L88.6 24.1L88.4 24.6L88.3 25.5L88.2 26L88.6 25.9L88.5 26.5L87.7 27.5L87.5 28.1L87.8 30.5L87.5 31.9L86.6 32.4L85.5 32.2L84.6 31.9L84 31.3L83.6 30.8L82.8 31.1L82.4 30.8L81.8 30.6L81.1 30.7L79.4 29.9L77.9 29.9L76 30.5L74.6 31.2L73.1 32.3L72.5 33.1L71.8 33.5L70.8 33.9L69 33.8L67 33.5L65 33.2L63.9 33.5L62.3 33.3L60.1 32.9L58.4 32.7L56.7 33.1L56.4 32.6L56.5 32.2L57.1 31.7L57.3 31.2L56.8 30.9L55.9 30.4L55.5 30.1L55.4 29.7L54.9 29.3L54.6 29L54.4 28.6L54.4 28.2L54.7 27.8L55.1 27.6L55.5 27.7L55.6 27.3L55.2 26.9L54.4 26.5L53.6 26.8L52.8 27.6L52.2 27.8L51.9 27.2L51.2 26.9L50.3 26.8L49.8 26.5L49.2 25.9L48.3 25.7L48.4 25.3L49.1 25.2L48.9 24.8L48.4 24.5L48.6 24.1L48.9 23.5L48.7 22.9L47.6 22.5L47.2 22.1L46.5 21.9L46.1 21.6L45.7 21.1L45.3 20.8L45.3 20.4L45.2 19.8L45.2 19.3L45.2 18.9L44.6 18.5L44.2 17.8L43.5 17.2L43.1 17L42.8 16.4L42.5 15.9L43.9 15.5L44.4 15.8L44.9 15.5L45.2 14.9L45.6 14.8L46.7 15L47.1 14.7L47.3 14.2L47.8 13.7L47.8 13.2L48 12.5L48.3 12.2L49.1 11.5L49 10.9L49.5 10.2L49.9 9.6L49.9 9L50.2 8.7L50.5 8.3L51 7L51.4 6.6L51.6 5.5L52.2 5L52.6 4.6L52.9 4.1L53.4 3.8L54.1 3.5L54.5 3.6L55.1 3.3L55.9 2.3L56.2 2L56.9 1.7L57.3 1.1L57.7 1.1L58.7 1.8L59.8 1.7L60.2 1.8L61.7 2.1L62.6 2.3L63.1 2.3L63.6 2.1L64.2 2L64.6 2.1L65 2.5L66 3.3L66.3 3.6L66.7 3.6L67.2 3.4L67.7 2.8L69.1 2.1L70.2 1.9L71.3 1.5L72.6 1.3L72.9 0.7L73.1 0.3L76.7 0ZM36.4 35.2L36.5 35.8L37 36.1L37.6 36.7L38.3 37.7L38.6 38L39.5 38.5L40 38.6L40.4 38.7L41.7 39.6L42.2 39.8L42.6 40.2L42.6 40.7L41.9 40.9L41.4 41.1L40.9 41.3L41 41.7L41.2 42.1L41.1 42.7L40.3 43L39.9 43.2L39.3 43.1L39.2 42.2L38.8 42.1L38.4 42.5L38.1 43.1L37.7 43.7L37.3 44.2L36.9 44.9L36.6 45.5L36.9 45.8L37 46.3L37 46.8L36.9 47.4L36 47.1L35.7 46.3L34.5 44.8L33 43.8L33.1 43.3L32.6 43.4L32.2 43L32 42.4L32.6 42L32.2 40.8L32.2 40.3L32.2 39.3L33.2 38.9L33.2 38.2L33.4 37.7L33.9 37L34.5 36.5L34.9 36.6L35.2 37L35.5 36.5L35.2 35.8L35 35.4L35.5 35.2L36 35.2ZM86 0L86.5 0.6L87 0.6L87.5 0.5L87.9 1L88.1 1.8L88.1 2.2L88 2.7L87.9 3.3L87.8 3.7L88 4.2L89 4.8L89.6 5.3L90.1 5.5L90.1 6.1L90 6.5L90.4 7.1L90.4 7.5L90.6 7.9L91.3 8.3L92.1 8.6L92.4 8.9L92.6 9.3L92.6 10.1L92.6 10.7L93.8 11.5L93.5 11.9L92.5 12.1L91.8 11.6L91.4 11.8L90.8 11.9L90.3 11.6L89.7 11.7L89.3 12.2L88.9 11.3L88.1 11.5L87.7 11.8L87.6 12.5L87.7 13.1L88.1 13.9L88 14.3L87.9 14.8L87.5 15.4L86.9 15.8L86.9 16.4L86.6 16.9L86.1 17.4L85.8 17.9L85.9 18.3L85.9 18.9L85 19.3L84.5 19.6L84.2 19.2L83.9 18.8L83.9 18.3L84 17.7L83.9 17.1L83.7 16.4L83.6 15.8L83.6 14.5L83.9 12.9L84 12.1L83.9 11.7L83.9 10.7L83.7 10.2L83.3 9.6L82.8 8.3L82.3 7.8L81.6 7.3L81.3 6.9L81.1 6.5L80.7 6.1L80.3 5.7L79.7 4.7L79.4 4.3L78.7 3.6L78.4 3L78.2 2.5L78.1 2.1L77.6 1.2L77.2 0.6L76.8 0.2L86 0ZM6.6 91.4L5.8 91.6L5.3 91.2L5.4 90.4L6 90.6L6.5 91.2ZM5.2 90L4.8 90.1L4.5 89.8L4.9 89.6L5.2 89.9ZM42.6 40.7L43.3 40.4L43.2 39.9L44.2 39.1L44.4 38.6L44.1 38L44.6 37.7L45 37.4L45.3 37.8L45.6 38.2L46.1 38.5L46.6 38.7L46.9 39.1L47.5 39.7L47.6 40.1L48 40.4L48.5 40.7L48.4 41.3L49.9 41.8L50.4 41.9L50.3 42.5L49.7 43.8L49.2 44.3L49.2 44.8L48.4 45.3L47.8 46L47.3 46L47 45.6L46.5 45.6L44.9 46.4L44.8 46.8L44.8 47.6L44.5 48L43.8 47.9L43.8 46.8L43.5 45.6L43.3 45.2L42.9 44.8L42 44.3L41.7 43.7L41.2 42.9L41.2 42.1L41 41.7L40.9 41.3L41.4 41.1L41.8 41.2ZM0 6.3L1.4 6L1.3 6.4L1.2 7.1L1.7 7.9L1.9 8.5L2.2 9L2.6 9.2L3.2 9.4L3.7 9.5L4.2 9.8L6 10.3L7 10.5L7.7 10.6L8.7 11L8.6 11.4L7.9 11.7L7.5 12L7 12.4L6.9 12.8L7.1 13.2L7.7 13.3L8.1 13.5L8 13.9L7.6 14.1L7.3 14.5L7.2 14.9L7.8 15L7.5 16.1L8 16.4L8.3 16.7L8.8 17.3L9 17.9L8.4 18.1L8.5 17.7L7.8 16.6L7.4 16.5L6.9 17L5.6 16.4L5.1 16.9L4.6 17.3L3.9 17.4L3.1 17.8L2.3 18.1L1.6 18.3L1.9 17.7L0.9 18L0.5 18.3L0.3 18.8L0 19.8L0.3 20.1L0.7 21.4L1.4 22L1.2 22.5L0.9 22.9L0.5 23.2L0.2 22.9L0 6.3ZM0 27.2L0.5 28.2L1.4 29.4L2.5 30L4.5 32L5.5 32.7L5.8 33L6.4 34.4L6.8 36.1L7.3 38.6L7.6 39.9L8.4 41.3L10.3 43.5L11.9 45.1L13.6 46.1L14.9 46.3L18 46.3L18.5 46.5L19.1 46.7L19.2 47.4L19 47.8L18.3 48.2L17.6 48.7L17.4 49.5L18 50.2L21 51.9L24 53.3L24.9 54L26 55.1L28.7 56.6L29.1 57.3L30.8 58.9L31.5 60L31.6 60.9L31.2 61.8L31 62.4L30.7 63L30 62.7L29.2 62.1L28.1 59.4L25.9 59.1L25.4 58.9L24.6 58.4L24.4 57.7L23.4 57.4L22.8 57.8L22 58.8L21.2 60.2L20.2 62.2L20.1 63L20.5 63.9L21.8 64.4L22.8 65.2L23.4 66L23.4 67.8L23.6 68.9L23.1 69.5L22.3 69.3L21.1 69.6L20.3 70.2L19.9 70.8L19.9 72.5L19.7 73.1L18.1 74.2L17.2 75.4L17 75.9L16.6 76.4L14.6 76.3L14.2 75.6L14.3 74.5L14.7 73.9L15.4 73.6L16 72.3L15.9 71.3L16.2 70.9L16.5 70.6L17 70.5L17.8 70.4L18 69L17.4 68.3L17.3 67.5L17.1 65.8L16.2 63.7L15.8 61.8L15.5 60.9L14.9 60.4L13.8 60.3L13.2 60.1L11.3 58.7L11.3 58.2L11.6 57.7L11.5 57L11.3 56.3L11 55.7L10.5 55.4L9.7 55.5L9.3 55.6L8.8 55.5L8.3 55.7L8.8 54.8L8 54.1L7.1 54L6.7 54.1L6.6 53.6L5.7 51.5L5.1 50.6L4.7 50.5L4.1 50.6L3 50.1L2.4 50L1.5 50.2L1.1 49.8L0.3 48.9L0 30L0.5 29.6L0.1 29.3L0 27.2ZM0 73.2L0.5 73.2L1 73.8L1.6 74L2.6 74.9L3.3 75.1L4.1 74.8L4.8 74.8L6.2 75.1L7 75L7.5 75L8.3 74.7L8.9 74.3L9.3 74.2L10.4 74.3L11.2 74.5L11.8 74.1L12.2 73.9L13.5 73.6L13.9 73.6L14.3 73.8L13.9 74.2L13.4 75L11.7 77.3L11.5 77.7L11.3 78.3L11.2 78.7L10.9 79.1L10.7 79.7L10.7 80.3L10.9 80.8L11.4 81.3L11 81.6L11.4 82.1L11.6 82.5L11.6 83.1L10.9 83.6L10.5 84.3L10.4 84.7L10.4 85.4L9.7 85.3L9 85.1L8.4 85.1L7.4 84.6L6.8 84.3L6.1 83L5.5 82.3L4.8 81.9L4.1 81.8L3.4 81.8L2.8 81.4L1.6 80.4L0.3 79.6L0 79.3L0 73.2ZM53.8 0L54.2 0.2L54.5 0.8L55 1L55.5 1L55.8 1.3L55.9 1.8L56 2.2L55.1 3.3L54.7 3.5L54.1 3.5L53.7 3.6L53.1 3.8L52.6 4.6L52.2 5L51.8 5.3L51.6 6.3L51.1 6.8L50.5 8.3L50.2 8.7L49.9 9L49.9 9.6L49.5 10.2L49 10.9L49.1 11.5L48.6 12L48.1 12.3L47.8 13.2L47.8 13.7L47.3 14.2L47.1 14.7L46.7 15L45.6 14.8L45.2 14.9L45.1 15.3L44.7 15.7L43.9 15.5L42.7 15.8L42.3 15.8L40.9 15.5L40.4 15.6L39.8 15.6L39.2 15.4L38.8 15.5L38.4 16L38 16.3L37.4 16.6L37 16.8L36.4 16.5L36 16.9L35.6 17.1L35.1 17.2L34.5 17.3L33.6 17.9L33 18.3L32.5 18.3L32 18.2L30.5 18.1L29.7 17.9L29.1 17.6L28.8 17.3L28.3 16.7L27.6 16.6L27.1 16.3L26.8 15.7L26.3 15.1L25.8 14.8L25.3 14.2L25 13.6L24.4 13L23.5 12.4L23.2 12.1L22.8 11.4L22.6 10.9L22.4 10.5L22.3 10.1L22.3 9.7L21.2 9.4L22.1 8.6L22.5 8.4L23 8.5L23.3 8.1L23.4 7.6L23.1 6.8L23.3 6.4L23.3 5.7L23.7 5.5L24.2 5.2L24.6 4.6L24.4 4L23.4 3.6L23.9 3.1L24.5 3L25 3.4L25.6 3.4L26.1 3.4L26.6 3.4L26.5 3L26.5 2.4L26.8 1.9L27.2 1.2L27.8 1.2L28.8 2.1L29.5 2.8L30.2 3.1L31.1 3.1L32.1 3.2L33.8 3.2L35 3.1L35.3 2.7L35.2 2L35.4 1.6L36.1 1.2L37.8 1.1L38.9 0.8L39.4 0.1L40.1 0.2L40.6 0.5L41 0.7L42.2 0.1L53.8 0ZM43.7 74.2L43.8 75L44.2 75.2L44.7 76L44.7 76.4L43.6 76.1L43.1 76.2L43 75.8L42.8 75.4L42.4 75.6L42.5 74.5L42.9 74.7L43.3 74.1L43.3 73.6ZM45.3 78.5L45.9 79.3L45.4 79.1L44.8 79.6L44.2 79L43.8 78.4L44.1 77.6L44.5 78.2L45 78.3ZM44.1 72.5L43.5 72.5L43.4 72.1L43.6 71.3L43.8 70.9L44.2 70.7L44.3 72.2ZM44.6 74.6L43.9 73.9L43.8 73.4L44.2 73.7L44.3 74.1ZM40.7 66.2L40.8 66.6L40.1 66.4L39.5 66L39.1 65L38.2 64L38.6 63.4L39.3 63.3L39.8 63.6L39.5 64.2L39.7 64.8L39.8 65.7L40.4 66.1ZM60.2 69.8L60.5 70.6L61.5 71.2L62.9 71.8L64.2 71.8L64.6 72.5L64.9 72.8L64.8 73.4L65 74.3L65.4 75.2L65.9 75.6L66.5 75.7L67.1 75.7L67.2 76.6L67 77L66.6 77L66.2 76.7L65.6 76.4L65 76L64.9 75.3L64.3 74.5L64 74.1L63 73.9L62.3 73.9L61.6 73.6L61.4 72.8L61 72.6L60.5 72L59.9 71.5L59.2 71L58.6 70.7L57.9 70.5L57.4 70.7L57 70.5L57.7 70.1L58.6 69.5L59.2 69.2ZM62.3 68.5L62 68.8L61.6 68.7L61.2 67.9ZM62.9 68.2L62.9 67.7L63.4 67.4L63.2 67.9ZM67.6 70.7L67 70.9L66.9 70.5L66.3 70.1L66.4 69.6L66.9 69.7L67 70.2ZM67.7 57.1L67 57.4L66.2 56.9L66.6 56L67.3 55.8L67.7 56.2L67.7 56.7ZM61.1 77.5L60.6 77.7L60.6 77.1L61 77.2ZM58.3 90.6L58.3 91L57.7 90.7L57.4 89.7L57.6 89.3L58 89.6L58.6 90.2ZM83.7 95.1L83.5 95.5L83.2 95.2L83.3 94.7L83 94.1L83.5 93.1L83.4 92.6L83.8 92.4L83.8 93.2L83.5 93.8L83.8 94.3L84 94.9ZM82.1 83.9L81.5 84.1L81.6 83.5L81.3 83L81.8 83.2L82.1 83.5ZM81.8 85.7L81.8 85.3L82.4 84.8L83.3 84.3L84.1 84.5L83.2 85L82.3 85.3ZM73.3 84.3L72.7 84.6L72.4 84.2L72.1 83.6L73.1 82.6L73.5 82.9L73.5 83.8ZM71.6 83.7L71.2 84.2L70.8 84.2L70.8 83.4L71.3 83L71.6 83.5ZM73.1 88.7L72.8 89.1L72.4 88.9L72.6 88.3L73 88.3ZM72.4 86.6L71.8 86.2L71.8 85.7L72.5 86.3ZM80.6 77.6L81.3 77.8L81.9 77.8L82 78.3L81.6 78.4L80.8 78.8L80 78.4L79.4 78.4L79.5 77.9L80.1 77.6ZM76 80L76.3 79.2L77 79.1L77.7 78.8L77.5 79.2L77 79.6ZM75.2 85.6L74.7 85.7L75.1 85.3L75.7 84.8L76 84.4L76.4 84.7L75.9 84.9ZM78.9 86.9L78.4 87.1L78.2 87.5L77.8 87.3L78.2 87L78.3 86.6L78.7 86.7ZM66 80L65.6 80.4L65.5 79.9L65.7 79.3L66.1 79.2ZM66.5 81.8L66.1 81.2L66.5 80.8L66.8 81.3ZM67.2 86.1L67.3 86.5L66 86.9L66.1 86.4L66.6 86.5ZM69.5 80.5L69.5 81.3L69.2 80.9L69.3 80.4ZM69.7 78.5L69.6 79L69.1 78.5L68.6 78.1L68.4 77.7L67.9 77.1L68.3 76.9L68.9 77.4L69.5 77.4L69.6 78.2ZM71.3 79.7L71.1 80.2L70.1 79.6L69.8 79.1L70.3 79.3L71.1 79.4ZM68.3 84.9L68 84.6L68 84.1L68.6 84.7ZM76.1 74.8L75.6 75.2L74.9 74.7L75.2 74.2L75.5 73.8L75.3 73.3L74.6 72.7L74.5 72.2L75.5 71.9L76.1 72.3L76.3 72.8L76.5 74.1L76.2 74.7ZM77.6 66.3L77.5 66.8L78.3 67.5L78.6 67.9L78.7 68.4L78.1 68.2L78.5 68.8L78 69L77.6 69L76.2 68.7L75.9 68.3L76.7 67.6L76.3 67.4L75.7 68.2L74.7 67.9L74.4 67.6L74.7 66.8L75.3 66.8L75.7 66.6L76.1 66.4L77.2 65.9ZM73 58.3L72.3 58.5L71.6 57.9L72.3 57.6L72.8 58ZM71.7 61.7L71.3 62.4L71.3 63L70.9 63.1L70.7 62.7L70.3 62.9L69.6 62.8L69.6 62.3L69.5 61.8L70.5 61.6L70.8 61.9L71.2 61.7L71.7 61.3ZM72.3 81L71.7 81L71.7 80.5L72.6 80.6ZM87.6 91.3L87.1 91.5L86.8 91.2L87 90.3L86.7 89.8L87 89.2L87.2 88.7L87.8 88.2L89.3 87.4L89.7 87.4L89.2 89.1L88.8 89.7L89 90.2L88.2 90.4ZM63.3 95.4L63.7 95.5L64.3 95.5L64.8 95L65.2 94.9L65.4 95.4L65 95.6L65.3 95.9L65.8 95.9L65.9 96.5L66.4 96.7L67 96.6L67.5 96.5L68.1 96.2L68.7 96.1L70.4 96.2L71 96.6L72.2 96.6L73.3 96.8L73.9 96.6L74.9 96.4L75 97.7L75.3 98.1L75.9 97.6L76.7 97.3L77.6 97.3L78.3 96.5L78.3 97.7L78.2 98.2L77.7 98.8L76.9 98.8L75.6 98.8L74.3 99L71.8 99.5L69.3 99.8L68.9 99.7L68.9 99.2L68.7 98.6L67.9 98.5L67.2 98.1L64.3 97.8L63.6 97.6L62.5 97.7L61.8 97.6L61.5 96.4L61.6 95.5L62.2 95.6L62.5 95.3L62.6 94.6L63 95.3ZM76.1 48.4L76.6 48.5L77.1 49L77.6 49.2L77.8 49.8L77.9 50.7L77.5 51.1L76.3 52L76.3 52.7L76.4 53.3L76.6 53.8L76 54.7L75.6 55.1L75.3 55.7L74.9 55.9L73.8 55.1L71.7 54.9L70.7 54.5L70.3 54.6L69.5 54.1L68.9 54.4L67.7 55.2L67.1 55.2L66.4 54.7L65.9 54.6L65.4 54.9L64.6 55.9L63.7 56.4L62.9 56.2L61.9 56.2L61.8 56.8L62.6 57.8L62.3 58.2L62.5 58.7L62.9 58.8L63.5 58.8L64.5 59.3L65 60L65.3 60.7L64.7 60.2L64.2 59.7L63.7 59.5L62.8 59.2L62.3 59.1L61.8 59.4L62.3 60.3L62.9 60.7L63.2 61L63.4 61.7L63.1 62.1L62.4 61.7L61.4 60.2L60 59.9L59.8 60.3L60.1 61L60.3 61.4L61.5 62.2L59.9 62L59.5 61.3L59.4 60.3L58.2 59.7L57 59L56.7 58.3L57 58L57.1 57.5L56.5 57.6L56.1 57.9L55.4 58.3L55.4 58.8L55.5 59.2L55.3 59.9L55.1 61.1L55.3 61.7L56.7 63.5L57.2 64.8L57.5 65.3L58.3 65.8L59 66.8L59.4 67.3L59.6 68.1L59 68.7L58.4 68.5L58.7 67.9L58.6 67.5L57.6 67L57.2 67.2L56.8 67.6L57.1 68.2L57.4 68.7L57.5 69.3L58.1 69.2L57.3 69.9L56.6 70.3L55.9 70.3L55.4 70.4L55.9 70.7L56.4 71L57.9 71.4L58.6 72L59.3 72L60 73L61.2 73.3L61.8 74.3L62.8 74.5L63.5 74.8L63.8 75.2L63.9 75.8L64 77.2L64.2 78.3L64.2 79.1L63.7 79.3L63.1 78.6L62.2 77.8L61.3 76.9L60.8 76.7L60.3 77.1L59 77.3L58.4 77.7L58.7 78.6L58.7 79.1L59.1 79.9L60 80L60.3 80.4L60.6 80.8L60.8 81.2L59.4 81.7L58.9 82L58.5 81.8L58.5 81.2L58 80.9L57.5 80.7L57 80.6L56.5 80.2L56.2 80.5L56.5 81.6L57 82.4L57.9 84.4L58.3 85.6L58.4 86.2L58.2 87.2L58.7 87.9L59 88.7L58.4 88.4L57.9 88.1L57 86.9L56.6 86.2L55.6 86.2L54.9 87.8L54.9 88.7L54.5 88.5L54.2 88.2L54.2 87.3L54.2 86.8L53.3 85.5L52.9 85.3L52.7 84.9L52.4 84.4L52 84.5L51.6 85.4L51.5 86.1L51.3 86.6L50.4 85.6L49.4 84L49.4 83.1L50.1 82.3L50 81.7L49.3 80.5L48.4 79.8L47.9 79.6L47.7 78.8L47.2 78.4L46.8 78.2L46.8 77.7L47.8 76.9L48.4 75.6L49.2 75.8L49.9 75.8L50.4 75L50.9 74.6L51.6 74.7L53.3 75.7L55.2 76.2L56.1 76.7L56.7 77.2L57.4 77.4L57.3 77L57.6 76.5L58.5 76.5L58.9 76L58.4 75.5L57.8 75.4L57.4 75.5L56.8 75.3L56.4 74.9L55.3 74.5L54.4 73.8L54.2 74.2L53.8 74.4L53.2 74.4L51.7 74L50.7 74.3L50.2 74.4L49.8 74.4L49.3 74.6L48.8 74.7L48.3 74L48.1 73.5L47.9 73.9L47.8 74.3L47.1 74.5L46.6 74.2L46.3 73.3L46 72.1L45.3 71.2L44.7 71L44.6 70.5L44.7 70.1L45.4 70L46.4 70.4L46.9 70.1L46.7 69.3L46.2 69.4L45.6 69.3L44.7 69.5L44.3 69.3L43.5 68.4L42.9 67.6L42 67L41.3 65.4L40.8 64.7L40.3 64.1L41 64.5L41.4 64.6L41.8 64.2L42 63.6L42.4 63.5L42.3 62.8L42.1 62.3L42.5 61.8L42.9 61.5L43.8 61.4L44.1 61.1L44.3 60.1L44.7 59.5L44.8 59L45 58.6L45.4 58.5L45.8 58.3L46.1 57.8L46.3 57.3L46 56.6L45.9 56.2L45.9 55.6L46.7 55.6L48 55.5L48.4 55.2L49.4 55.5L50.6 54.9L51.4 53.7L51.8 53.5L52.6 53.4L53.2 53.3L54.1 53.5L54.6 53.6L55.2 53.4L55.9 53.1L56.1 52.1L56.7 51.9L57.6 52L58.4 52L58.8 51.5L59.6 51.5L60.5 51.5L61.1 51.4L61.8 51.2L62.4 50.9L63 50.9L63.4 50.3L64.4 50.3L65.3 50.3L65.8 50L66.3 50.7L66.8 51L67.5 51.5L67.9 51.2L68.7 51.4L69.5 51.7L70.2 52.2L71 52.1L71.8 51.7L72.3 51.6L72.9 51.6L74 51.5L74.8 51.2L75.2 50.9L75.3 50.5L75.2 49.9L75 49.3L74.7 49L74.8 48.5L75.4 48.2ZM5.8 0L6.1 0.4L6 1L5.7 1.5L6.1 1.8L6.4 2.2L6.3 2.8L6.1 3.3L5.3 3.2L5 2.9L5 2.4L4.5 1.9L4 2L3.5 2.1L2.9 1.6L2.4 1.4L2.1 1.8L0 2L0 0ZM7.3 18.4L7.5 18.8L8.9 19.3L9.4 18.9L10 19L10.4 19L11 19L11.5 19.1L12.2 18.3L12.4 17.9L12.8 18.2L13.4 19L13.7 19.3L14.2 19.2L15.3 19.6L16 19.7L16.5 19.6L16.3 19L16.4 18.5L16.7 18.2L16.3 17.7L17.3 17.2L18.3 17L18.5 16.4L18.6 15.9L18.6 15.4L18.3 14.9L18.4 14.4L18.9 14.1L19.3 14L19.7 13.9L20.1 13.7L20.5 13.6L20.8 13.1L21.7 13.1L21.8 12.3L22.1 12L22.8 12.1L23.2 12.3L24.4 13L25 13.6L25.3 14.2L25.8 14.8L26.3 15.1L26.8 15.7L27.1 16.3L27.6 16.6L28.3 16.7L28.6 17L29.1 17.6L29.7 17.9L30.5 18.1L32 18.2L32.5 18.3L33 18.3L33.5 18.1L34.2 17.2L35.1 17.2L35.5 17.1L35.4 17.6L35.4 18.3L35.6 19.2L35.4 19.6L36.1 20.2L35.9 20.6L35.8 21.1L36.3 21.6L37.2 22.1L37.6 22.3L37.9 22.6L37.4 22.9L36.8 22.9L36.4 23L36.2 24.3L36 24.8L35.7 25.1L34.8 25L34.5 24.5L34.4 23.9L33.9 23.5L33 23.4L32.3 23.1L31.6 23L31.2 23.1L30.4 22.9L29.8 23.3L29.4 23.3L28.8 22.7L28 22.9L27.6 22.8L26.9 22.5L26.3 22.6L25.8 22.4L24.8 21.6L24.1 22.1L22.7 21.9L22.3 22.3L21.7 23L21.3 23.4L20.6 22.9L20 21.9L19.3 21.7L18.9 21.8L18.5 23.2L18.3 24.3L18.2 25L19 25.7L19.8 26.8L20.2 27.3L20.3 28.3L20.5 29.3L20.9 30L21.3 30.5L21.8 31L22.4 31.7L22.9 32.5L24 33.8L24.9 34.8L25.8 35.2L25.9 36.2L26.5 37.3L27.7 38.6L27.8 39L27.4 39.3L26.1 37.9L25 37.2L23.9 35.7L22.2 35.1L21.1 34.4L20.5 34.5L19.7 34.6L19.2 34.6L18.7 34.1L18.8 33.4L18.1 32.8L17.3 32.1L16.5 31.4L15 29.3L14.7 28.6L15.2 28.5L16 28.4L16.5 28.6L16.1 28.2L15.5 27.7L14.1 25.9L13.7 25.1L13.7 24.3L13.9 23.1L13.7 22.3L12.7 21.1L12.3 20.5L11.5 20.1L11.1 20.1L10.8 20.5L10.5 21.4L9.7 22.6L9.3 23.1L8.9 23.7L8.5 23.8L7.8 22.5L7.3 21.5L7.2 20.6L7 18.7ZM22.3 38.6L23.3 38.9L24.1 38.8L24.7 39L25.1 39.3L24.7 39.4L24.1 39.2L23.3 39.5L22.7 39.3L22.4 38.9ZM25.3 37.8L24.9 37.9L22.5 37.7L21.8 37.5L21.1 37L21.7 36.8L22.4 37L24.6 37.6ZM23.2 36.6L22.3 36.6L21.5 36.4L21.2 36.1L21.4 35.6L22.2 35.7L23.5 36L23.7 36.4ZM15.1 30.1L14.6 29.8L14.3 29.5ZM13.4 23.1L12.8 23.2L12.5 22.9L11.9 22.5L11.6 22.1L12 21.7L12.3 21.1L12.6 21.5L12.9 22.2ZM13.4 24.7L13 24.7L12.6 24.6L12.6 24.1L13.1 24ZM15.1 28L14.6 27.8L14.3 27.5L13.7 26.8L13.6 26.3L13 25.4L13.5 25.8L14.2 26.5L14.7 27.3L15.4 27.9ZM14.8 31.1L13.3 29.5L13.7 29.6ZM15.8 30.8L16.2 31.4L15.8 31.3L15.5 30.9L15.3 30.5ZM11.5 25.3L11.1 24.5L10.8 23.4L11 22.8L10.8 21.6L11.2 21.4L11.2 22.1L11.3 22.5L11.6 23L11.5 23.7L11.5 24.8ZM27.5 40.6L28.2 41.2L26 40.4L26.5 40.3ZM32 42.4L32.2 43L32.4 43.4L31.4 42.6L30.5 41.8L28.7 40.5L27.4 40.1L25.6 39L24.5 38.6L25.4 38.6L28.2 40L27.8 39.7L28.3 39.6L28.8 40.1L29.2 40.4L29.9 40.9L30.3 41.3L31.3 42.1ZM85.4 45.9L84.7 45.8L84.3 46.1L83.9 46L83.5 46.1L83 46.3L82.4 46.3L81.8 45.7L81.4 45.3L80.8 45.4L79.8 45.6L79.1 46.1L78.7 46.3L78 46.4L77.6 46.4L77.3 47L77.1 47.5L76.3 47.7L76.1 48.2L75.4 48.2L74.9 48.4L74.7 48.8L75 49.3L75.2 49.9L75.3 50.5L75.2 50.9L74.8 51.2L74 51.5L73.2 51.5L72.3 51.6L71.8 51.7L71 52.1L70.2 52.2L69.5 51.7L68.7 51.4L67.9 51.2L67.5 51.5L66.8 51L66.3 50.7L66 50.1L65.3 50.3L64.7 50.3L63.4 50.3L63.3 50.8L62.4 50.9L61.8 51.2L61.1 51.4L60.5 51.5L59.9 51.4L58.8 51.5L58.4 52L57.6 52L57 51.9L57.2 49.9L57.5 49L57.1 48.6L56.9 48.1L56.5 47L55.6 46.5L55 46.1L54.6 45.7L53.7 44.6L54.1 44.4L54.7 43.6L54.7 43.1L54.4 42.8L54.2 42.2L54.3 41.6L54.2 41L54.3 40.6L54.7 40.4L55.7 40.3L56.2 39.5L56.5 39.2L56.8 38.8L57.1 38.3L56.5 37.5L56.2 37.1L56 36.7L55.6 36.4L54.8 36L54.5 35.5L54.3 34.9L54.1 34.4L53.8 33.8L53.7 32.9L53.9 32.1L54.3 31.7L55 31.3L55 30.7L55.3 30.2L55.9 30.4L56.8 30.9L57.3 31.2L57.1 31.7L56.7 31.9L56.4 32.6L56.7 33.1L58.4 32.7L60.1 32.9L62.3 33.3L63.9 33.5L65 33.2L67 33.5L69 33.8L70.8 33.9L71.8 33.5L72.5 33.1L73.1 32.3L74.6 31.2L76 30.5L77.9 29.9L79.2 29.7L81.1 30.7L81.8 30.6L82.4 30.8L82.8 31.1L83.6 30.8L84 31.3L84.6 31.9L85.5 32.2L86.4 32.4L87.5 32.3L87.5 34.1L87.1 35L86.3 34.8L85.3 35.1L84.8 36.1L84.5 36.4L84.3 36.8L84.2 38L84.3 40.1L83.9 40.3L82.2 42.3L83.1 42.8L83.5 43.1L84.2 44.2L85.2 45.3ZM36.4 35.2L35.8 35.3L35.2 35.1L35.2 35.8L35.5 36.5L35.4 37L34.9 36.6L34.5 36.5L33.9 37L33.5 37.4L33.2 38L33.2 38.9L32.4 39L32.2 40.3L32.2 40.8L32.6 41.6L32.2 42.3L31.5 42.2L30.3 41.3L29.9 40.9L29.2 40.4L28.8 40.1L28.6 39.7L27.8 39.7L27.4 39.3L27.8 39L27.7 38.6L26.5 37.3L25.9 36.5L25.9 35.4L24.9 34.8L24 33.8L23 32.8L22.4 31.7L21.8 31L21.3 30.5L20.9 30L20.5 29.3L20.3 28.3L20.2 27.3L19.8 26.8L19 25.7L18.2 25L18.3 24.3L18.5 23.2L18.7 21.9L19.3 21.7L20 21.9L20.6 22.9L21 23.2L21.7 23L22.3 22.3L22.7 21.9L24.1 22.1L24.8 21.6L25.8 22.4L26.3 22.6L26.9 22.5L27.6 22.8L28 22.9L28.6 22.6L29.4 23.3L29.8 23.3L30.2 23.1L31.2 23.1L31.6 23L32.3 23.1L32.7 23.2L33.9 23.5L34.4 23.9L34.5 24.3L34.6 24.7L35.4 25.1L35.9 25.1L36.4 24.9L37 24.8L37.4 24.9L37.4 25.8L37.2 26.4L36.8 27.1L36.4 27.7L36.3 28.5L36.2 29L36.4 29.4L36.8 29.6L37.3 30L37.8 30.6L38.4 31.2L38.6 31.6L37.9 31.9L37.3 31.8L36.8 32L37.4 32.9L38.1 34L38 34.8L37.5 35L37 34.8ZM0 2L2 2L2.1 1.3L2.9 1.6L3.3 1.8L3.7 2.1L4.5 1.9L4.9 2.2L4.9 2.8L5.3 3.2L5.8 3.5L6.3 2.8L6.4 2.2L6.1 1.8L5.6 1.6L6 1L6.1 0.4L5.8 0L26.5 0L26.8 0.6L27.2 1.2L26.8 1.5L26.6 2.1L26.5 2.6L26.6 3.4L26.1 3.4L25.6 3.4L25.2 3.5L24.5 3L24 2.9L23.6 3.3L24.4 4L24.6 4.6L24.3 5L24 5.4L23.3 5.5L23.3 6.4L23.1 6.8L23.2 7.4L23.4 7.8L23.2 8.3L22.5 8.4L22.1 8.6L21.2 9.4L20.6 9.8L20.6 10.5L19.5 10.4L18.8 10.5L18.3 10.8L17.7 10.9L16.6 10.7L15.5 10.8L14.9 10.9L14.4 11.3L13.7 11.9L13.3 12L13 12.3L12.6 12.1L11.6 11.9L10.7 11.6L10.3 11.4L9.9 11.3L9.4 11.1L8.9 11.1L7.7 10.6L7 10.5L6 10.3L4.2 9.8L3.7 9.5L3.2 9.4L2.6 9.2L2.2 9L1.9 8.5L1.7 7.9L1.2 7.1L1.1 6.7L1.5 6.2L0.3 6.2L0 2ZM36.9 47.8L37 46.8L37 46.3L36.9 45.8L36.6 45.5L36.9 44.9L37.3 44.2L37.7 43.7L38.1 43.1L38.4 42.5L38.8 42.1L39.2 42L39.2 42.9L39.5 43.2L40.3 43L40.9 42.7L41.7 43.7L42 44.3L42.6 44.6L43.3 45.2L43.5 45.6L43.8 46.8L43.8 47.5L43.7 47.9L43.4 49.1L43.4 49.7L43.2 50.3L43.3 51.5L43.2 51.9L43.3 52.4L43.7 53.5L44.2 54L44.5 55L45.4 55.1L45.9 55.4L45.9 56.2L46 56.6L46.3 57.1L46.1 57.8L45.8 58.3L45.4 58.5L45 58.6L44.8 59L44.7 59.5L44.3 60.1L44.2 60.9L43.8 61.4L43.3 61.5L42.6 61.6L42.2 62L42.3 62.8L42.5 63.2L42 63.5L41.9 63.9L41.7 64.4L41 64.5L40.6 64.2L40.2 63.4L40.1 62.9L39.4 61.6L37.4 60.3L36.9 59.7L36.7 59.2L36.5 58.8L36.9 58.9L37.3 58.8L37.1 58.3L36.6 57.2L36.6 56.8L36.9 55.9L37.4 54.8L37.4 53.5L37.5 52.6L37.4 51.9L37.3 51.1L37.7 50.1L38 49.8L38.2 48.4L37.6 47.9Z"/><path class="t" d="M49.3 45.1L49.7 45.1L50.3 44.9L50.7 44.7L51 44.6L51.2 44.5L51.6 44.5L52.1 44.6L52.6 44.5L53.1 44.2L53.3 44.3L53.6 44.5L54.6 45.7L55 46.1L55.6 46.5L56.3 46.7L56.5 47L56.9 48.1L57.1 48.6L57.4 48.7L57.5 49L57.2 49.9L57.1 51.8L56.7 51.9L56.2 52L55.9 53.1L55.2 53.4L54.6 53.6L54.1 53.5L53.2 53.3L52.9 53.3L52.6 53.4L51.8 53.5L51.4 53.7L50.6 54.9L49.7 55.3L49.4 55.5L48.7 55.2L48.4 55.2L48 55.5L47 55.5L46.7 55.6L45.9 55.6L45.9 55.4L45.7 55.2L45.4 55.1L44.6 55.2L44.5 55L44.2 54L43.9 53.8L43.7 53.5L43.3 52.4L43.2 51.9L43.3 51.5L43.1 50.5L43.2 50.3L43.4 50.1L43.4 49.7L43.4 49.1L43.7 47.9L44.5 48L44.8 47.6L44.8 46.8L44.9 46.4L46.5 45.6L47 45.6L47.3 46L47.6 46.2L47.8 46L48.1 45.5L48.4 45.3Z"/><circle cx="50" cy="50" r="48" fill="url(#s)"/></g><circle class="r" cx="50" cy="50" r="48"/></svg>
