<svg xmlns="http://www.w3.org/2000/svg" viewBox="0 0 150 100"><style>.o{fill:#b5d7ef}.g{fill:none;stroke:#fff;stroke-opacity:.45;stroke-width:.3}.l{fill:#f3ecd2;stroke:#ad9f78;stroke-width:.3}.t{fill:#d9302b;stroke:#7a1512;stroke-width:.45}.mh{fill:none;stroke:#fff;stroke-width:3}.m{fill:none;stroke:#d9302b;stroke-width:1.6}.io{fill:#4f93c9}.il{fill:#f3ecd2}.id{fill:#d9302b;stroke:#fff;stroke-width:.6}.ir{fill:none;stroke:#fff;stroke-width:1.2}.n{font:500 3.8px system-ui,-apple-system,'Segoe UI',Roboto,Arial,sans-serif;fill:#6b6249;text-anchor:middle;paint-order:stroke;stroke:#f3ecd2;stroke-width:.9;stroke-linejoin:round}</style><rect class="o" width="150" height="100"/><path class="g" d="M0 90.8L9.8 22.4L13.9 0M56.2 100L58.7 27.2L60 0M113.3 100L108 26.2L105.6 0M0 56.2L4.3 56.9L17.5 58.8L30.8 60.3L44 61.3L57.4 62L70.7 62.4L84.1 62.3L97.4 61.8L110.7 61L124 59.8L137.2 58.2L150 56.2"/><path class="l" d="M19.8 67.5L19.5 66.8L19.5 65.7L19.9 65.5ZM36.7 51.5L38.1 51.7L39.3 51.9L40.9 52.1L41.3 52.2L41.8 52.3L42.4 52.1L42.7 51.8L42.2 51.1L42.1 49.5L42.1 48.2L42.5 47.8L43 47.6L43.6 46.7L44.4 46.3L46 46.3L46.7 46.2L47.3 45.2L47.5 44.6L47.9 44.2L48.6 44.4L49.2 44.7L49.6 45.3L49.7 45.7L50.1 45.6L49.9 44.9L49.3 44L48.9 43.6L48.6 43.3L48.9 43L49.7 43L50.3 43.1L50.9 42.3L51.6 43.1L52.3 43.9L53.1 44.2L53.5 44.3L53.9 44.6L54.3 45.5L54.7 45.7L55.2 45.9L56.8 46L57.3 46L57.6 46.5L58 46.8L57.8 47.2L57.8 48L57.7 48.4L58.4 48.8L58.7 49.1L58.9 49.5L58.4 49.6L58.2 50.2L58.4 50.6L58.5 51L58.1 51.8L58.2 52.3L58.8 52.7L60.1 53.6L61.7 53.5L62.2 53.5L62.6 53.6L63.6 53.8L64.2 54L64.6 53.9L65 53.5L65.5 53.4L66.3 53.7L67.1 54.2L67.7 54.7L67.9 55.1L68.2 56.1L68.6 57.6L69.1 58.6L69.7 59.1L70.1 60L70.4 62.1L70.6 62.5L71.5 63.3L72.9 64.3L73.7 64.9L74.9 65.9L76.1 66.7L77.3 68L78.5 68.9L79.7 69.6L80.5 69.5L81.7 70.6L82.2 71L83.3 71.6L84.7 72.4L86.5 73.7L87.6 74.5L88 74.6L88.6 74.4L89 74.2L89.6 74.4L90.3 74.7L90.7 74.9L91.2 75.2L91.6 75.5L93 75.9L93.3 76.2L92.8 77.5L92.7 78.8L92.7 79.8L92.9 80.5L91.9 80.4L90.5 80.1L89.4 79.5L88.6 79.1L88.2 79.5L87.9 79.8L87.8 80.5L87.5 81.4L86.1 81.4L84.9 81.5L84.2 81.8L83.4 82.3L83.2 82.8L83.1 83.4L82.7 85L82.3 86.3L82.1 87.2L81.8 87.8L80.9 88.6L80 89.2L79.5 89.4L79.2 89.7L79 90.1L78.6 90.1L77.2 90.5L76.2 90.8L75 91.2L74.3 91.2L73.9 91.5L74 91.9L74.2 92.5L73.8 93.2L73.6 94.1L73.2 94.3L72.5 94.8L71.7 95.3L71.1 95.6L70.6 95.5L70.2 95.4L69.8 95.6L69.3 96L69 95.4L68.1 94.5L67.5 94.1L66.7 94.1L66 94.2L65.4 94.1L65 93.9L64.3 93.3L64.1 92.9L63.4 92.7L63.3 92.2L63.4 91.8L63.4 91L63.2 90.5L62.9 90.2L63.1 89.7L63.2 88.8L63 88.1L63 87.1L63.1 86.1L62.8 85.6L60.5 85.5L58.4 85.5L57.6 84.1L56.9 83.2L56.3 82.6L54.9 81.9L54.2 81.6L53.7 81L53.2 80.5L53.1 79.7L52.9 79.2L52.5 79.1L50.9 78.2L50.2 77.9L49.6 78L48.8 77.8L48.1 78.1L47.5 78L46.4 77L45.7 76.6L45.2 76.4L44.3 76L43.2 75.8L42.7 75.6L42.3 75.4L42.3 75L42.3 74.6L41.9 73.9L41.6 73.6L40.9 73.6L40 73.5L39.3 73.2L38.7 73.1L38 73.1L37.5 73.1L37.1 73.3L36.6 74.1L36.2 74.2L35.3 74.1L34.1 73.9L32.7 73.8L31.6 74L30.7 74.4L29.8 74.9L28.8 75.6L28.5 76L27.7 77.5L27.1 77.8L26.1 78L25.2 78.3L24.6 78.3L23.1 78.1L23 77.6L22.9 75.8L23 74L23.1 73.2L23.4 71.5L23.5 70.7L23.5 69.9L23.6 69.2L23.9 68.4L24 67.5L24 66.9L23.7 66.4L23.3 65.8L23.3 65L22.8 64.9L22.5 64.5L22.1 64.2L21.4 63.9L20.7 64L20.4 64.3L20.3 63.7L20.4 63.1L21.1 62L21.4 62.4L21.9 62.6L22.4 62.7L23 62.6L22.9 62.2L22.4 61.7L22.4 61.1L22.5 60.6L22.7 60L22.3 59.6L21.7 59.6L20.9 59.3L20.1 59.2L19.8 59.8L20.2 60.7L19.8 60.2L19.5 59.6L19.2 58.6L19 57.4L19.1 56.2L19.5 55.2L19.9 54.3L20.3 53.1L20.7 51.9L20.9 52.4L21.2 53L21.6 53.5L22.5 53.9L23 53.9L23.6 53.7L24 53.8L24.4 54.4L24.7 54.9L25.2 55.1L26.4 54.9L27 54.8L27.5 55.1L27.8 54.6L27.7 54.1L28.9 54.2L29.5 54.1L29.9 53.5L30 53.1L29.9 52.7L29.8 52.3L29.4 51.7L27.9 50.4L27.5 49.9L27.1 49.2L26.9 48.3L26.7 47.4L26.6 46.7L26.2 45.1L25.8 44.8L25.1 44.7L24.4 44.7L23.3 44.8L22.7 44.7L21.6 45.4L21.2 45.9L20.6 47.1L20.9 47.6L20.4 49.7L20.4 50.6L20 49.5L19.4 48.3L19 46.4L20.2 45.4L21.2 44.7L22 44.3L23.3 44L24.6 43.7L25.6 43.6L26.8 43.5L27.8 43.6L28.3 43.8L29.5 44.8L30.5 45.7L31.3 46.5L31.5 46.9L31.6 47.3L31.7 47.7L32.4 48.9L32.6 49.5L33 50.2L33.4 50.6L33.7 51.1L33.9 51.5L34.4 51.8L35.1 51.7L36 51.5L36.5 51.5ZM99.7 81.4L99.9 80.9L100 79.2L100.2 78.6L101 77.6L101.3 76.7L101.8 76.1L102.1 75.8L102.4 75.3L102.6 74.7L102.7 74.3L102.5 73.9L102.1 73.5L101.4 72.9L101.1 72.3L100.9 71.5L100.8 70.9L101.3 69.4L101 68.9L100.2 68.7L99.8 68.8L99.2 68.8L98.8 68.8L98.6 68L98.3 67.7L97.1 67.5L96.8 67.2L97.2 65.6L97.5 65.2L97.8 64.9L98.7 64.4L99.7 64.5L100.6 64.7L101.5 64.8L101.9 64.8L102.4 64.9L102.9 64.6L103.3 64.1L103.4 63.3L103.5 62.6L104 62.6L104.2 62.1L104.7 62.2L104.5 61.7L104.3 61.2L104.9 60.9L105.2 60.6L104.2 60.6L103.4 60.6L103.5 60.2L105 59.8L105.9 59.9L106.5 60L106.4 59.3L106.8 59.2L106.2 57.4L106.8 56.8L106.7 56.2L107.2 55.7L107.7 55.9L108.4 56.4L108.9 56.5L110.3 55.6L111 55.2L111.8 54.7L112.1 53.7L112.5 53.7L113.3 54.4L113.7 54.9L114.3 55.5L114.2 55.9L113.3 56.8L112.5 57.7L112.5 58.2L113 58.4L113.4 58.5L113.6 58.9L113.8 59.3L115.4 59L114.6 59.8L114.1 60.1L114 60.7L113.7 61.1L113.1 60.5L112.7 60.4L112.1 60.2L111 59.8L110.4 59.6L109.4 60L108.2 60.5L107.9 61.1L108 61.5L107.7 61.8L107 61.5L106.8 62.5L106.7 63L107 63.6L107.2 64.6L107.7 64.5L108.8 64.1L109.7 64.2L110.7 64.1L111.5 64L112.1 63.9L113 63.7L113.6 63.7L114 63.7L114.6 64.4L114.9 64.8L115.3 64.9L116.4 64.6L116.7 64L117.4 63.8L117.8 63.7L118.4 63.2L118.8 63.1L119.1 63.4L119 63.9L120 64.1L120.3 64.5L120.3 65L120.8 65.2L121.7 64.6L122.3 64.8L122.6 65.1L123.1 65.4L123.4 64.9L123.7 64.5L124.4 64.2L124.8 64.1L125.2 64L126.4 64L126.9 64L127.7 63.8L128.4 63.7L128.9 63.3L129.6 62.9L130.1 62.9L130.5 63.3L130.5 64L130.5 64.5L131 65.3L131.4 65.6L131.7 65.9L131.4 66.6L131.2 67L131.7 68L132 68.6L132.4 68.9L133 69L133.4 68.5L133.7 68L134.1 68L134.5 68L135.9 68.2L137.2 68.7L137.6 69L137.5 70.3L137.6 70.8L137.8 71.5L138.1 71.9L138.5 72.6L138.6 73.2L138.9 73.6L138.8 74.2L138.8 74.9L139.4 75.3L140.1 75.7L140.2 76.2L139.7 76.9L139.2 77.3L138.7 77.1L138.1 76.7L137.7 76.5L137 76.6L136.5 76.6L136 76.5L135.5 76.6L135.2 76.9L135 77.3L134.6 77.4L133.9 77.7L132.8 78.2L132.3 78.2L132.6 77.6L132.5 76.9L132 76.9L131.2 76.7L130.6 76.9L129.7 77.3L128.1 78.5L127.4 79.3L127 80.3L125.3 80.8L124.3 81.5L123.2 82.5L122.4 83.1L121.7 83.2L121.3 83L120.8 82.2L120.4 81.1L120.1 80.3L120.2 79.3L120.2 78.1L120.2 77L120.3 75.6L120.5 75.1L120.3 74.6L119.9 74.7L119.4 74.9L119 75L118.8 74.3L118.9 73.1L118.4 72.2L117.3 71.5L116.3 71.3L115.5 71.6L114.9 72.3L114.5 73.3L114 74.2L113.5 74.9L113.1 75.2L112.9 75.6L113.3 76.4L113.3 77.1L113 77.7L112.6 78L111.9 77.9L111 77.7L109.9 77.9L109.2 78.2L108.8 78.7L108.7 79.3L109 80.1L108.9 80.6L108.6 81.1L108.1 81.4L107.6 81.1L106.9 80.4L106.4 80L105.9 80L105.6 80.4L105.1 80.5L104.6 80.8L104.1 81.1L103.3 81.5L102.8 81.9L102.6 82.4L101.5 82.9L100.9 82.8L100.2 82.2L99.8 81.7ZM114.6 61.9L114.1 62.2L113.6 62L113.3 61.6L113.8 61.7L114.3 61.7ZM0 0.4L0.1 0.8L0.5 1.3L1 1.2L1.4 1L2 1.2L3.5 1.7L4.2 1.9L4.8 3.2L5.2 4.2L5.7 5.2L5.9 5.7L6.2 6.9L6.5 8L6.9 9.3L6.8 9.7L6 9.6L5.6 9.4L5.2 9.1L4.8 9.2L4.6 9.8L4.9 10.4L5.7 11L6.5 11.6L7.5 12.4L7.7 12.9L7.1 12.8L7 13.2L5.4 13.8L4.8 13.8L4.7 14.2L4.7 14.6L4.9 15L4.5 15.2L4.1 14.8L3.6 14.7L2.3 15.6L1.8 15.8L1.3 15.8L0.2 16L0 0.4ZM0.7 17.4L0.5 16.8L0.5 16.4L0.8 16.9ZM150 93.4L148.6 94.2L147.8 94.3L147.3 94.7L146.9 95.2L146.1 95.7L145.5 95.8L144.6 95.7L143.5 95.4L143 95.2L142.6 95.2L141.7 95.3L140.7 95.2L139.6 95.1L139 95L137.9 94.9L137.2 95.3L136.5 95.7L136 95.9L135.7 96.9L135.4 97.6L135.3 98L136.1 98.5L136.4 98.8L136.3 99.5L136.1 100L119.9 100L119.8 99.6L119.4 99.2L119.1 98.9L119.3 98.4L119.6 98L119.8 97.4L120.4 96.7L120.7 96.1L121 95.7L121.6 95.3L121.9 94.7L122 94.3L122.3 93.9L122.3 93.5L121.9 93L122 92.4L122 91.8L121.9 91.2L121.5 90.9L121.3 90.1L120.9 89.3L120.3 88.6L119.6 88.2L119.6 87.4L120 87L120.8 86.1L121.2 85.5L121.6 85L122.1 85L122.7 84.5L123.2 84.2L124.1 83.4L124.4 82.9L124.9 82.6L125.3 82.5L125.9 82.3L126.4 82L126.9 81.7L127.7 81.6L128.9 81.3L129.6 81.1L131.2 80.9L133 80.6L134 80.7L134.5 80.9L135.6 80.2L136.8 79.5L137.4 79.1L138.2 78.9L138.6 79L139.1 79.2L139.6 79.2L140.2 79L140.7 79L141.9 79.3L142.5 80.4L143.3 80.2L143.8 80.2L144.4 80.5L144.9 80.7L145.5 81.5L145.7 82L145.9 82.5L146 84L145.7 84.6L146 85L146.4 85.1L146.8 85.2L147.3 86.2L147.9 86.2L148.7 85.9L149.3 85.5L149.7 86.2L150 93.4ZM117.2 61.2L117 60.6L117.2 60.1L116.7 60.1L116.1 59.5L115.8 60L116.1 60.5L116.2 61.3L116.9 61.3ZM114.6 61.9L113.8 61.7L113.4 61.6L113.6 62L114.1 62.2ZM150 49.1L148.1 49.4L147.6 49.5L146.5 49.4L145.8 50L145.3 51.2L145.1 51.8L145 52.3L144.9 53L144.7 53.5L144.5 53.9L144.2 54.4L143.8 54.7L143.4 54.2L142.9 54.7L142.4 54.7L141.5 55.4L140.5 55.5L140 54.1L139.7 53.5L139.3 53.4L138 54.7L137.4 54.9L136.8 55L136 54.8L135.8 55.3L136.1 55.9L135.7 56L135.2 56.2L134.9 56.6L134 57.6L133.1 58.1L132.3 58.3L131.9 58.6L131.6 59L131.4 59.8L131.2 60.3L131.5 60.9L131.8 61.6L131.7 62.2L131.4 62.5L130.9 62.8L130.4 62.9L129.6 62.9L129.1 63.1L128.4 63.7L127.7 63.8L126.9 64L126.4 64L125.2 64L124.8 64.1L124.4 64.2L123.7 64.5L123.4 64.9L123.2 65.4L122.6 65.1L122.3 64.8L122 64.5L120.8 65.2L120.3 65L120.3 64.5L120 64.1L119.3 64.1L119 63.7L119 63.2L118.4 63.2L118 63.4L117.4 63.8L116.9 63.9L116.4 64.6L115.3 64.9L114.9 64.8L114.6 64.4L114.2 63.8L113.6 63.7L113 63.7L112.3 64.1L111.8 63.8L110.7 64.1L109.7 64.2L109.1 64.1L108.1 64.5L107.2 64.6L107 63.6L106.7 63L106.8 62.5L106.9 61.8L107.4 61.6L108 61.8L107.9 61.3L108 60.8L109.4 60L110.4 59.6L111 59.8L112.1 60.2L112.7 60.4L113.1 60.5L113.5 61.1L113.9 60.9L114.1 60.1L114.6 59.8L115.6 59.3L115.7 58.9L116.4 58.6L117.5 58.4L118.3 58.7L118.7 58.8L119.2 58.7L119.5 59L120 58.9L120.4 58.5L120.9 58.3L121.2 57.7L121.7 56.9L122.3 56.8L123 57.1L123.2 56.6L122.9 56.2L123.1 55.8L124 56.1L124.5 55.8L124.8 55.4L126.6 54L125.9 53.5L125.3 53.7L124.2 53.6L123.3 52.9L122.9 52.7L122.5 52.6L121.7 52.9L121.5 52.5L121.4 51.8L120.8 51.9L120.3 51.8L119.7 51L119.3 50.3L118.8 50.1L118.7 49.7L118.2 49.8L118.4 50.3L118.3 50.7L118.1 51.2L117.4 51L117.5 52.5L116.9 52.4L116.5 52.5L115.9 52.5L115.4 52.3L114.6 52.1L114.1 51.9L113.8 50.9L113.5 50.6L112.4 51L112.1 50.7L111.4 50.5L111 50.4L110.8 50L112.1 48.8L112.6 48L113 47.7L113.5 47.4L114 46.6L114.9 46.1L115.9 45.4L115.3 44.9L114.8 44.7L114.4 45L114.1 44.7L114 44.3L114.3 43.8L114.6 42.9L114.9 42.5L115.2 41.9L115.6 41.4L116.5 41L116.9 41.1L117.4 40.9L118 40.6L118.4 40.5L120.2 40.8L120.8 40.7L122.2 41.2L122.9 41.2L123.3 41.3L123.9 41.8L125.6 41.8L126.1 41.9L126.8 42.4L127.3 42.5L126.8 41.2L126.8 40.5L127.1 38.3L127.9 37.6L128.6 37.2L128.9 36.7L129.6 36.7L130.1 36.5L131 36.6L132.4 37.3L133.5 37.7L134.7 38L136.4 38.3L137.8 38.2L138.4 37.3L139.2 37.2L140.6 37L142.1 36.8L142.7 36.7L144.2 36.1L144.7 36L145.7 36.3L146.4 36.2L146.8 36.2L147.7 36L148.6 35.9L149.7 36L150 49.1ZM10.5 23.5L10.1 23.6L9.7 22.8L9.9 22.1L10.4 21.9L10 22.4L9.9 22.8L10.1 23.3ZM11.3 22.8L11 22.4L11.3 22.1L11.4 22.7ZM23.2 21.4L22.8 21.2L22.9 20.6L23.3 21.1ZM150 35.9L148.6 35.9L147.7 36L147.1 36.1L146.4 36.2L145.7 36.3L144.7 36L144.2 36.1L142.7 36.7L142.1 36.8L140.6 37L139.2 37.2L138.7 37.2L138 38.1L136.4 38.3L134.7 38L133.5 37.7L132.4 37.3L131 36.6L130.2 36.3L129.9 36.6L128.9 36.7L128.6 37.2L127.9 37.6L127.3 38L126.8 40.5L126.8 41.2L127.3 42.5L126.8 42.4L126.3 42.2L125.6 41.8L123.9 41.8L123.5 41.5L122.9 41.2L122.2 41.2L120.8 40.7L120.2 40.8L118.4 40.5L118 40.6L117.4 40.9L116.9 41.1L116.5 41L115.6 41.4L115.2 41.9L114.9 42.5L114.6 42.9L114.5 43.5L114 44.3L114.1 44.7L114.4 45L114 45.3L113.5 45.4L113 46.1L112.6 46.6L112.1 46.3L111.7 46.4L111.3 46.8L110.8 47.4L110.2 48.3L109.6 48.8L108.7 49.3L108.1 49.5L107.6 49.8L106.8 50.5L106.6 50.9L106 51.1L105.6 51.4L105.1 51.8L105 52.6L104.8 53L104.1 53.6L103.5 54.2L103.2 54.8L102.8 55.4L102.7 56.2L102.9 56.6L102.9 57.2L102.5 57.3L102 57.3L101.4 57L100.6 56.6L100 56.1L100.2 55L100.3 54.5L99.8 54.1L99.3 53.4L98.9 53.5L98.2 53.5L97.2 53.6L96.3 53.7L95.6 53.8L94.6 53.9L93.4 54L92.9 53.8L92.6 53.2L92.5 52.6L92.2 51.6L92 50.8L91.8 49.9L91.7 48.9L91.5 48.2L90.7 48.2L90 48.2L89 48.2L89 47.6L89 46.9L89 46L89.1 44.9L89.2 44L89.2 42.9L89.2 42.1L89.3 41.3L88.8 41.6L88.3 41.9L87.8 42.1L87.4 41.5L87.1 40.9L86.5 39.9L86.1 39.2L85.5 38.8L85 38.4L84.4 37.9L84 37.4L83.6 36.9L83.1 36.4L82.6 36.6L82.1 36.9L81.6 37.1L81 37.4L80.1 37.5L79.6 37.5L78.6 37.4L77.8 37.4L76.9 37.3L75.7 37.2L74.5 37.1L73.7 37.2L72.7 37.4L71.6 37.6L70.7 37.7L69.6 37.9L68.8 38L67.8 37.4L67 36.4L66.6 35.8L66.1 35.3L65.4 34.4L64.8 33.8L64.3 33.2L64 32.6L63.8 31.9L62.9 31.2L62.3 30.7L61.6 30.2L60.9 29.7L60.3 29.2L59.6 28.8L58.9 28.3L58.3 27.8L57.6 27.3L56.9 26.8L56.3 26.3L55.6 25.8L55 25.3L54.3 24.9L53.7 24.4L53 23.9L52.4 23.4L51.8 23L51.3 23.1L50.5 23.3L49.7 23.5L48.9 23.6L47.4 24L46.5 24.2L45.7 24.4L44.9 24.6L43.9 24.8L43 25L42 25.3L41.1 25.5L40.4 25.7L39.6 25.9L38.9 26L38.8 27.6L38.6 29.2L38.5 30.8L38.4 32.4L38.2 34L38.1 35.6L37.9 37.2L37.8 38.8L37.7 40.4L37.5 42L37.4 43.5L37.3 45.1L37.1 46.7L37 48.3L36.9 49.9L36.7 51.5L36 51.5L35.1 51.7L34.4 51.8L33.9 51.5L33.7 51.1L33.4 50.6L33 50.2L32.6 49.5L32.4 48.9L31.7 47.7L31.6 47.3L31.5 46.9L31.3 46.5L30.5 45.7L29.5 44.8L28.5 44L27.8 43.6L27.2 43.5L25.6 43.6L24.6 43.7L23.3 44L22.2 44.3L21.2 44.7L20.2 45.4L19 46.4L19 45.7L19.1 44.6L19.5 43.3L19.9 42.7L20.2 42L20.4 41.2L20.4 39.7L19.9 39.2L19.1 39.2L18.4 38.7L17.9 38.5L17.3 38.7L16.7 38.2L16.6 37.8L16.2 36.7L15.8 36.3L15.3 36.2L14.5 36L14.3 35.6L14.5 34.7L14.6 34.3L14.6 33.8L14.3 33.1L13.9 32.6L13.7 31.8L13.2 30.3L13 28.6L12.3 28L11.3 27.6L10.6 27.3L10.3 26.7L10.4 26.3L10.5 25.9L10.8 25.5L11.4 25.3L12.5 25.4L13.6 25.6L14.4 26.4L15 26.7L15.7 26.6L16.8 26.8L16.6 26.4L16 26.2L15.4 25.3L14.7 24.5L14.6 23.7L14.8 23.3L15.4 23L16 22.5L16.3 21.7L17 21L17.6 21.1L18.6 20.9L20.1 21.2L21.9 21.3L22.4 21.4L23.6 21.9L24.2 22.2L25 22.4L25.6 22.3L25.1 21.7L24 20.9L23.8 20.3L24.5 19L25.4 17.8L26.1 16.3L26.1 14.7L26 14.3L26.1 13.8L26.4 13.4L26.7 13L26.6 12.5L26.3 11.6L25.7 10.9L24.6 10.7L23.7 10.3L23.2 10.8L22.2 11.2L21.7 11.1L21.4 10.7L20.2 10.3L19.8 9.6L18.2 8.8L17.7 8.7L16.4 9L15.4 9.5L14.7 9.8L14.1 9.7L13.3 10.2L12.2 10.8L11.6 11.1L11.1 11.3L10.4 11.4L9.8 11.3L8.9 11.3L8.4 11.4L8.4 12.2L8 11.9L7.6 12.2L7.7 12.6L6.5 11.6L5.7 11L5 10.5L4.7 10.1L4.7 9.5L5 9.1L5.4 9.2L6 9.6L6.5 9.7L6.9 9.3L6.5 8L6.2 6.9L5.9 5.7L5.7 5.2L5.2 4.2L4.8 3.2L4.4 2.2L3.5 1.7L2 1.2L1.4 1L1 1.2L0.5 1.3L0.1 0.8L0 0.4L0 0L150 0ZM0 74.1L1.6 74.6L2.4 75L2.8 75.5L3.3 76.9L4.2 78L6.2 79.7L7.2 80.4L10.6 81.7L13 82L19.7 81.1L22 80.9L22.8 81L22.3 81.3L21.4 81.4L21.9 81.7L22.6 81.8L23.3 81.6L23.4 81.2L23.2 79.2L23.1 78.1L24.6 78.3L25.2 78.3L26.1 78L26.8 77.8L27.5 77.7L28.5 76L28.8 75.6L29.8 74.9L30.7 74.4L31.6 74L32.7 73.8L34.1 73.9L35.3 74.1L35.9 74.2L36.5 74.2L36.8 73.5L37.5 73.1L38 73.1L38.7 73.1L39.3 73.2L40 73.5L40.9 73.6L41.6 73.6L41.9 73.9L42.1 74.3L42.3 75L42.3 75.4L42.7 75.6L43.2 75.8L44.3 76L45.2 76.4L45.7 76.6L46.4 77L47.2 77.8L47.9 78.1L48.8 77.8L49.3 78.1L50.2 77.9L50.9 78.2L52.5 79.1L52.9 79.2L53.1 79.7L53.2 80.5L53.7 81L54.2 81.6L54.9 81.9L56.3 82.6L56.9 83.2L57.6 84.1L58.3 85.4L60.5 85.5L62.8 85.6L63.1 86.1L63 87.1L63 88.1L63.2 88.8L63.2 89.4L62.9 90.1L63.2 90.5L63.4 91L63.4 91.8L63.3 92.2L63.4 92.7L63.5 93.2L63.3 93.8L63 94.5L63 94.9L62.5 95.1L62.5 95.6L62.6 96L62.7 96.4L62.4 97L62.2 97.6L62.3 98L62 98.4L61.7 98.8L61.5 99.4L60.9 99.9L0 100ZM136.2 100L136.3 99.5L136.5 99.1L136.1 98.5L135.4 98.3L135.4 97.6L135.5 97.2L136 95.9L136.5 95.7L137.2 95.3L137.9 94.9L139 95L139.6 95.1L140.7 95.2L141.7 95.3L142.6 95.2L143 95.2L143.5 95.4L144.6 95.7L145.5 95.8L146.1 95.7L146.9 95.2L147.3 94.7L147.8 94.3L148.6 94.2L150 93.4L150 100ZM150 86.4L149.5 85.4L148.7 85.9L147.9 86.2L147.5 86.3L147 85.4L146.4 85.1L146 85L145.7 84.6L145.9 84.2L145.9 82.5L145.7 82L145.5 81.5L145.1 81L144.4 80.5L143.8 80.2L143.3 80.2L142.7 80.5L142.1 79.5L140.7 79L140.2 79L139.6 79.2L139.1 79.2L138.6 79L138.2 78.9L137.7 79L137.3 79.1L136.4 78.4L137.3 77.6L137.9 77.3L138.4 77.4L138.8 77.5L139.2 77.3L139.7 76.9L140.1 76.5L140.1 75.7L139.4 75.3L138.9 75L138.8 74.2L138.9 73.6L138.6 73.2L138.5 72.6L138.1 71.9L137.8 71.5L137.6 70.8L137.5 70.3L137.8 69.3L137.2 68.7L135.9 68.2L134.5 68L134.1 68L133.7 68L133.4 68.5L133.3 69L132.4 68.9L132 68.6L131.7 68L131.4 67.2L131.3 66.8L131.7 66.3L131.4 65.6L131 65.3L130.5 64.5L130.5 64L130.5 63.3L130.4 62.9L130.9 62.8L131.4 62.5L131.7 62.2L131.8 61.8L131.5 60.9L131.2 60.3L131.4 59.8L131.6 59L131.9 58.6L132.3 58.3L133.1 58.1L134 57.6L134.9 56.6L135.2 56.2L135.7 56L136.1 55.9L135.8 55.3L135.9 54.9L136.8 55L137.4 54.9L138 54.7L139.3 53.4L139.7 53.5L140 54.1L140.3 55.4L141.5 55.4L142.1 54.8L142.9 54.7L143.2 54.4L143.8 54.7L144.2 54.4L144.5 53.9L144.7 53.5L144.9 53L145 52.3L145.1 51.8L145.3 51.2L145.8 50L146.2 49.6L147.6 49.5L148.1 49.4L149.7 49.2L150 86.4ZM0 44.6L0.9 46.6L1.1 47.2L1.2 47.8L1.3 48.5L1.4 49.2L2.4 50.9L2.8 51.6L3.5 52.5L4.2 52.8L4.9 52.9L5.5 53.3L5.8 53.6L6.1 53.9L6.4 54.3L6.5 55.3L5.4 54.8L4.2 54.7L3.5 54.8L2.9 54.9L2.2 55.2L1.7 55.9L1.1 57.5L0.4 59.1L0.2 59.8L0.4 60.6L0 61L0 44.6ZM60.7 100L61.3 99.6L61.5 99L62 98.4L62.3 98L62.2 97.6L62.4 97L62.7 96.4L62.6 96L62.5 95.6L62.5 95.1L63 94.9L63 94.5L63.2 94.1L63.5 93.5L63.4 92.7L63.9 92.7L64.3 93.3L65 93.9L65.4 94.1L66 94.2L66.7 94.1L67.2 94L68.1 94.5L68.8 95.1L69.1 95.8L69.8 95.6L70.2 95.4L70.6 95.5L71.1 95.6L71.5 95.4L72.5 94.8L73.2 94.3L73.6 94.1L73.8 93.2L74 92.8L74.1 92.1L73.9 91.5L74.3 91.2L75 91.2L76.2 90.8L77.2 90.5L78.2 90.1L79 90.1L79.2 89.7L79.5 89.4L80 89.2L80.9 88.6L81.8 87.8L82.1 87.2L82.3 86.3L82.7 85L83.1 83.4L83.2 82.8L83.4 82.3L84.2 81.8L84.9 81.5L86.1 81.4L87.5 81.4L87.8 80.5L87.9 79.8L88.2 79.5L88.5 79.2L89.4 79.5L90.5 80.1L91.9 80.4L92.6 80.5L94.5 80.3L95.9 80.5L96.6 81.2L97.3 81.3L98 80.9L98.4 80.8L98.9 81.1L99.4 81.1L99.7 81.4L100.2 82.2L100.9 82.8L101.5 82.9L102.3 82.4L102.7 82.2L103.3 81.5L104.1 81.1L104.6 80.8L105.1 80.5L105.6 80.4L105.9 80L106.4 80L106.9 80.4L107.6 81.1L108.1 81.4L108.6 81.1L108.9 80.6L109 80.1L108.7 79.3L108.8 78.7L109.2 78.2L109.9 77.9L111 77.7L111.6 77.7L112.2 78L113 77.7L113.3 77.1L113.3 76.4L112.9 75.6L113.1 75.2L113.5 74.9L114 74.2L114.5 73.3L114.9 72.3L115.5 71.6L116.3 71.3L117.3 71.5L118.4 72.2L118.9 73.1L118.8 74.3L118.8 74.9L119.4 74.9L119.9 74.7L120.3 74.6L120.5 75.1L120.3 75.6L120.2 77L120.2 78.1L120.2 79.3L120.1 80.3L120.4 81.1L120.8 82.2L121.3 83L121.7 83.2L122.4 83.1L123.2 82.5L124.3 81.5L125.3 80.8L127 80.3L127.4 79.3L128.1 78.5L129.7 77.3L130.6 76.9L131.2 76.7L131.9 76.8L132.5 76.9L132.6 77.6L132.2 77.9L132.8 78.2L133.9 77.7L134.6 77.4L135 77.3L135.2 76.9L135.5 76.6L136 76.5L136.5 76.6L137 76.6L137.7 76.5L138.1 76.7L138.7 77.1L139 77.4L138.4 77.4L137.9 77.3L137.3 77.6L136.3 78.3L137.1 78.9L136.8 79.5L135.6 80.2L134.8 80.8L134 80.7L133.2 80.6L131.2 80.9L129.6 81.1L128.9 81.3L127.7 81.6L126.9 81.7L126.4 82L125.9 82.3L125.3 82.5L124.9 82.6L124.4 82.9L124.1 83.4L123.2 84.2L122.7 84.5L122.4 84.9L121.6 85L121.2 85.5L120.8 86.1L120 87L119.6 87.4L119.4 88L120.3 88.6L120.7 89L121.3 90.1L121.5 90.9L121.9 91.2L122 91.8L122 92.4L121.9 93L122.3 93.5L122.3 93.9L122 94.3L121.9 94.7L121.6 95.3L121 95.7L120.7 96.1L120.4 96.7L119.8 97.4L119.6 98L119.3 98.4L119.1 98.9L119.4 99.2L119.8 99.6L119.9 100L60.7 100Z"/><path class="t" d="M114.4 45L114.5 44.8L114.8 44.7L115.3 44.9L115.8 45.1L115.9 45.3L114.9 46.1L114.3 46.4L114 46.5L113.8 47.3L113.5 47.4L113 47.7L112.6 48L112.1 48.8L110.8 50L110.8 50.2L111 50.4L111.4 50.5L112.1 50.7L112.4 51L113.3 50.6L113.5 50.6L113.8 50.9L114.1 51.9L114.6 52.1L115.1 52.3L115.4 52.3L115.9 52.5L116.5 52.5L116.9 52.4L117.4 52.6L117.4 51L117.8 51.2L118.1 51.2L118.3 51L118.3 50.7L118.4 50.3L118.2 49.8L118.4 49.6L118.7 49.7L118.8 50.1L119.1 50.3L119.3 50.3L119.5 50.7L119.7 51L119.9 51.8L120.3 51.8L120.8 51.9L121.1 51.7L121.4 51.8L121.5 52.2L121.5 52.5L121.6 52.8L122.2 52.7L122.5 52.6L122.9 52.7L123.3 52.9L124 53.6L124.2 53.6L125.1 53.6L125.3 53.7L125.6 53.7L125.9 53.5L126.7 53.7L126.6 54L124.9 55.1L124.8 55.4L124.5 55.8L124.2 56.1L124 56.1L123.1 55.8L122.9 56.1L123.2 56.6L123.1 56.9L123 57.1L122.4 57L122.3 56.8L122 56.8L121.7 56.9L121.2 57.7L121 58L120.9 58.3L120.7 58.4L120.4 58.5L120 58.9L119.6 59.1L119.3 58.8L119 58.8L118.7 58.8L118.3 58.7L117.8 58.5L117.5 58.4L116.4 58.6L115.8 58.8L115.4 59L114.1 59.3L113.8 59.3L113.6 58.9L113.4 58.5L113 58.4L112.6 58.3L112.4 58L112.5 57.8L113.3 56.8L114 56.1L114.2 55.9L114.3 55.6L113.7 55.3L113.7 55L113.3 54.4L112.5 53.7L112.3 53.6L112.1 53.7L111.9 54.5L111.8 54.7L111 55.2L110.3 55.6L109.2 56.3L108.9 56.5L108.6 56.5L108.4 56.4L107.7 55.9L107.2 55.7L106.9 55.9L106.7 56.2L106.8 56.8L106.5 57.2L106.2 57.4L106.8 59L106.8 59.2L106.4 59.3L106.8 59.9L106.5 60L105.9 59.9L105 59.8L103.5 60.2L103.3 60.3L103.3 60.5L104.2 60.6L104.9 60.4L105.2 60.6L105.1 60.9L104.3 61.1L104.3 61.4L104.5 61.7L104.7 61.9L104.7 62.1L104.5 62.2L104.2 62.1L104.2 62.5L104 62.6L103.8 62.5L103.5 62.6L103.4 63.3L103.3 64.1L102.9 64.6L102.7 64.8L102.4 64.9L101.9 64.8L101.5 64.8L100.6 64.7L99.7 64.5L98.7 64.4L97.8 64.9L97.5 65.2L97.4 65.4L97.2 65.6L96.8 67.2L97.1 67.5L98.3 67.7L98.5 67.8L98.6 68L98.7 68.7L99.2 68.8L99.8 68.8L100.2 68.7L100.7 68.8L101 68.9L101.2 69.1L101.3 69.4L100.8 70.9L100.9 71.5L101.1 72.3L101.4 72.9L102.1 73.5L102.5 73.9L102.7 74.3L102.6 74.7L102.4 75.3L102.1 75.8L101.8 76.1L101.3 76.7L101 77.6L100.2 78.6L100 79.2L99.9 80.9L99.7 81.4L99.4 81.1L98.9 81.1L98.5 81.1L98.4 80.8L98 80.9L97.3 81.3L96.6 81.2L95.9 80.5L94.5 80.3L92.9 80.5L92.7 79.8L92.7 78.8L92.8 77.5L93.3 76.4L93.3 76.2L93.1 76.1L93 75.9L91.9 75.7L91.6 75.5L91.2 75.2L90.7 74.9L90.3 74.7L89.6 74.4L89 74.2L88.6 74.4L88.3 74.6L88 74.6L87.6 74.5L86.5 73.7L84.7 72.4L83.3 71.6L82.4 71.1L82.2 71L81.7 70.6L80.5 69.5L79.7 69.6L78.5 68.9L77.5 68.2L77.3 68L76.1 66.7L74.9 65.9L73.7 64.9L72.9 64.3L71.5 63.3L70.9 62.7L70.6 62.5L70.4 62.1L70.1 60L69.7 59.1L69.1 58.6L68.6 57.6L68.2 56.1L67.9 55.1L67.7 54.7L67.1 54.2L66.3 53.7L65.5 53.4L65.3 53.4L65.1 53.4L64.6 53.9L64.2 54L63.9 53.9L63.6 53.8L62.6 53.6L62.2 53.5L61.7 53.5L60.4 53.7L60.1 53.6L58.8 52.7L58.2 52.3L58.1 52.1L58.1 51.8L58.3 51.3L58.5 51L58.4 50.6L58.2 50.2L58.2 49.8L58.4 49.6L58.8 49.7L58.9 49.5L58.8 49.3L58.7 49.1L58.4 48.8L57.7 48.4L57.6 48.1L57.8 48L57.8 47.6L57.8 47.2L57.9 47L58 46.8L57.9 46.6L57.6 46.5L57.3 46L56.8 46L55.2 45.9L54.7 45.7L54.3 45.5L53.9 44.6L53.7 44.4L53.5 44.3L53.1 44.2L52.6 44.1L52.3 43.9L51.6 43.1L50.9 42.3L50.6 43L50.3 43.1L49.7 43L49.2 42.9L48.9 43L48.6 43.3L48.9 43.6L49.3 44L49.9 44.9L50.2 45.4L50.1 45.6L49.9 45.7L49.6 45.5L49.6 45.3L49.4 44.9L49.2 44.7L48.9 44.5L48.6 44.4L48.1 44.2L47.9 44.2L47.7 44.4L47.5 44.6L47.3 45.2L46.9 45.9L46.7 46.2L46 46.3L44.4 46.3L43.9 46.5L43.6 46.7L43 47.6L42.5 47.8L42.1 48.2L42.1 49.5L42.2 51.1L42.5 51.5L42.7 51.7L42.5 51.9L42.4 52.1L42.1 52.4L41.8 52.3L41.3 52.2L40.9 52.1L39.3 51.9L38.1 51.7L36.7 51.5L36.9 49.9L37 48.3L37.1 46.7L37.3 45.1L37.4 43.5L37.5 42L37.7 40.4L37.8 38.8L37.9 37.2L38.1 35.6L38.2 34L38.4 32.4L38.5 30.8L38.6 29.2L38.8 27.6L38.9 26L39.6 25.9L40.4 25.7L41.1 25.5L42 25.3L43 25L43.9 24.8L44.9 24.6L45.7 24.4L46.5 24.2L47.4 24L48.9 23.6L49.7 23.5L50.5 23.3L51.3 23.1L51.8 23L52.4 23.4L53 23.9L53.7 24.4L54.3 24.9L55 25.3L55.6 25.8L56.3 26.3L56.9 26.8L57.6 27.3L58.3 27.8L58.9 28.3L59.6 28.8L60.3 29.2L60.9 29.7L61.6 30.2L62.3 30.7L62.9 31.2L63.6 31.6L63.8 31.9L64 32.6L64.3 33.2L64.8 33.8L65.4 34.4L66.1 35.3L66.6 35.8L67 36.4L67.8 37.4L68.4 38L68.8 38L69.6 37.9L70.7 37.7L71.6 37.6L72.7 37.4L73.7 37.2L74.5 37.1L75.7 37.2L76.9 37.3L77.8 37.4L78.6 37.4L79.6 37.5L80.1 37.5L80.8 37.6L81 37.4L81.6 37.1L82.1 36.9L82.6 36.6L83.1 36.4L83.6 36.9L84 37.4L84.4 37.9L85 38.4L85.5 38.8L86.1 39.2L86.5 39.9L87.1 40.9L87.4 41.5L87.8 42.1L88.3 41.9L88.8 41.6L89.3 41.3L89.2 42.1L89.2 42.9L89.2 44L89.1 44.9L89 46L89 46.9L89 47.6L89 48.2L90 48.2L90.7 48.2L91.5 48.2L91.7 48.9L91.8 49.9L92 50.8L92.2 51.6L92.5 52.6L92.6 53.2L92.9 53.8L93.1 53.9L93.4 54L94.6 53.9L95.6 53.8L96.3 53.7L97.2 53.6L98.2 53.5L98.6 53.6L98.9 53.5L99.3 53.4L99.6 53.8L99.8 54.1L100 54.3L100.3 54.5L100.2 55L100 55.7L100 56.1L100.4 56.4L100.6 56.6L101.4 57L102 57.3L102.5 57.3L102.9 57.2L103 56.9L102.9 56.6L102.7 56.2L102.7 55.7L102.8 55.4L103.2 54.8L103.5 54.2L104.1 53.6L104.8 53L105 52.6L105.1 51.8L105.6 51.4L106 51.1L106.6 50.9L106.8 50.5L107.6 49.8L108.1 49.5L108.7 49.3L109.6 48.8L110.2 48.3L110.8 47.4L111.3 46.8L111.7 46.4L112.1 46.3L112.4 46.6L112.8 46.4L113 46.1L113.2 45.6L113.5 45.4L114 45.3ZM113.6 54.2L113.6 54L113.4 53.8L113.2 53.6L113.2 53.9L113.5 54.2ZM117.2 61.2L116.9 61.3L116.4 61.3L116.2 61.3L116.3 60.7L116.1 60.5L115.9 60.3L115.8 60L115.8 59.6L116 59.5L116.4 60L116.7 60.1L117.2 60.1L117 60.6L117.2 61.1ZM120.2 60.5L120.1 60.8L119.8 60.8L119.6 60.6L119.7 60.4L119.9 60.3L120.1 60.2Z"/><g class="n"><text x="85.0" y="20.0">Kazakhstan</text><text x="54.3" y="67.7">Turkmenistan</text><text x="31.0" y="89.4">Iran</text><text x="99.9" y="92.8">Afghanistan</text><text x="131.7" y="50.3">Kyrgyzstan</text><text x="117.8" y="68.0">Tajikistan</text><text x="141.4" y="65.4">China</text></g><circle class="io" cx="135" cy="85" r="11"/><path class="il" d="M129.6 91.5L130.3 92L130.5 92.5L130.7 93.1L130.2 93.1L129.7 92.8L129.3 92.4L128.9 92L129 91.5ZM130.5 75L131 74.8L131.5 74.6L132 74.4L132.6 74.3L133.4 74.1L134.2 74L134.9 74L135.4 74L136 74.1L136.5 74.2L137 74.4L136.6 75L136.1 74.9L135.6 74.8L135.1 74.7L134.6 74.7L134.1 74.7L133.6 74.8L133.1 75L132.6 75.1L132.9 74.7L132.4 74.5L131.8 74.7L131.3 74.8L130.8 75L131.3 75L131.8 75.1L131.3 75.3L130.8 75.4L130.3 75.8L129.7 76L129.2 76.3L129.5 75.8L129 76L128.6 76.3L128.9 75.9L129.4 75.7L129.8 75.3ZM133 75.4L132.4 75.6L131.8 75.6L131.3 75.7L131.7 75.3L132.2 75.4L132.7 75.3L133.2 75.1ZM134.4 75.1L134 74.8L134.5 74.7L135 74.7L134.6 75ZM134.3 75.9L134 76.3L133.6 76L133.7 75.5L134.1 75.8ZM130.2 75.1L129.7 75.4L129.2 75.8L129.6 75.4ZM135.7 74L135 74L134.5 74L133.8 74.1L133 74.2L132.4 74.3L131.9 74.5L131.4 74.6L130.9 74.8L131.5 74.6L132.3 74.3L133 74.2L133.8 74.1L134.6 74L135.3 74ZM136.6 75L137.2 74.6L136.7 74.4L137.2 74.5L137.7 74.8L138.2 74.9L138.7 75L139.2 75.2L139.8 75.5L139.3 75.2L138.8 75.1L138.3 75.3L137.9 75.6L137.4 75.5L137 75.2ZM137.9 83.2L137.5 83.6L137.5 84.1L137.4 84.7L136.8 84.6L136.2 84.7L135.8 85.2L135.4 84.8L134.8 84.7L134.4 84.3L133.9 85L133.5 84.7L133.2 84.3L133.7 84.1L133.1 84L132.9 83.5L133.5 83L134.1 83.3L134.6 83.3L134.7 82.7L135.2 82.6L135.8 82.4L136.3 82.7L137 83.1L137.5 83.1ZM133.9 85L134 84.3L134.6 84.4L135.2 84.6L135.5 85L136 84.9L135.8 85.4L135.7 85.9L135.1 85.6L134.8 85.1L134.3 84.8ZM145.9 86.7L145.8 87.2L145.7 87.7L145.7 86.9ZM145.7 86.9L145.7 87.4L145.6 87.9L145.1 88L145.4 87.5L145.7 87ZM143.9 88.6L144 89.1L143.8 89.6L143.6 90.1L143.1 90.4L142.9 89.9L143.3 89.6L143.6 89.1ZM144.5 88.6L144.2 89L144.5 89.4L144.1 89.8L144.1 89.3L144.3 88.7ZM142.8 91.1L143.3 90.7L143 91.1L142.5 91.4ZM142.2 90.7L142.4 91.2L141.9 91.3L141.5 90.9L141.1 90.6L141.7 90.5L142.2 90.7ZM128.9 91.7L129.1 92.3L129.1 92.8L128.7 92.5L128.2 92.2L127.8 91.8L127.6 91.3L127.1 91.1L126.6 90.5L127 90.2L127.3 89.7L127.8 89.9L128.3 90L128.7 90.4L129.1 90.7L128.9 91.2ZM130.9 92L130.8 91.4L131.3 91.2L132.1 90.9L132.3 90.4L132.5 90.9L132.2 91.3L131.7 91.7L131.2 91.8ZM130.5 92.3L129.6 91.5L129.7 91L130.3 91.1L130.8 91.1L130.8 91.9ZM128.2 89.5L128 89L127.9 88.5L128.3 88.2L128.4 87.6L129.3 87.5L129.8 87.8L130.5 88L130.5 88.6L130.2 89.2L129.9 89.7L129.5 89.4L129 89.6L128.5 89.5ZM128.4 87.6L128.3 88.2L127.9 88.5L127.7 89L127.1 88.9L126.8 88.5L127 88L127 87.4L127.4 86.8L127.4 86.3L128 86.9ZM134.5 79.1L134.9 78.8L134.5 79.4ZM141.4 79.2L141.9 79.4L142.3 79.8L141.8 79.5L141.4 79.2ZM142.5 81.6L142.2 81.2L142.1 80.6L141.5 80.7L140.9 80.5L140.6 80.9L140.8 81.5L140.4 81.8L140.1 82.2L139.6 82.2L139.1 82.2L139 82.7L138.5 82.7L138.1 83.1L137.6 83.1L137 83L136.6 82.6L136.1 82.6L135.6 82.4L134.8 82.7L134.8 83.2L134.2 83.2L133.7 83L133.2 83.2L133 83.7L132.8 84.2L132.9 84.8L132.4 84.5L131.9 84.2L131.5 83.8L131.9 83.5L132 83L131.7 82.6L131.6 82.1L131.5 81.6L131.7 81.1L132.2 80.7L132.4 80.1L132.7 79.6L133.2 79.7L133.2 80.2L132.7 80.4L133.2 80.5L133.6 80.2L134.1 80.1L134.6 80L135.1 79.9L135.3 79.3L135.6 79.9L135.6 80.4L135.8 79.9L135.7 79.4L136 79L136.3 78.6L136.7 78.2L137.2 78.2L137.8 78.2L138.4 78.2L138.2 77.7L138.5 77.3L138.8 76.9L138.6 76.4L138.6 75.9L139 76.2L139.5 76.2L139.9 76.6L140.4 77.1L140.8 77.5L141.3 77.6L141.8 78.2L141.2 78.1L140.8 77.7L140.4 77.3L140.5 77.9L140.6 78.5L140.8 79.1L141 79.6L141.5 79.4L141.9 79.8L142.3 80.3L142.5 80.9L142.5 81.5ZM133 79.5L132.5 79.4L132 79.3L131.4 79.6L130.9 79.9L130.5 80.3L130.6 79.6L131.2 79.5L131.9 79.2L132.4 79.1L133 79.2ZM133.7 76.5L133.6 77L133.1 77.1L132.5 77.2L132 77.4L131.5 77.4L131 77.3L130.6 77L130 76.8L130.3 76.4L130.8 76.2L131.4 76.2L131.9 76.2L132.5 76.1L133 75.9L133.5 75.9L133.7 76.4ZM127.9 93.3L128.3 93.6L128.9 93.7L129.4 93.8L129.8 94.1L129.4 94.4L128.9 94.1L128.5 93.8L128.1 93.5ZM129 81.4L128.6 81.8L128.4 82.3L127.9 82.1L127.7 81.6L128.2 81.1L128.5 80.7L129 80.9ZM129.6 93.9L129.2 93.6L128.7 93.2L129.2 93.1L129.7 93.4ZM129.3 93.7L128.7 93.7L128.2 93.3L128 92.7L128.4 93L128.9 93.4ZM128.1 93.3L127.6 93L127.3 92.6L127 92.1L127.6 92.4L128 92.7L128.5 93L128 92.7ZM124.6 85.1L125.1 85.4L125.4 84.5L125.6 83.8L125.8 84.7L126 85.4L126.1 85.9L125.9 86.4L125.5 86.1L125.1 85.8L124.7 85.4ZM124.9 83.2L125.4 83.1L125.7 84L125.4 84.5L125.2 85.2L124.8 84.9L124.7 84.3L124.7 83.8L124.9 83.3ZM127.4 86.3L127.4 86.8L127.2 87.3L126.9 87.8L126.5 87.5L126.2 87.1L125.8 86.7L125.5 86.3L126 86.2L126.6 85.9L127.1 85.9ZM125.5 87.7L125.7 87.2L125.8 86.7L126.2 87.1L126.5 87.5L126.9 87.9L126.6 88.3L126.1 88.4L125.7 88ZM126.9 87.9L127 88.4L126.8 88.9L126.9 89.4L126.4 89.2L126.1 88.8L126.5 88.5L126.8 88.1ZM125.4 86.8L125.4 87.5L125.3 86.9ZM125.4 86.7L125.3 87.2L125.1 86.5ZM124.7 85.9L125 86.4L125 86.9L124.6 86.6L124.7 86.1ZM124.5 84.8L124.7 85.3L124.7 85.8L124.4 85.3ZM128.6 90.2L128.1 90L127.6 89.8L127.1 89.5L126.7 89.1L127.3 89L127.8 88.9L128.1 89.4L128.4 89.8ZM127.3 89.7L127.1 90.2L126.6 90.4L126.3 90L126.7 89.6L127.2 89.6ZM126.3 89.2L126.7 89.6L126.7 90.1L126.2 89.8L126.1 89.3ZM129.1 92.3L129.6 92.6L129.6 93.1L129.1 93.1L128.5 93L128.1 92.7L127.9 92.2L128.4 92.3L128.8 92.6ZM129.5 92.5L129.8 92.9L130.1 93.4L129.6 93.1L129.6 92.6ZM129.8 92.9L130.3 93.1L130.8 93.1L130.9 93.6L130.4 93.8L130.3 94.3L129.8 94.2L129.7 93.7L129.4 93.2L129.9 93.3ZM126.5 90.5L127 90.8L127.3 91.3L127.8 91.5L127.9 92L128 92.6L127.1 92L126.7 91.6L126.7 91.1L126.6 90.6ZM132.4 93.7L132.5 94.2L132.3 94.7L131.7 94.7L131.6 94.2L132 93.9ZM127.3 84.6L127.4 84.1L127.7 83.5L127.8 84L127.6 84.5ZM125.7 83.2L126.2 83.2L126.7 83L127.2 82.9L127.7 83.3L127.6 83.8L127.4 84.3L127.3 84.8L127 85.3L127.1 85.8L126.6 85.9L126.1 85.9L126 85.4L125.8 84.7L125.7 84ZM130.7 86.1L131.2 86.1L130.9 86.6L130.4 86.6ZM131.2 86.3L131.6 86L131.9 85.5L132.3 85.8L132.3 86.4L132.5 86.9L131.9 87.1L131.6 86.6ZM133.6 88.5L134.1 88.4L134.2 88.9L133.8 89.3L133.3 89.5L133 89.1L133.5 89ZM141.8 88.8L142 88.3L142.5 88.2L142.4 88.7L142 89ZM142.1 88.3L141.7 88.6L141.4 89.3L141.7 89.8L141.2 89.8L141.3 89.3L141.2 88.8L140.9 88.3L141 87.8L141.4 88.1L141.8 87.7L142.2 88.2ZM142.4 88.1L141.9 87.8L141.4 88.1L141.2 87.6L141.4 87.1L141.9 87.4L142.3 87.8ZM141.2 87.6L140.9 88.1L141.1 88.6L141.4 89.1L141 88.7L140.5 88.8L140.2 88.3L140 87.8L140.2 87.3L140.3 86.7L140.7 87.2L141.2 87.4ZM142.1 88.9L142.5 88.4L142.4 87.9L141.9 87.6L141.5 87.2L141.8 86.7L142 87.3L142.3 87.7L142.7 88.3L142.4 88.9ZM142.5 81.6L142.6 82.1L142.8 82.6L142.4 82.3L142.4 81.8ZM138 83.1L138.4 82.7L139 82.7L138.9 82.2L139.4 82.3L140 82.1L140.4 81.8L140.9 81.9L141 82.4L140.9 82.9L140.5 83.5L139.9 83.7L139.4 83.9L138.9 83.7L138.5 83.4L138 83.2ZM140.4 86.5L140.2 87L140.1 87.6L139.6 87.4L139.2 87.7L139.1 88.2L138.8 88.7L138.4 89.2L138.1 89.6L138.1 90.2L137.8 90.7L137.3 90.4L137.1 89.9L136.8 89.3L136.7 88.7L136 88.7L136.3 88.2L136.2 87.6L136.7 87.2L136.9 86.7L136.6 86.3L137.1 86.2L137.5 86.5L137.9 86.9L138.3 87.3L138.8 87.4L139.2 87L139.7 87L140 86.5ZM140 87.8L139.5 88L139.2 87.6L139.8 87.3ZM139.1 87L138.7 87.4L138.1 87.3L138 86.8L138.6 87ZM137.2 86L136.7 86.2L136.9 86.7L136.7 87.2L136.2 87.6L136.3 88.1L135.9 88.4L135.5 88.1L134.9 88.1L134.9 87.6L135.3 87.3L135.7 86.9L136.1 86.6L136.3 86.1L136.8 85.8ZM135.5 85.8L136 85.8L136.5 85.7L136.3 86.2L136 86.6L135.7 87L135.2 87.3L134.6 87.3L134.6 86.8L134.7 86.2L135.2 86ZM135.7 85.9L135.7 85.4L136.1 85.1L136.5 85.4L136.4 85.9L135.9 85.8ZM136.1 84.9L136.5 84.6L137 84.6L136.9 85.1L136.5 85.4L135.9 85.4L136.4 85.1ZM133.5 84.9L134.1 85.1L134.6 85.1L135 85.5L135.5 85.7L135.1 86.1L134.5 86L134.1 85.7L133.6 85.8L133.5 85.3ZM132.6 87L132.4 86.5L132.3 86L132.2 85.4L132.7 85.2L133 85.7L133.6 85.8L134.1 85.7L134.5 86L134.6 86.5L134.7 87L134.7 87.5L135 87.9L134.4 88.1L133.9 87.8L133.3 87.7L132.9 87.3ZM130.7 86L130.9 85.5L131.4 85.5L131.9 85.5L131.6 86L130.9 86.2ZM130.5 80.3L130.9 80L131.3 79.7L131.9 79.4L132.4 79.4L132 79.8L131.4 80.1L131 80.6L130.5 81L130.4 80.5ZM131.5 81.5L131.6 82L131.2 82.4L130.7 82.1L131.1 81.7ZM131.5 82.4L131.8 82.9L132.1 83.4L131.6 83.5L131 83.4L130.8 82.9L130.3 82.7L130.6 82.2L131.1 82.3ZM130.9 81.7L130.6 82.1L130.1 82.3L129.9 81.8L130 81.3L130.5 81.2L130.8 81.6ZM130.6 83.4L130.1 83.5L129.8 83L130.2 82.6L130.7 82.9ZM130.1 81.2L129.8 81.7L129.4 82L128.9 81.8L129.1 81.3L129.5 80.9L130 81ZM129.9 83.3L130.4 83.5L130.3 84L129.8 83.8L129.8 83.3ZM132.2 85.6L131.7 85.5L131.1 85.4L130.5 85.3L130 84.9L129.9 84.4L130.4 84.2L130.9 84.2L131.3 84.5L131.8 84.7L132.3 85ZM126.7 82L127 81.6L127.3 81.1L127.7 81.5L127.9 82.1L127.4 82.3L126.9 82.4ZM142.2 93.3L142.5 92.9L142.8 92.5L143.2 92.1L143.5 91.7L143.9 91.3L144.1 90.8L144.4 90.4L144.7 89.9L145 89.4L145.3 88.8L145.1 89.3L144.9 89.9L144.5 90.6L144.1 91.2L143.6 91.8L143.1 92.4L142.6 93ZM137.4 84.7L137.2 84.2L137.5 83.6L137.9 83.3L138.4 83.3L138.9 83.7L139.4 83.9L139.9 83.7L140.4 83.6L140.8 83.2L140.8 82.6L141.1 82.1L140.7 81.7L140.7 81.1L140.7 80.6L141.2 80.6L141.7 80.7L142.2 80.8L142.3 81.3L142.4 81.8L142.4 82.3L142.3 82.8L142 83.2L142.5 83L142.4 83.5L142.9 83.9L143.2 84.4L143.2 85.1L143.2 85.7L142.9 86.2L142.5 86.6L142.1 86.9L141.5 87L141.2 87.4L140.7 87.2L140.7 86.6L140.2 86.3L139.7 86.8L139.2 87.1L138.7 87.1L138.1 86.9L137.5 86.7L137.4 86.2L136.9 85.8L136.5 85.4L136.9 85.1L137.4 84.7ZM129 82L129.2 82.5L128.9 83.2L129.1 83.7L128.6 83.9L128.7 83.4L128.6 82.8L128.6 82.3ZM129 80.2L129.3 79.7L129.8 79.5L129.4 79.8L129.1 80.4L128.7 80.7L128.7 80.2ZM141.5 89.9L142 89.8L142.2 90.3L141.7 90.2ZM143.9 88.6L143.6 89.1L143.3 89.6L143.5 89.1L143.7 88.5ZM132.8 79.5L132.5 80L132.4 80.5L131.9 80.8L131.4 80.7L131.6 80.2L132.1 80L132.4 79.5L132.9 79.4ZM129.8 81.7L130 82.2L129.5 82L129.8 81.6ZM130.2 89.3L130.4 88.8L130.8 89.3L131.2 89.8L130.7 89.4ZM143.4 80.9L143.6 81.4L143.7 82L143.5 82.6L143.7 83.1L143.4 82.5L143.5 82L143.4 81.4L143.1 81ZM142.8 80.1L143 80.7L142.6 80.3ZM133 89.1L133.1 89.6L132.5 89.8L131.9 89.9L131.4 89.9L131.3 89.4L131.8 89.2L132.3 89.2ZM130.4 86.6L130.9 86.6L131.4 86.4L131.9 87.1L132.4 87.2L132.8 87.7L133 88.2L133.5 88.6L133 89.1L132.4 89.1L131.9 89.3L131.4 89.1L131.1 88.7L130.8 88.1L130.6 87.6L130.5 87ZM126.8 82.8L126.6 83.3L126.1 83.2L125.6 83.2L125.1 83.4L125.1 82.9L125.6 82.7L126.1 82.5L126.6 82.4ZM130.5 88L129.8 87.8L129.3 87.5L128.7 87.3L128.9 86.6L129.1 86L129.6 85.9L130.1 86L130.4 86.5L130.2 87.1L130.3 87.6ZM128.7 87.3L128 86.9L127.6 86.3L127.1 85.9L127 85.4L127.3 84.8L127.7 84.4L128.1 84.8L128.4 85.4L128.8 85.1L129.2 85.5L129.1 86L128.9 86.6ZM132.1 90.9L131.6 91.2L131 91.2L130.5 91.2L130.1 90.9L129.8 90.4L129.7 89.9L130.1 89.6L130.6 89.4L131 89.7L131.2 90.2L131.9 90.8ZM132.3 90.3L132.1 90.9L131.4 90.5L131.9 90.4ZM129.6 91.5L129.1 91.3L129.1 90.8L129.6 90.8L129.7 91.3ZM129.1 90.7L128.7 90.4L128.4 89.9L128.1 89.4L128.6 89.5L129.1 89.6L129.6 89.5L129.7 90L129.9 90.7L129.4 90.8Z"/><circle class="id" cx="135" cy="85" r="1.7"/><circle class="ir" cx="135" cy="85" r="11"/></svg>
