<svg xmlns="http://www.w3.org/2000/svg" viewBox="0 0 150 100"><style>.o{fill:#b5d7ef}.g{fill:none;stroke:#fff;stroke-opacity:.45;stroke-width:.3}.l{fill:#f3ecd2;stroke:#ad9f78;stroke-width:.3}.t{fill:#d9302b;stroke:#7a1512;stroke-width:.45}.mh{fill:none;stroke:#fff;stroke-width:3}.m{fill:none;stroke:#d9302b;stroke-width:1.6}.io{fill:#4f93c9}.il{fill:#f3ecd2}.id{fill:#d9302b;stroke:#fff;stroke-width:.6}.ir{fill:none;stroke:#fff;stroke-width:1.2}.n{font:500 3.8px system-ui,-apple-system,'Segoe UI',Roboto,Arial,sans-serif;fill:#6b6249;text-anchor:middle;paint-order:stroke;stroke:#f3ecd2;stroke-width:.9;stroke-linejoin:round}.fb{fill:none;stroke:#00000040;stroke-width:.15}.tn{font-weight:650;fill:#fff;stroke:#a51f1b;stroke-width:.7}.tn .fb{stroke:#ffffffb0;stroke-width:.3}</style><rect class="o" width="150" height="100"/><path class="g" d="M26.9 100L33.9 0M124.6 100L117.4 0"/><path class="l" d="M23.2 31.5L22.4 31.8L21.9 33L21.3 33.1L20.7 33.5L20.1 37.1L21.1 38.6L20.5 38.8L19.9 39.2L19.5 39.8L19 41.1L17.5 41.7L16.9 42.2L15.9 43.4L15.3 45.2L14.4 45.9L13.5 45.9L14.2 44.5L15 43.3L14.4 42.5L14.1 41.1L13.7 40.1L14.2 39L14.2 37.2L14.4 35.4L15.1 34.5L15.9 33.9L17.2 32.3L18.4 31.2L20.1 30.8L20.8 31.3L21.2 30.3L21.8 30L22.2 30.3ZM0 45L0.6 44.8L2.2 41.9L2.7 40.5L3.4 39.3L3.9 38.2L4.2 37.8L4.7 38.1L4.3 38.9L4.2 39.8L2.2 43.6L1.5 46L0.9 46.5L0 48.7L0 45ZM24.2 0L22.8 1L22.1 1.9L21.5 2.4L19.9 3.5L19.3 3.7L18.8 4.3L18.2 4.5L17.8 4.3L16 5.3L16.1 5.8L17.3 6.2L18 6L18.6 5.4L19.2 5.4L19.6 5.5L20.2 5.1L20.7 4.9L21.1 5.2L21.5 6.4L20.4 6.9L19.7 6.8L19.2 8.6L18.7 9.4L18.3 9.7L16.6 10.3L15.5 11.2L14.1 11.9L13.6 11.7L12.7 12.4L10.8 13.2L9.7 14.3L7.5 15.3L6.3 16.1L3.4 15.8L0.6 15.2L0 15.4L0 0ZM0 15.6L0.5 15.8L1.1 16.3L1.9 16.2L3.6 16.7L4.5 17L5.5 18.7L4.6 19.1L3 19.4L3.3 21.6L3.6 23.1L2.9 24L2.4 28L1.5 27.9L0.9 29.6L1.1 30.5L0.8 32.4L0.9 33.7L1.1 34.8L0.8 36L0 37.2L0 15.6ZM24 30.1L23.8 31.2L23.3 31L23 30.2L23.9 29.1L25.2 29.3L25.6 29.6ZM19.3 11.2L18.9 11.3L19 10.5L19.8 9.9ZM21.5 4L21.3 4.5L21.1 3.8L21.4 3L21.8 2.7L22.5 3L21.8 3.7ZM149.1 100L149.3 99.4L149.2 98.7L146.6 97.5L144.5 97.5L142.9 97.7L142.2 97.5L142.4 96.7L142.7 95.4L142.7 94.3L142.5 93.8L142.2 93.4L140.5 92.6L138.2 91.4L137 89.9L136.3 88.3L135.6 87.4L134.5 86.8L135.1 84.8L134.7 84.2L133.3 83.5L131.5 82.2L131.3 81.8L131.4 80.9L131.5 80L131.9 79.5L132.8 77.6L132.7 77L132.5 76.2L131.6 74.8L130.9 74L130.8 73.5L130.9 73.1L131.2 72.6L131.5 71.9L131.4 69.8L131.4 69L131.1 68.6L130.3 68.6L129.5 68.3L128.9 67.8L128.2 67.1L127 66.1L124.7 65L122.9 65.3L121.9 65.2L121.4 65.4L120.9 66.1L120.2 66.6L119.6 66.6L119.2 67L117.8 68.2L117.2 67.5L116.5 66.6L116.7 65.7L116.9 64.9L116.8 64.4L116.6 64L115.7 63.6L113.8 62.8L113.3 62.8L112.5 63.2L111.2 64.3L110.6 64.1L110.1 63.3L109.6 62.4L108.9 61.9L107.4 62L106.6 62.7L105 61.2L105.2 60.4L105.4 59.3L105.2 58.4L105 57.2L104.3 55.1L104.2 54.6L103.3 53.7L103.1 53L102.6 52L102.2 51.4L102 50L101.7 49.5L101.3 49.3L99.9 49.8L100.3 47.5L100.4 46.2L100.7 44.9L101.2 44.3L101.3 43.8L101.3 43L101.2 42.2L100.9 41.8L99.7 41L98.5 40.1L98.2 38.8L97.8 38.5L96.8 38.5L96.9 37L97.1 36.1L97.9 35.2L98.1 34.5L98.3 33.9L100.1 33.1L100.3 32.6L99.8 32.1L99.3 31.6L99 30.3L98.3 28.2L97.7 26.9L97.5 26.1L97.6 25.1L97.8 24.2L97.8 23.3L96.7 18.4L96.7 17.5L96.9 16.6L97.3 15.8L98.2 14.8L99.3 12.9L100 10.6L100.4 9.1L100.7 8.8L101.4 8.7L101.6 8.2L102.3 7.7L102.3 7L101.6 6.1L101.2 5.6L101.6 4.5L101.3 2.9L101 1.7L101.3 0.7L101.9 0.6L102.7 1.6L103.7 2L104.4 1.3L104.6 0L150 0L150 100ZM37.4 75.3L36.4 76.8L33.6 80L34.4 80.5L35.3 80.7L36.4 81.4L37.4 81.5L39.3 81.1L39.8 78.2L40 75.7L40.6 75.7L41.5 75.6L42 76.2L43 77L44.2 77.6L46 78.7L47.8 79.4L48.4 79.5L50.4 79.5L52.5 79.6L53.1 81.1L54.1 81.8L54.9 82.9L54.9 83.4L53.7 86.8L53.4 87.9L53.3 89.1L53.7 90.6L54.1 91.4L53.7 91.5L48.3 91.1L43.1 90.6L38.3 90.1L33.7 89.6L29.3 89.1L26.6 88.7L23.9 88.3L23.5 88L25.1 86.7L26.2 85.3L27.1 83.4L27.3 82.1L27.7 80.6L29 80.1L31.7 80.4L33 79.7L34.6 78L36.3 76L36.9 75.1ZM0 82L1.4 81.4L7.1 80.6L9.5 80.5L11.8 80.7L13.7 82L15.7 83.6L16 84.5L14.9 83.8L13.3 82.4L12.7 82.3L13.8 86.3L14.4 87.7L16 88.9L17.3 89.3L21.5 89.1L23.1 88.4L23.5 88L23.9 88.3L26.6 88.7L29.3 89.1L33.7 89.6L38.3 90.1L43.1 90.6L48.3 91.1L53.7 91.5L54.1 91.4L54.6 90.7L55.3 90.9L56.1 91.3L56.5 91.6L56.6 92L57.2 92.4L58 92.8L59 93.5L59.9 94.2L60.7 95.1L60.9 96.2L60.9 97.4L60.8 98.2L61.2 100L0 100ZM37.4 75.3L36.9 75.1L38.1 73.3L38.5 72L38.9 70.3L39.2 69.7L39.2 70.5L39 71.9L38.2 74.1ZM54.1 91.4L53.7 90.6L53.3 89.1L53.4 87.9L53.7 86.8L54.9 83.4L54.9 82.9L54.1 81.8L53.1 81.1L52.5 79.6L50.4 79.5L48.4 79.5L47.8 79.4L46 78.7L44.2 77.6L43 77L42 76.2L41.5 75.6L40.6 75.7L40 75.7L39.8 74.3L40.2 72.5L39.7 69.8L38.9 66.4L39 62.9L39 62.1L41.6 60.3L44.8 58.4L45.5 58.2L48.4 57.1L48.9 57L51.4 57.3L53.5 57.7L55.2 57.7L56.1 57.4L57 57.7L57.6 58.7L58.4 58.6L59.1 58L62.9 58.6L63.8 58.7L64.8 58.8L66.6 59.3L67.6 59.9L69.9 59.6L70.9 59.6L71.4 59.4L72.9 58L73.6 57.7L74.3 57.5L74.8 57.7L75.2 58.9L76.4 61L77.6 61.4L81.2 62.1L81.9 62.5L83.9 64.4L85.1 65.3L85.9 66L87.1 67.4L87.8 68.4L88.9 69.1L90.2 69.6L90.7 69.7L90.7 70.4L90.5 71.7L90.1 73.3L89.7 74.6L89.6 75.1L89.9 75.5L91.7 75.7L92.5 75.9L92.3 76.7L91.7 77L91.4 77.4L91 78.6L88.1 78.5L87.7 78.8L87.5 79.4L87.4 80L87 80.8L86.2 81.5L85 81.8L84 82.3L83.3 83.7L82.7 85.7L82.8 87L82.8 87.8L82.8 88.2L82.4 88.7L81.8 90L81.3 91.3L81.1 92.1L81.8 92.5L82.6 92.8L83.1 93.3L83.2 93.9L83.2 94.6L83.1 95L82.4 95.3L81.4 95.3L80.8 95L80.9 94.1L80.7 93.2L80.3 92.8L79.4 93.5L78.6 93.5L77.5 94.1L76.9 95.1L76.2 95.5L74.5 95.3L74.1 95.7L73.7 97.7L73.5 98.1L72.1 98L70.7 98.8L69.1 99.4L68.3 99L67.8 98.5L67 98.5L66 98.8L65.4 98.6L64.7 98.6L63.3 99L61.6 98.9L60.9 98.5L60.9 97.4L60.9 96.2L60.7 95.1L59.9 94.2L59 93.5L58 92.8L57.2 92.4L56.7 92.3L56.5 91.6L56.1 91.3L55.3 90.9L54.6 90.7ZM60.5 0L59.1 0.5L58.6 0.3L60.5 0ZM96.8 38.5L95.3 38.3L93.9 37.7L93.3 37.2L92.7 37.3L92 37.6L89.4 38.6L88.8 38.4L87.3 37.5L86.5 36.5L84.9 34.5L84.7 34L84.5 33.6L82.7 33.1L82.1 32.4L81.5 32.3L80.8 31.9L78.7 30.3L78.2 30.2L78.1 30.8L77.7 31L77.3 30.5L76.7 29.9L74.9 30.9L74.3 31.2L73.7 31.2L70.9 32.5L70.1 33.2L69.7 33.1L69.8 32.5L71 29.2L71.2 26.6L71.6 26.3L71.8 25.9L71.6 25.1L70.4 24.5L69.9 24.6L69.5 25.5L69 26.1L67.9 26.5L67 25.8L64.9 24.9L64.4 23.7L64.3 22.5L63.2 21.3L62.8 19.9L63 18.9L64 18.3L64.3 17.8L63 17.8L62.7 17.2L62.2 15.5L62.7 14.8L62.9 14.2L62.5 13.7L62.7 13L63 12.4L62.8 10.9L64.1 10.2L65.3 9.7L67.9 9.4L67.6 8.1L68.7 8L70.4 6.4L72.1 6.7L74.6 5.6L79.4 5.6L80.1 5L80 4.3L80 3.6L80.9 3.8L82.4 3.7L88 4.9L89.4 4.9L91.3 6.2L92.4 6.6L95.5 6.5L100.2 6.9L101.1 5.9L101.6 6.1L102.3 7L102.4 7.4L101.7 8L101.4 8.7L100.7 8.8L100.4 9.1L100 10.6L99.3 12.9L98.2 14.8L97.3 15.8L96.9 16.6L96.7 17.5L96.7 18.4L97.8 23.3L97.8 24.2L97.6 25.1L97.5 26.1L97.7 26.9L98.3 28.2L99 30.3L99.3 31.6L99.8 32.1L100.2 32.4L100.3 32.9L98.3 33.9L98.1 34.5L97.9 35.2L97.1 36.1L96.9 37L96.8 38.1ZM55 20.3L55.6 20.7L56.2 20.6L56.8 20.3L58 20.6L60.8 22.8L61.1 23.3L59.4 23.5L58.9 24.1L58.5 24.6L58 24.7L57.2 25.5L56 26.3L55.8 26.8L53.7 26.7L52.6 26.9L51.7 27.9L51.3 29.6L50.5 31L49.8 31.5L49.1 31.6L49 31L49.1 30.5L50.6 28.6L51 27.9L50.3 27.6L49.7 26.9L48.4 26L48.1 25.4L48.5 25.3L49.2 24.6L49.3 24L48.4 22.1L48.9 21.8L49.6 21.9L50.3 22.5L51 21.9L51.4 21.8L51.9 22.1L52.5 20.9L53.8 20.5L54.4 20.2ZM57.8 17L57 17.7L56.6 17.4L56.4 17L55.4 18.8L54.4 19.1L53.8 18.7L53.9 18L53.4 16.2L52.5 15.6L51.3 15.5L50.4 14.7L53.9 14.4L54.3 13.5L55 12.6L55.6 12.5L56 12.8L56 13.5L57.7 14.2L58.3 15.4L58.5 16.9ZM61.3 21.6L60.6 21.8L58.9 20.6L59.3 19.8L59.8 19.5L61.2 20L61.4 21.2ZM61.2 100L60.9 98.5L61.6 98.9L63.3 99L64.7 98.6L65.4 98.6L66 98.8L67 98.5L67.8 98.5L68.3 99L69.1 99.4L70.7 98.8L72.1 98L73.5 98.1L73.7 97.7L74.1 95.7L74.5 95.3L76.2 95.5L76.9 95.1L77.5 94.1L78.6 93.5L79.4 93.5L80.3 92.8L80.7 93.2L80.9 94.1L80.6 94.7L81.4 95.3L82.4 95.3L83.1 95L83.2 94.6L83.2 93.9L83.1 93.3L82.6 92.8L81.8 92.5L81.2 92.4L81.3 91.3L81.8 90L82.4 88.7L82.8 88.2L82.8 87.8L82.8 87L82.7 85.7L83.3 83.7L84 82.3L85 81.8L86.2 81.5L87 80.8L87.4 80L87.5 79.4L87.7 78.8L88.1 78.5L91 78.6L91.4 77.4L91.7 77L92.3 76.7L92.6 76.2L91.7 75.7L89.9 75.5L89.6 75.1L89.7 74.6L90.1 73.3L90.5 71.7L90.7 70.4L90.7 69.7L92.4 69.2L92.9 68.9L94 67.2L95 66.8L97.4 67.2L98.5 67.1L99.9 67.2L100.4 65.3L100.9 64.8L102.7 62.4L103.9 61.5L104.7 61.2L106.3 62.6L107.3 62.1L108.9 61.9L109.6 62.4L110.1 63.3L110.6 64.1L111.2 64.3L112.5 63.2L113.3 62.8L113.8 62.8L115.7 63.6L116.6 64L116.8 64.4L116.9 64.9L116.7 65.7L116.5 66.6L117.2 67.5L117.8 68.2L119.2 67L119.6 66.6L120.2 66.6L120.9 66.1L121.4 65.4L121.9 65.2L122.9 65.3L124.7 65L126.8 65.8L128.2 67.1L128.6 67.7L129.5 68.3L130.3 68.6L130.8 68.4L131.4 69L131.4 69.8L131.5 71.9L131.2 72.6L130.9 73.1L130.8 73.5L130.9 74L131.6 74.8L132.5 76.2L132.7 77L132.8 77.6L131.9 79.5L131.5 80L131.4 80.9L131.3 81.8L131.5 82.2L133.3 83.5L134.7 84.2L135.1 84.5L134.5 86.4L135.6 87.4L136.3 88.3L137 89.9L138.2 91.4L140.5 92.6L142.2 93.4L142.5 93.8L142.7 94.3L142.7 95.4L142.4 96.7L142.2 97.5L142.9 97.7L144.5 97.5L146.6 97.5L149.2 98.7L149.3 99.4L149.1 100L61.2 100Z"/><path class="t" d="M90.7 69.7L90.2 69.6L88.9 69.1L87.8 68.4L87.1 67.4L85.9 66L85.1 65.3L83.9 64.4L81.9 62.5L81.2 62.1L77.6 61.4L76.4 61L75.2 58.9L74.8 57.7L74.3 57.5L73.6 57.7L72.9 58L71.4 59.4L70.9 59.6L69.9 59.6L67.6 59.9L66.6 59.3L64.8 58.8L63.8 58.7L62.9 58.6L59.1 58L58.4 58.6L57.6 58.7L57 57.7L56.1 57.4L55.2 57.7L53.5 57.7L51.4 57.3L48.9 57L48.4 57.1L45.5 58.2L44.8 58.4L41.6 60.3L39 62.1L38.9 59L39.4 52.7L39.9 49.6L41.7 47.9L42.6 46.5L43.2 44.7L43.5 42.9L43.9 41.5L46.5 37.5L48.4 37.1L51 36.1L54 35.2L54.5 36.5L54.7 37.4L58.1 40.9L58.9 42.1L60.2 46L63.4 48L66 47.4L67.1 46.5L69.2 44.8L70.1 43.5L70.3 42.2L70 36.9L69.5 34.6L69.7 33.1L70.1 33.2L70.9 32.5L73.7 31.2L74.3 31.2L74.9 30.9L76.7 29.9L77.3 30.5L77.7 31L78 31.1L78.1 30.8L78.1 30.5L78.2 30.2L78.7 30.3L80.8 31.9L81.5 32.3L82.1 32.4L82.7 33.1L84.5 33.6L84.7 34L84.9 34.5L86.5 36.5L87.3 37.5L88.8 38.4L89.4 38.6L92 37.6L92.7 37.3L93.3 37.2L93.9 37.7L95.3 38.3L96.5 38.5L96.8 38.5L97.8 38.5L98.2 38.8L98.5 40.1L99.7 41L100.9 41.8L101.2 42.2L101.3 43L101.3 43.8L101.2 44.3L100.7 44.9L100.4 46.2L100.3 47.5L99.8 49.7L101.3 49.3L101.7 49.5L102 50L102.2 51.4L102.6 52L103.1 53L103.3 53.7L104.2 54.6L104.3 55.1L105 57.2L105.2 58.4L105.4 59.3L105.2 60.4L105 61.2L104.7 61.2L103.9 61.5L102.7 62.4L100.9 64.8L100.4 65.3L100 67L99.9 67.2L98.8 67.2L98.5 67.1L97.4 67.2L95 66.8L94 67.2L92.9 68.9L92.4 69.2L91 69.5Z"/><g class="n tn"><text x="74.5" y="53.3" font-size="4.37">Latvia</text></g><g class="n"><text x="121.6" y="44.1">Russia</text><text x="109.4" y="87.4">Belarus</text><text x="66.2" y="76.8">Lithuania</text><text x="79.1" y="20.0">Estonia</text><text x="25.0" y="94.8">Poland</text><text x="9.0" y="8.3">Sweden</text></g><circle class="io" cx="135" cy="85" r="11"/><path class="il" d="M136.7 94.2L137.4 94.3L137.7 94.8L137.2 95L136.7 95L136.2 95L135.8 94.6L136.3 94.2ZM129.6 89L129.1 89L128.7 89.4L128.2 89.2L128.7 89.2L129.2 88.9ZM131.2 75.4L131.8 75.2L132.3 75.2L132.8 75.4L133.3 75.3L133.9 75.9L133.6 76.4L133.1 76.6L132.6 76.8L132.1 76.9L131.6 77.4L132 77.8L131.5 78L131.2 78.5L130.7 78.1L130.3 77.6L129.8 77.6L129.4 78L129 78.4L128.5 78.7L129 78.9L129.5 78.7L130 78.7L129.8 79.2L129.3 79.5L129.2 80.1L128.8 80.6L128.5 81.1L128 80.9L128 80.3L127.6 80L127.7 80.6L127.3 80.9L127.3 80.4L127.3 79.8L127.3 79.3L127.5 78.8L127.9 78.5L128.3 78.1L128.6 77.6L128.9 77.2L129.4 76.7L129.9 76.2L130.5 75.8L130.9 75.5ZM128.2 81.3L127.8 81.8L127.6 81.2L128.1 81.1ZM131.8 78.6L131.4 79L130.9 79.3L130.6 79.7L130.1 79.7L130 79.2L130.4 78.9L130.9 79L131.3 78.7L131.6 78.2L132.1 78.1L131.7 78.5ZM133.6 78.5L133.7 79L133.2 79L132.7 78.7L133.2 78.5ZM131.2 75.4L130.6 75.7L130.2 76L129.6 76.4L129.1 76.9L128.8 77.4L128.4 77.8L128.1 78.3L127.7 78.7L127.2 78.9L127.2 79.4L127.3 80L127.2 80.5L126.8 80.2L126.5 79.8L126.1 80.1L125.6 80L125.9 79.6L126.2 79.1L126.4 78.6L126.7 78.1L127 77.6L127.4 77.2L127.7 76.8L128.2 76.5L128.8 76L129.3 75.6L129.8 75.4L130.3 75.2L130.8 75.1L131.3 75.2ZM134.1 76.3L133.7 75.4L133.2 75.4L132.6 75.3L133.2 75.3L133.8 75.3L134.3 75.3L134.8 75.2L135.3 74.9L135.8 74.8L135.3 75L135.8 75.2L135.5 75.6L136 75.8L135.5 75.8L135.4 76.3L134.9 76.3L134.4 76.3ZM141.4 83.2L141.5 83.7L141.5 84.2L141.6 84.7L141.2 85.2L140.8 85.6L140.8 86.1L140.3 86L139.8 86.2L139.3 86.1L139.3 87L138.8 87L138.4 86.7L138.5 86.2L138 86.4L137.7 86L138 85.4L138.6 85.4L139 85.1L139 84.6L139.2 84.1L139.5 83.7L140 83.7L140.7 83.7L141.1 83.4ZM139.3 87L139 86.3L139.5 86.1L140.1 85.9L140.5 86.2L140.8 85.8L140.9 86.3L140.9 86.8L140.4 86.8L139.9 86.6L139.4 86.7ZM146 86L146 85.5L146 84.9L146 84.4L146 85.1L146 85.8ZM145.8 86.8L145.8 87.3L145.3 87.5L145.7 87.1ZM135.8 94.6L135.7 95.1L135.2 95.2L134.7 95.2L134.2 94.9L133.7 94.9L132.8 94.6L133.3 94.5L133.6 94L133.9 93.6L134.4 93.7L134.9 93.6L135.4 93.6L135.9 93.7L135.9 94.2ZM138.2 94L138 93.5L138.5 93.2L139.2 92.6L139.4 92.1L139.5 92.6L139.1 93.3L138.6 93.6L138.2 93.9ZM137.7 94.4L136.7 94.2L136.8 93.7L137.3 93.5L137.8 93.5L138.2 94ZM134.9 93.3L134.6 92.9L134.5 92.4L134.8 91.7L135.7 91.3L136.4 91.2L137.1 91.1L137.3 91.6L137.1 92.2L136.9 92.7L136.3 92.7L135.9 93L135.4 93.1L134.9 93.2ZM134.8 91.7L134.8 92.3L134.4 92.7L134.1 93.1L133.4 93.3L133 93L133.1 92.5L133.2 92L133.3 91.5L133.2 91L134.1 91.3ZM136.5 81.5L136.5 80.9L136.7 81.5L137 81.9L136.5 81.8ZM140.7 77.6L141.3 77.5L141.8 77.8L141.3 77.7L140.8 77.6ZM142.8 79.1L142.4 78.8L142 78.5L141.9 79.1L141.5 79.5L142 79.9L142 80.4L142.2 80.9L141.9 81.4L141.6 81.8L141.7 82.3L141.4 82.8L141.2 83.3L140.7 83.5L140.2 83.5L139.7 83.7L139.2 84.1L138.8 84.5L139.1 85L138.6 85.4L138.1 85.3L137.8 85.8L137.8 86.3L137.9 86.9L138.3 87.3L137.8 87.3L137.2 87.3L136.7 87.2L136.8 86.7L136.9 86.2L136.4 86.1L136 85.8L135.6 85.4L135.3 84.9L135.4 84.4L135.6 83.9L135.4 83.4L135.4 82.9L135.8 82.6L136.2 83L135.7 83.1L136 83.6L136.3 83L136.8 82.5L137.2 82.1L137.8 81.9L137.4 81.6L137.3 81.1L137.9 81.6L138.3 82L138 81.5L137.6 81.1L137.6 80.6L137.5 80.1L137.4 79.6L137.8 79.2L138 78.7L138.5 78.5L138.2 78.1L137.8 77.7L137.6 77.2L137.3 76.7L136.8 76.6L136.4 76.1L136.9 76.1L137.6 75.9L138.1 76L138.6 76.3L139.1 76.2L139.7 76.3L140.2 76.5L139.6 76.7L139 76.5L138.5 76.4L138.9 76.8L139.5 76.9L139.8 77.4L140.5 77.9L141 78.3L140.8 77.8L141.4 77.8L141.9 78.1L142.4 78.5L142.8 79.1ZM135.4 82.6L134.9 82.7L134.4 82.8L134.1 83.4L133.8 83.9L133.7 84.4L133.2 84.5L133.2 83.8L133.8 83.4L134.3 82.9L134.8 82.4L135.4 82.4ZM133.7 79.4L134 79.8L133.7 80.2L133.3 80.6L132.9 81L132.4 81.3L131.8 81.5L131.3 81.3L130.7 81.2L130.2 81.4L129.9 80.9L130.3 80.5L130.8 80.2L131.3 80.1L131.8 79.8L132.3 79.4L132.5 78.9L133 79.1L133.5 79.2ZM133.9 95.9L134.4 95.9L134.9 95.9L135.4 95.8L135.9 95.8L136.4 95.9L135.9 95.9L135.4 96L134.7 96L133.9 95.9ZM127.4 77L127.9 76.6L128.3 76.3L128.8 75.9L128.4 76.2L128.8 75.9L129.3 75.6L128.8 76L128.2 76.4L127.8 76.8L127.4 77.2L127 77.6L126.6 77.9L126.2 78.4L125.8 78.9L125.6 79.4L125.9 78.8L126.4 78.2L126.9 77.6L127.4 77ZM124 84.7L124.1 85.2L124.1 85.7L124.1 86.2L124.3 86.7L124.4 87.2L124.5 87.7L124.7 88.3L124.9 89L125.2 89.5L125.5 90.1L125.5 90.6L125.1 89.9L124.8 89.2L124.6 88.5L124.3 87.7L124.2 87L124.1 86.2L124 85.5ZM124 84.5L124 84L124.1 83.2L124.3 82.5L124.2 83L124.1 83.5L124.1 84L124 84.6ZM124 84.6L124 84.1L124.1 83.5L124.2 83L124.2 83.5L124.2 84L124.2 84.5L124.2 85ZM124.1 86.2L124.1 85.7L124.1 85.2L124.1 85.7ZM132.7 86.1L132.6 86.6L132.6 87.1L132 87.1L131.4 86.9L131.6 86.4L131.4 85.9L131.9 85.8L132.4 85.7ZM125.3 80.1L125.1 80.6L124.9 81.1L124.8 81.6L124.9 81.1L125.1 80.5L125.3 80ZM136.1 95.8L135.6 95.8L135.1 95.6L135.7 95.5L136.2 95.5ZM135.8 95.8L135.3 95.9L134.8 95.9L134.3 95.9L134.8 95.6L135.4 95.7ZM134.1 95.9L133.6 95.9L133.1 95.7L132.6 95.4L133.8 95.5L134.4 95.6L135 95.6L134.4 95.6ZM127.9 90.3L128.4 90.2L128.6 90.7L128 90.5ZM128.6 90.9L129.6 91L129.7 90.3L129.8 89.6L130.5 90.3L131 90.8L131.3 91.2L131.2 91.7L130.7 91.6L130.2 91.4L129.7 91.5L129.2 91.6L128.9 91.1ZM128.1 89.2L128.7 89.6L129.1 89L129.5 89.3L130 89.7L129.7 90.3L129.7 90.9L129 90.7L128.5 90.4L128.2 90L128.2 89.5ZM133.2 91L133.3 91.5L133.2 92L133.1 92.5L132.5 92.3L131.8 92.2L131.2 91.9L130.7 91.9L131.2 91.7L131.3 91.2L132.1 91L132.7 90.8L133.1 91.1ZM130.9 92.8L131.1 92.3L131.6 92.1L132.1 92.3L132.7 92.4L132.8 92.9L132.4 93.2L131.9 93.3L131.4 93.2L131 92.9ZM133.1 92.5L133 93L133 93.5L133.3 93.9L132.7 93.8L132.1 93.6L132 93.1L132.5 93.2L132.8 92.8ZM130.6 92.1L130.7 92.7L130.5 92.2ZM130.5 92.1L130.5 92.6L130 92.7L130 92.2ZM129.1 91.5L129.6 91.8L130 92.2L129.4 92.4L129.1 92L129.1 91.5ZM128.3 90.7L128.7 91.1L129.1 91.4L128.6 91.3L128.2 91ZM129.5 91.7L130 91.5L130.5 91.5L130.9 92L130.4 92L129.9 91.9ZM135.5 93.6L135 93.7L134.5 93.8L134 93.6L133.5 93.7L133 93.5L133.4 93.2L133.9 93.2L134.4 92.9L134.8 93.2L135.3 93.5ZM133.8 93.8L133.5 94.2L133.1 94.5L132.6 94.4L133 94.1L133.4 93.8ZM132.4 93.7L132.9 93.9L132.5 94.2L131.9 94L132.4 93.8ZM136.1 94.9L136.6 95L136 95.4L135.5 95.6L135 95.6L134.4 95.5L134.8 95.2L135.3 95.3L135.9 95.3ZM136.8 95.1L137.3 95L137.9 94.8L137.6 95.3L137.1 95.5L136.6 95.8L136.1 95.8L136.5 95.5L136 95.5L136.5 95.3L137 95.3ZM132.6 94.6L133.4 94.7L133.9 94.9L134.4 94.9L134.8 95.2L134.4 95.5L133.9 95.6L133 95.4L132.8 94.9ZM139.5 94.5L139.2 94.9L138.8 95.3L138.3 95.4L138.7 94.9L139.2 94.7ZM132.5 89.6L132.3 89L132.5 88.5L132.8 88.9L132.7 89.4ZM129.6 89L130.1 88.9L130.6 88.8L130.9 88.4L131.5 88.2L132 88.3L132.5 88.4L132.3 88.9L132.5 89.6L132.5 90.1L132.5 90.6L132.1 91L131.6 91.2L131.1 91.1L130.5 90.3L130 89.7ZM136.7 89.4L137.2 89.2L137.1 89.7L136.7 90L136.7 89.5ZM137.3 89.4L137.5 88.9L137.6 88.4L138.1 88.4L138.3 88.9L138.7 89.3L137.7 89.4ZM140.1 90L140.5 89.6L140.7 90.1L140.5 90.6L140.1 90.9L140.2 90.4ZM145.5 85.7L145.5 85.1L145.6 85.6ZM145.5 85L145.4 85.6L145.4 86.3L145.4 86.8L145.4 86.3L145.2 85.8L145 85.2L145.3 84.8ZM145 85.1L145 85.6L145.3 86L145.4 86.5L145.1 86L144.9 86.5L144.6 86.1L144.3 85.6L144.3 85.1L144.3 84.6L144.6 85.1ZM145.6 85.6L145.7 84.9L145.2 84.7L145 84.2L145.5 84.4L145.7 84.9L145.7 85.6ZM142.8 79.1L143.2 79.5L143.5 79.9L143 79.6L142.8 79.1ZM141.4 83.2L141.4 82.6L141.8 82.2L141.5 81.8L141.9 81.5L142.1 81L142 80.4L142.4 80.1L142.7 80.6L142.8 81.1L143.1 81.6L143.1 82.2L142.8 82.7L142.4 83L142.1 83.4L141.7 83.1ZM144.2 84.6L144.3 85.1L144.4 85.6L144 86L144.2 86.5L144.1 87L144 87.6L143.9 88.1L143.8 88.7L143.8 89.2L143.7 89.7L143.2 89.5L142.8 89L142.3 88.9L142.2 88.3L142.1 87.8L142.1 87.3L142.2 86.8L142.1 86.3L142.6 86.5L143.2 86.6L143.6 86.3L143.7 85.8L144 85.4L144 84.9ZM144.4 86L144.2 86.5L143.8 86.1L144.2 85.7ZM143.7 85.9L143.5 86.4L143 86.7L143.2 86.2ZM142.1 86L141.9 86.5L142.2 87L142.1 87.5L141.9 88.1L142 88.6L141.3 88.9L140.9 89.2L141.1 88.7L140.6 88.5L141.1 88.3L141.3 87.7L141.5 87.2L141.5 86.7L141.7 86.2ZM140.8 86.8L141.2 86.4L141.6 86.1L141.4 86.6L141.5 87.1L141.4 87.6L141.2 88.2L140.6 88.5L140.4 88L140.3 87.5L140.6 87ZM141 86.7L140.9 86.2L141.4 85.9L141.5 86.4L141 86.7ZM140.9 85.7L141.1 85.2L141.5 84.9L141.6 85.5L141.2 86.1ZM138.8 87.1L139.3 87L139.5 86.5L140 86.6L140.6 86.8L140.5 87.3L139.9 87.4L139.4 87.6L139 87.3ZM138.8 89.3L138.3 88.9L138.1 88.4L137.8 87.9L138.3 87.7L138.8 88L139.4 87.7L139.8 87.4L140.3 87.5L140.4 88L140.6 88.5L141.1 88.7L140.9 89.2L140.3 89.4L139.7 89.5L139.2 89.4ZM136.7 89.4L136.7 88.9L137.1 88.6L137.6 88.4L137.5 88.9L136.9 89.4ZM133.6 84.5L133.9 84L134 83.5L134.3 83L134.8 82.8L134.9 83.3L134.6 83.7L134.3 84.2L134.1 84.9L133.7 85.2ZM135.3 85.1L135.7 85.5L135.7 86L135.2 86L134.8 85.6L135.2 85.2ZM135.8 85.9L136.3 86.1L136.9 86.2L136.7 86.7L136.2 87L135.7 87L135.3 86.6L134.8 86.7L134.9 86.2L135.4 86ZM134.8 85.6L134.9 86.2L134.4 86.4L133.9 86.2L133.8 85.7L134.2 85.3L134.8 85.5ZM134 86.6L133.6 86.9L133.1 86.7L133.6 86.4ZM135.4 87.2L134.9 87.5L134.5 87.2L134.6 86.7L135.1 86.7L135.4 87.1ZM133.8 85.5L133.8 86L133.5 86.5L133 86.6L132.7 86.2L132.8 85.7L133.2 85.3L133.7 85.4ZM134.7 87.9L135.2 87.9L134.7 88.1L134.9 88.6L134.4 88.6L134.4 88.1ZM138 88.3L137.5 88.4L137 88.6L136.5 88.7L136 88.7L135.4 88.8L135.2 88.3L135.6 87.9L136.1 87.8L136.7 87.8L137.2 87.8L137.7 87.6L137.9 88.1ZM133.9 86.9L134.3 87.2L133.8 87.2L134.1 87.7L133.7 87.3ZM130.4 86.7L130.5 87.2L130.2 87.6L130.2 87.1ZM130.3 87.6L130.6 87.1L130.5 86.6L131 86.6L131.4 86.9L131.8 87.2L131.4 87.6L131 88L130.5 87.9ZM141.7 84.8L141.5 84.2L141.5 83.7L141.4 83.2L141.9 83.2L142.4 83.1L142.8 82.7L143.1 82.2L143.1 81.6L142.8 81.1L142.7 80.6L142.5 80.1L142 79.9L141.5 79.6L141.5 79.1L142 78.8L142.5 78.9L142.9 79.2L143.1 79.7L143.4 80.2L143.5 80.7L144 81L144.5 81L144.8 81.5L145 82L145.1 82.5L145.2 83L145.3 83.6L145 84L144.9 84.5L144.9 85L144.5 84.7L144 84.9L143.9 85.4L143.7 85.9L143.2 86.2L142.7 86.5L142.3 86.1L141.7 86.1L141.4 85.6L141.6 85.1ZM133.1 86.7L133.5 87L133.5 87.6L133.9 88L133.7 88.5L133.5 88L133.1 87.6L132.8 87.1ZM131.9 85L131.9 84.5L132.1 84L132.1 84.6L132.3 85.2L132 85.6L131.5 85.5L131.7 85ZM132.2 82.3L131.7 82.6L131.5 82.1L132 82.3ZM137.1 87.3L137.6 87.3L138.1 87.5L137.5 87.6ZM146 84.1L146 84.6L146 85.1L146 85.6L146 85L146 84.5L145.9 84ZM135.3 82.7L135.4 83.3L135.6 83.8L135.3 84.3L134.8 84.4L134.7 83.9L135 83.5L134.9 82.9L135.3 82.5ZM137.1 92.2L137.4 91.8L138 92.1L137.5 92.2ZM142.6 78L143.1 78.3L143.4 78.7L143.6 79.2L144 79.6L143.5 79.2L143.1 78.6L142.7 78.2ZM139.7 90.8L139.9 91.3L139.4 91.6L139 91.9L138.5 92.2L138.2 91.8L138.6 91.4L139.1 91.2ZM136.7 90L137.1 89.7L137.5 89.4L138.3 89.6L138.9 89.5L139.3 89.9L140.1 90.1L139.7 90.8L139.1 91.2L138.6 91.4L138.2 91.7L137.7 91.3L137.4 90.8L137 90.5L136.6 90.2ZM130.9 88.2L130.9 88.7L130.3 88.8L129.7 88.8L129.2 88.9L128.7 89.2L128.2 89.2L128.6 88.9L129 88.6L129.6 88.6L129.9 88.1L130.4 87.9L130.8 88.2ZM137.1 91.1L136.4 91.2L135.7 91.3L135 91.3L135 90.7L135 90.1L135.3 89.7L135.8 89.7L136.3 89.7L136.6 90.2L136.2 89.9L136.6 90.5L136.9 91ZM135 91.3L134.1 91.3L133.4 91L132.7 90.8L132.3 90.3L132.5 89.8L132.8 89.3L133.4 89.5L133.9 89.8L134.3 89.5L134.8 89.6L135 90.1L135 90.7ZM139.2 92.6L138.8 93.1L138.2 93.3L137.7 93.6L137.1 93.5L136.6 93.2L136.9 92.7L137.1 92.2L137.6 92.1L138.1 92.2L138.4 92.6L139.1 92.6ZM139.4 92.1L139.2 92.6L138.5 92.6L139 92.3ZM136.1 93.8L135.6 93.7L135.2 93.4L135.6 93.1L136.1 93L136.5 92.7L136.5 93.2L137 93.4L136.6 93.7Z"/><circle class="id" cx="135" cy="85" r="1.7"/><circle class="ir" cx="135" cy="85" r="11"/></svg>
