<svg xmlns="http://www.w3.org/2000/svg" viewBox="0 0 150 100"><style>.o{fill:#b5d7ef}.g{fill:none;stroke:#fff;stroke-opacity:.45;stroke-width:.3}.l{fill:#f3ecd2;stroke:#ad9f78;stroke-width:.3}.t{fill:#d9302b;stroke:#7a1512;stroke-width:.45}.mh{fill:none;stroke:#fff;stroke-width:3}.m{fill:none;stroke:#d9302b;stroke-width:1.6}.io{fill:#4f93c9}.il{fill:#f3ecd2}.id{fill:#d9302b;stroke:#fff;stroke-width:.6}.ir{fill:none;stroke:#fff;stroke-width:1.2}.n{font:500 3.8px system-ui,-apple-system,'Segoe UI',Roboto,Arial,sans-serif;fill:#6b6249;text-anchor:middle;paint-order:stroke;stroke:#f3ecd2;stroke-width:.9;stroke-linejoin:round}.fb{fill:none;stroke:#00000040;stroke-width:.15}.tn{font-weight:650;fill:#fff;stroke:#a51f1b;stroke-width:.7}.tn .fb{stroke:#ffffffb0;stroke-width:.3}</style><rect class="o" width="150" height="100"/><path class="g" d="M14.8 100L19.5 0M148.7 100L142.9 0M0 30.7L17.6 31.8L49.5 33L81.5 33.2L113.4 32.6L145.3 31.1L150 30.8"/><path class="l" d="M12.8 0L12.7 1.5L12.6 3.2L12.5 5L12.4 6.7L12.3 8.5L12.2 10.2L12.1 12L12 13.7L11.9 15.5L11.8 17.2L11.7 19L11.6 20.7L10.8 21.1L10.3 20.9L9.9 21.1L9.5 21.5L10 22.4L10.3 23.1L10.4 23.6L10 24.6L10.2 25.1L10.3 25.8L10.1 26.6L9.6 27.1L9.2 27.7L9 28.2L9 28.7L8.6 29.7L8.3 30L8.2 31L7.9 31.8L7.7 32.6L7.3 32.9L7.4 33.3L7 33.8L6.9 34.3L6.7 34.7L6.3 35.2L6.7 35.7L6.6 36.2L6.3 36.7L6.2 37.2L5.2 37.8L3.6 38.9L3.2 39.4L2.9 39.9L2.1 40.3L1.6 40.8L1.1 41.1L0.5 41.1L0 41.5L0 0ZM77 0L77.3 0.4L77.8 0.6L78.2 1.6L79 1.9L79.5 2.2L80.2 2.7L79.9 3.2L80.5 3.7L80.7 4.1L80.4 4.4L80.5 5.1L80.6 6.2L81.3 8.1L81.7 8.4L82.3 8.6L82.6 8.9L83.1 9.2L83.7 9.1L84.1 9.4L84.6 9.5L84.8 9.9L85.1 10.2L85.1 10.7L84.6 10.9L84 11.4L83.3 12.1L83.1 12.9L82.7 13.6L82.1 14.4L81.7 14.7L81.6 15.1L81 15.7L80.5 16.1L80 16.4L79.6 16.9L79.9 17.4L80.4 18.1L80.6 18.7L80.4 19.1L80.1 19.7L79.9 20.1L79.2 20.4L79 21.4L79 22.2L79 22.7L79 23.1L79.1 23.7L79.6 23.7L80.3 23.9L80.5 24.4L80.7 25.7L80.9 26.2L81.3 26.6L81.8 26.4L82.1 27.2L82.7 27.9L83.3 28.7L83.7 29.2L84.5 29.7L84.7 30.2L84.4 31.1L84 31.2L83.6 31.2L83.1 31.7L82.5 31.9L81.7 32.6L81.2 32.9L80.8 33.1L80.4 33.4L79.8 33.9L79.7 34.4L78.8 35.1L78.3 35.4L77.6 35.4L76.9 35.8L76.5 35.9L76.1 36.4L75.7 36.3L75.2 36.1L74.7 35.9L74.2 35.9L73.8 35.9L73.4 36.1L72.8 36.3L72.5 36.6L72.1 36.9L71.7 37.4L71.5 37.9L69.9 37.9L68.4 37.9L67 37.9L65.5 37.9L64 37.9L62.5 37.9L61.1 37.8L59.6 37.8L58.1 37.8L56.6 37.8L55.2 37.8L53.7 37.7L52.2 37.7L50.7 37.7L49.2 37.6L47.8 37.6L46.2 37.6L44.8 37.5L43.3 37.5L41.9 37.5L40.3 37.4L38.9 37.4L37.4 37.3L36 37.3L34.4 37.2L32.9 37.2L31.5 37.1L29.9 37.1L28.5 37L27 36.9L25.6 36.9L24.1 36.8L22.4 36.7L20.7 36.7L19.1 36.6L17.4 36.5L15.7 36.4L14.1 36.3L12.4 36.2L10.7 36.1L10.8 35L10.9 33.8L10.9 32.6L11 31.5L11.1 30.2L11.2 28.8L11.2 27.5L11.3 26.2L11.4 24.8L11.5 23.5L11.5 22.2L11.6 20.8L11.7 19L11.8 17.2L11.9 15.5L12 13.7L12.1 12L12.2 10.2L12.3 8.5L12.4 6.7L12.5 5L12.6 3.2L12.7 1.5L12.8 0L77 0ZM100 0L100 1L99.9 1.8L99.9 2.6L99.9 3.3L99.8 4.1L99.8 5L99.7 5.6L99.8 6.5L99.8 7.1L99.7 8L99.7 8.8L99.6 9.5L99.6 10.3L99.6 11.2L99.8 11.8L100.1 12.5L99.5 13.2L98.8 13.7L98.2 14.2L97.6 14.5L97.8 15.2L98.1 15.7L98.3 16.2L98.1 17L97.7 17.2L97 17.9L96.7 18.4L96.3 19.1L96.5 19.6L96.1 19.6L95.6 19.6L94.9 19.7L94.9 19.2L95 18.7L95.2 17.6L95.3 16.9L95.4 16.2L95.5 14.4L95.4 13.9L95.3 13.2L95 12.9L94.6 12.4L94.5 11.6L94.1 11.6L94.3 12.8L94.5 13.3L94.9 13.7L94.9 14.7L95.1 16.1L95.1 16.6L93.8 15.8L92.7 15.1L91.4 14.3L90.1 13.7L88.9 12.8L87.6 12.2L86.3 11.4L85.1 10.5L84.8 9.9L84.6 9.5L84.1 9.4L83.7 9.1L83.1 9.2L82.7 9.1L82.4 8.7L81.7 8.4L81.3 8.1L80.7 6.6L80.5 5.4L80.4 4.4L80.7 4.1L80.5 3.7L80.2 3.4L80.3 2.9L79.8 2.4L79.3 1.9L78.4 2.1L78.2 1.6L78 1.1L77.8 0.6L77.3 0.4L76.8 0L100 0ZM94.9 19.7L94.4 20.8L94.3 21.3L93.9 20.9L94 20.4L94.7 18.9L94.9 18.4L94.9 19.1L94.8 19.6ZM103.4 22.2L102.6 22.3L101.8 22.6L99.5 23.3L101.1 22.6L101.6 22.4L102.1 22.3L102.6 22.1L103.3 22.1ZM92.4 22.6L92.8 22.4L93.2 22.8L92.8 23.9L92.4 24.3L92 24.3L91.7 24.6L91.2 24.8L91 24.3L91.4 23.8L91.6 23L91.8 22.5ZM108.2 20.6L108.8 20.3L109.4 19.9L108.8 20.4L107.8 20.9L106.8 21.3L106.2 21.7L104.8 22.2L103.5 22.6L102.9 22.6L103.4 22.4L103.9 22.2L104.4 22L105.4 21.7L106.2 21.5L107.3 20.8L107.8 20.8ZM120.1 14.7L120.5 14.3L120.6 14.8L119.9 15L119 15.6L118 16.1L117.1 16.5L116.4 17L115.1 17.5L114.5 17.9L114 18.3L113.6 18.3L113.5 17.9L113.1 17.8L112.9 18.6L112.4 19L111.5 19.3L110.4 19.7L110 19.9L110.7 19.5L110 19.2L109.5 19.7L109.1 19.7L108.5 20.3L107.8 20.1L107.3 20.5L106.5 20.3L106.3 20.7L105.6 20.8L104.9 20.7L104.4 21.2L104 21.1L103.4 21.2L102.6 21.6L102 21.9L101.6 21.9L100.4 22.3L99.6 22.3L98.7 22.8L98.2 22.5L97.8 22.7L99 23.2L99.4 23.2L97.7 23.4L97.2 23.2L96.5 23.4L95.3 23.9L94.8 24.1L96 23.4L96.7 23L97 22.7L96.6 22.4L96.2 22.2L95.6 22.4L95.4 22.9L95.6 23.4L94.9 23.4L94.2 23.6L93.7 22.9L93.5 22.4L93.9 22.1L94 21.6L94.5 21.1L94.9 20.2L95.4 20.1L96.3 19.7L96.8 19.9L97.2 19.9L97 19.2L97.4 19.4L97.8 19.5L97.4 19L97.5 18.5L98.1 18.7L98.4 19.3L98.4 18.5L98.6 18L99.4 17.8L100 17.6L99.9 18.1L100.5 18.3L100.4 17.5L100.8 17.3L101.1 17.8L101.9 17.9L102 17.4L101.5 17.4L101.8 17.1L102.1 17.4L102.9 17.6L103.3 17.7L104.3 17.5L104.7 17L105.2 16.7L105.5 17L105.9 16.8L106.4 16.7L107.8 16.8L108.7 16.6L109.3 16.6L110.3 16.4L111.2 16.3L112.3 15.6L113.2 14.9L113.4 14.4L113.9 14.4L114.3 14.1L114.5 13.7L115.4 13.2L115.9 13.5L115.5 13.9L114.8 14.1L113.9 14.9L114.2 15.2L113.5 15.4L113.7 16.1L112.9 16.1L112.3 16.5L112.1 17L111.6 17.2L111.3 17.5L112.1 17.5L112.6 17.6L113.1 17.6L113.6 17.1L114 16.8L114.2 16.4L114.8 15.9L114.9 15.4L115.3 15.7L115.7 15.9L115.9 15.5L116.4 15.2L116.7 15.7L116.8 15L117.6 15.5L118 15.8L118.5 15.4L118.9 15.1L119.6 14.5ZM118.9 11.6L118.7 11.1L119.2 11.1L119.9 10.9L119.5 11ZM114.8 14.4L115.5 14.5L115.5 14.9L115.6 15.4L114.8 15.1L114.5 14.6ZM117.4 13.8L118 14.1L118 14.6L117.3 14.3ZM66.2 100L67 99.9L67.4 100L66.2 100ZM0 88.2L1.2 88.2L2.1 88.3L3.1 88.5L4 88.6L4.8 88.6L5.7 88.7L6.8 88.7L7.7 88.8L8.7 89L9.7 89L10.7 89.1L11.6 89.1L12.7 89.4L13.6 89.4L15.2 89.5L16.8 89.6L18.4 89.6L20 89.7L21.5 89.8L23.1 89.8L24.7 89.9L26.3 90L28.5 90.1L30.5 90.1L32.6 90.2L34.6 90.3L36.8 90.3L38.8 90.4L40.9 90.5L42.9 90.5L44.5 90.6L46.3 90.6L47.9 90.5L49.5 90.5L51.2 90.5L52.8 90.6L54.4 90.6L56.2 90.6L57 90.6L57.9 90.6L58.9 90.7L59.7 90.7L60.6 90.7L61.5 90.7L62.3 90.7L63.3 90.7L63.8 90.7L64.5 90.7L65 90.7L65.6 90.7L66.1 90.7L66.6 90.7L67 90.7L67.6 90.7L68 90.7L67.8 91.2L68 91.9L68.5 92.6L68.8 93.3L69.3 93.9L69 93.4L69.3 92.8L69.4 93.3L69.4 93.9L70 94.9L70.1 95.4L70.8 97.3L71 97.9L71.2 98.3L70.5 98.3L70.2 97.8L70.1 96.9L69.7 96.4L69.6 95.9L69.2 95.6L69.3 95.1L68.9 94.8L68.4 94.6L68.6 95.1L68.9 95.8L69 96.4L69.2 96.8L69.6 97.1L68.6 96.9L68.1 96.7L67.5 95.9L67.1 95.7L66.3 95.1L65.7 94.9L66.1 95.4L66.5 95.7L66.7 96.2L67.1 96.6L67.5 97.1L67.1 97.4L66.6 97.6L66.2 97.7L65.5 97.4L65.2 97.1L64.7 96.6L64.8 97.1L65.5 97.9L65.1 98.2L63.6 97.5L63.2 97.2L62.6 96.9L62.2 96.4L62.3 96.9L63 97.4L63.5 97.9L63.9 98.1L62.8 98.5L62.4 99L62 99.4L61.6 99.5L60.8 99.7L60.4 99.5L60 99L59.3 99.2L59 98.8L58.9 98L58.6 97.2L58.5 96.8L58.7 96L59.2 95L58.8 94.5L58.8 95L58.5 95.7L58.3 96.3L58.1 96.7L58.1 97.7L58.4 98.3L58.5 98.7L58.8 99.2L59 100L0 100ZM69.6 90.8L69.6 91.3L69 91.8L68.6 91.1L68.2 90.9L68.8 90.8L69.2 90.8ZM72.7 100L72.2 99.9L72.1 99.4L72.6 99.6L72.5 99.1L72 98.8L71.8 98.1L71.8 97.6L71.7 97.1L71.6 96.6L71.4 96.1L71 95.3L70.8 94.9L70.8 94.4L70.8 93.4L70.5 92.8L70.2 92.1L70.1 91.4L70 90.9L70.4 90.8L70.9 93.6L71 94.3L71.2 94.9L71.6 96.1L72.2 97.8L73.4 100L72.7 100ZM0 76.5L0.4 76.3L1.8 76.2L2.3 76.1L2.7 76.3L3.8 75.7L4.1 75.4L3.9 74.9L3.9 74.5L4.3 74.2L4.9 74.2L5.3 74.6L5.7 75L6.4 74.5L7.1 74.2L7.7 73.9L8.3 73.8L9 73.6L9.2 74.1L10 74L11.8 73.1L11.5 72.4L12 71.8L12.5 71.7L12.7 71.2L12.3 70.8L11.9 70.5L12.5 69.3L12.9 68.7L13.1 68.2L13.8 67.5L14.2 67.1L14.7 66.4L15.6 65.6L16 65.1L16.4 64.3L16.8 63.7L17.1 62.9L17.2 62.4L17.9 61.7L18.5 61.1L18.9 60.8L18.8 60.3L19 59.9L19.3 59.5L20 58.7L20.2 58.2L20.4 57.3L20.7 56.7L20.9 56.2L21 55.7L22.3 55.9L22.9 57L22.8 57.4L23.4 57.6L24 58L24.7 58.2L25.5 58.6L26.3 57.8L26.6 57.3L27.1 56.1L27.4 55.5L27.6 55L28.2 54.7L28.4 53.5L28.8 53L29 52.5L29.6 51.7L30.2 51.9L30.7 52.3L31.2 52.6L31.8 52L32.3 51.3L32.7 50.8L33.1 50.3L33.6 50.5L34 50.4L34.4 49.7L34.8 49.6L35.4 48.9L35.9 48.3L36.4 47.6L36.9 47.1L37.3 46.7L37.3 46.2L37.4 45.8L37.5 45L38.1 44.2L38.3 43.7L38.3 43.2L38.2 42.7L38.4 42.2L38.8 41.9L39.7 42.6L40.4 43.2L41 43.9L41.8 44.5L42.5 45.1L43.2 45.7L43.9 46.3L44.7 46.9L45.2 46.2L45.6 45.6L45.8 45.1L46.2 44.2L47.2 44.3L48 44.4L48.5 44.6L48.9 45.1L49.4 45.5L49.8 45.8L49.8 46.2L49.1 46.8L49.1 47.3L49.5 47.8L49.8 48.3L50.2 48.5L51.4 48.5L51.8 48.7L52.2 48.9L52.5 49.7L52.8 50.1L53.4 50.2L54.1 50.9L54.7 51.4L55 51.8L55.1 52.4L55.1 53.3L55 54.3L54.6 54.6L54 54.9L53.3 55.1L53.7 55.6L53.1 56.1L52.9 55.4L52.4 55.7L52.3 56.2L52 56.7L51.7 57.5L51.5 58L51.2 58.9L51.4 59.5L50.8 59.2L51.3 59.9L51.3 60.5L51.7 60.7L52.2 60.9L53 60.7L53.8 60.2L54.3 60.3L54.7 59.9L55.2 60.1L55.3 60.9L54.9 61.1L55.2 61.4L55.4 61.8L55.8 61.9L56 62.3L55.9 62.8L56.6 63.1L57 63.5L57.6 63.6L58.3 63.6L58.7 64L59.1 64.2L59.5 64L60 64.2L60.5 64L60.5 64.7L60.9 64.8L61.6 65.2L61.7 65.7L61.8 66.2L62.5 66.4L63.1 67L63.6 67.2L64.7 67.9L65.1 68.1L65.3 68.6L65.3 69.2L64.9 69.6L64.5 69.1L64.5 69.9L64.7 70.4L64.1 70.9L64.7 71.4L64.3 71.6L64.2 72.6L63.8 72.7L63.2 72.5L62.8 72L62.3 71.4L62 72.2L61.6 72L61.6 71.5L61 70.7L60.8 70.3L60.4 69.8L59.9 69.7L59.8 69.2L59.4 69.3L59.1 69L58.6 68.2L57.6 67.5L57.3 66.8L56.9 66.6L56.4 65.3L55.9 64.6L55.3 64.4L54.9 63.9L54.6 63.6L54 63.6L54.4 64.1L55 64.8L55.9 64.9L56.3 65.5L56.3 66.5L56.9 67L57.1 67.5L57.6 67.8L58 68.3L58.2 68.8L58.4 69.2L58.7 69.7L59 70L59.5 70.3L60.2 70.7L60.6 71.2L61 72L60.9 72.4L61.2 72.7L61.6 73L62.4 72.9L63.2 73.4L63.6 73.5L64.1 73.6L64.8 73.7L64.2 74.1L63.6 74L63.7 74.5L64.2 74.9L64.6 74.6L65 74.9L64.7 75.6L65.3 76.1L65.1 76.6L65.1 77.2L65 77.6L64.7 77.9L64.2 77.1L63.8 76.9L63.2 76L62.8 76.2L63.2 76.5L62.8 76.5L62.6 77L62.6 77.7L63.1 77.7L63.4 78.2L63.4 78.7L62.3 78.9L61.8 79L61.3 78.4L61 77.9L60 76.3L59.4 76L58.8 75L58.2 74.1L57.9 74.8L58.3 75L58.9 76L59.3 76.3L59.8 77.2L60.3 78.2L61.4 78.9L61.8 79.4L62.2 79.7L62.7 79.5L63.1 79.4L63.5 79.5L63.4 80L63.6 80.4L64.2 80.6L64.6 81.1L64 81.4L64.7 81.6L64.8 82.1L64.4 83.1L63.9 83.1L63.5 83.2L63.1 83.5L62.6 82.9L61.5 82.2L61.1 81.7L60.3 81.2L60.2 80.8L60.3 80.3L60.2 79.8L59.8 79.3L59 79.5L58.6 79.7L58.2 79.3L57.4 79L57 78.8L57 78.1L56.9 78.5L56.4 79L55.8 78.6L55.4 77.9L54.5 78.1L54 77.6L53.5 77.7L52.8 77.6L52.3 77.6L51.9 77.2L51.5 77.5L51.7 77.9L52.9 78.2L54 78.3L54.8 78.3L55.2 78.3L55.4 78.9L55.8 79.1L56.3 79.6L57.8 79.6L58.3 80.5L58.9 80.7L59.3 80L59.5 80.7L59.6 81.3L59.5 82L59.6 82.5L60.8 82.7L60.7 83.2L61.2 83.4L61.6 83.7L61.9 84.2L62 84.9L61.5 85.4L62 85.2L62.5 84.9L63.3 84.9L63.7 85L64.1 85.6L64.5 85.7L64.1 85.1L64.3 84.6L64 84.1L64.8 83.9L66.1 84.4L66.7 84.6L67.3 84.7L67.9 84.4L68.4 84.4L68.5 84.8L68.9 86.4L70.3 90.1L70.4 90.8L70 90.8L70 89.9L69.7 89.6L69.5 88.6L69.3 88.1L68.9 87.9L68.6 89.8L68.8 90.8L68.2 90.7L67.8 90.1L67 90.7L66.6 90.7L66.1 90.7L65.6 90.7L65 90.7L64.5 90.7L63.8 90.7L63.3 90.7L62.3 90.7L61.5 90.7L60.6 90.7L59.7 90.7L58.9 90.7L57.9 90.6L57 90.6L56.2 90.6L54.4 90.6L52.8 90.6L51.2 90.5L49.5 90.5L47.9 90.5L46.3 90.6L44.5 90.6L42.9 90.5L40.9 90.5L38.8 90.4L36.8 90.3L34.6 90.3L32.6 90.2L30.5 90.1L28.5 90.1L26.3 90L24.7 89.9L23.1 89.8L21.5 89.8L20 89.7L18.4 89.6L16.8 89.6L15.2 89.5L13.6 89.4L12.7 89.4L11.6 89.1L10.7 89.1L9.7 89L8.7 89L7.7 88.8L6.8 88.7L5.7 88.7L4.8 88.6L4 88.6L3.1 88.5L2.1 88.3L1.2 88.2L0.3 88.2L0 76.5ZM76.6 66.3L76.3 66.6L76 66.9L76 67.4L75.7 68.4L75.5 69.1L75.2 69.4L74.9 69.8L74.3 70.9L73.8 71.6L73.4 72.1L73.1 72.6L72.3 73.6L72 74.3L71.6 74.8L71.4 75.3L71 75.6L71 76.4L70.8 76.8L70.3 76.6L70 77.1L69.8 77.8L69.6 78.4L69.5 79.3L69.4 79.8L69.4 80.4L69.2 80.9L68.8 81.1L68.7 80.6L68.4 80.1L68.4 79.6L68.2 78.9L68.4 78.2L68.6 77.4L68.6 76.9L69 76.6L69 76.1L69.4 75.3L69 75.1L69.1 74.6L69.5 74.1L69.9 73.9L69.4 73.6L69.8 72.9L70.3 72.1L70.8 72.1L70.8 71.6L71.2 71.1L71.4 70.3L71.1 69.9L71.8 69.9L72.6 69.9L72.3 69.4L72.8 69.3L72.8 68.8L72.2 68.1L72.6 67.6L73 67.6L73.4 67.3L73.9 66.6L74.4 66.6L74.9 66.6L75.6 66.4L76.1 66.4L76.5 66.4ZM73 75.6L72.6 76.4L72.2 77.1L72.3 76.6L72.7 75.9ZM73.5 73.8L73.2 74.8L73 75.3L73.2 74.4L73.4 73.9ZM78.5 66.3L77.6 67.9L77.3 68.4L77 68.8L76.4 68.8L76.9 68.4L77.2 67.9L77.7 67.1L78 66.4ZM69.8 81.1L69.9 80.6L69.6 80.1L69.6 79.4L69.9 78.6L70.4 78.9L70 79.3L70.2 79.9L70.6 80.1L70.4 80.6L69.8 81.3L69.4 81.4ZM55.3 53.1L55.3 52.4L55 51.6L54.6 51.4L54.1 50.9L54.6 50.3L55.1 49.8L55.9 50.6L56.8 51.6L56 52.3ZM73.1 67.1L71.7 66.9L71.3 66.9L71 67.3L70.6 67.6L70.2 67.3L70.5 66.9L70.3 66.3L70.9 65.9L71.7 65.1L70.9 65.1L70.5 65.3L70.7 64.8L70.9 64.4L71.4 64.3L71 63.9L70.5 64.1L70 63.9L69.6 64.4L69.3 63.9L69.4 63.4L69.8 63.1L70.4 62.9L70.9 62.8L70.1 62.6L69.7 62.1L70 61.3L70.4 60.6L70.6 59.9L70.2 60.1L69.6 61.3L69 62.2L68.7 61.6L68.7 61.1L69.1 60.9L69.1 60.4L68.7 60.6L68.3 61.1L68 61.4L68.3 61.9L68.1 62.6L67.5 61.9L67 61.6L66.8 61.2L66.1 60.2L65.8 60.9L65.4 60.4L65 59.7L64.6 58.9L64.4 58.2L65 58.7L65.3 58.2L65.7 57.7L66.3 57.1L65.9 56.9L65.4 57.2L65 57.2L65.2 56.6L64.9 56.2L65.6 56.2L66 56.2L66.5 56.6L67.1 56.7L67.9 57.1L68.4 57.1L68.8 56.7L68.9 55.9L68.6 56.6L67.8 56.4L67.1 56.2L67.4 55.6L67 55.7L66.6 55.7L67 55.2L66.6 55.2L66.5 54.6L66.1 55.1L65.4 54.6L65.6 54.2L66 54.4L65.7 54.1L65.3 54.1L65.1 54.7L64.7 54L64.8 53.6L64.5 53.9L64.3 54.9L64.3 54L64.5 53.2L64.9 52.6L65.3 52.2L65.5 52.9L66 53.6L66.4 53.9L66.8 53.7L67.1 52.9L66.6 53.4L66.1 53.1L66.1 52.4L66.5 52.2L66.9 52.1L66.6 51.7L66.6 51.2L66.4 51.6L66 51.9L66 51.4L66 50.9L65.6 50.7L65.2 50.9L64.6 51.2L64.3 51.9L64 52.2L63.8 51.5L63.9 50.7L64.2 50.2L64.4 49.7L64.7 49.4L64.8 50.1L65.5 50.2L66.4 49.9L66.7 49.4L66.4 48.9L67 48.4L67.6 47.7L66.9 47.9L66.3 47.9L66.1 48.4L65.9 49.1L65.6 49.6L65.6 48.9L65.5 48.2L65.5 47.7L65.1 47.4L65.2 46.7L65.6 46.1L65.9 45.6L66.3 45.1L66.4 44.6L66.8 44.4L67.1 43.9L67.9 43.7L68.6 43.9L69.5 43.9L70 43.9L70.4 43.9L69.9 43.7L68.5 43.6L68.5 42.9L69 42.4L69.3 42.1L69.8 41.9L70.3 42.2L70.7 42.3L70.3 41.9L70.1 41.4L70.7 40.6L70.4 40.2L70.1 40.7L69.9 41.2L69 41.9L68.6 42.4L68.6 41.7L69 41.1L69.3 40.4L69.5 39.9L68.9 40.4L68.5 40.7L68.1 40.6L67.5 40.7L67.1 41.7L67.7 41.9L67.7 42.4L67.1 43.1L66.3 43.6L65.9 43.9L65.7 43.2L65.8 42.6L65.8 42.1L65.1 43.6L65.4 44.1L65 44.7L64.9 43.9L64.6 43.2L63.5 43.4L64 43.5L64.2 44.2L63.8 44.7L63.2 44.5L63.6 45.4L63.2 45.5L62.9 44.9L62.4 44.7L62.6 45.2L63.2 45.9L63.1 46.4L62.7 46.2L62.3 46L61.8 45.7L61.4 45.5L60.6 45.5L61 45.7L61.4 46L61.6 46.4L62.1 47.2L62.9 47.5L63 48L63 48.7L62.6 48.4L62 48.4L62.4 48.9L63 49L63.5 49.5L62.9 49.7L62.6 50L62 49.5L61.9 49L61.5 48.5L61.2 48.8L61.3 49.2L61.7 49.5L62.2 50L62.5 50.7L62.6 51.4L62.1 51L61.7 50.7L61.3 50.5L61.7 50.9L62 51.4L62.1 51.9L61.7 52.2L62 52.5L62.1 53L61.7 53.5L61.4 53.9L61.8 54.5L61.7 54.9L61.8 55.7L61.9 57L61.9 57.7L62 58.2L62.8 59.2L63.2 59.7L63.4 60.7L63 61.2L62.4 60.5L62.3 60L61.5 59.7L60.7 59.2L60.2 58.7L60.1 58L59.8 55.7L59.7 55.2L59.7 55.7L59.7 56.8L59.8 57.2L59.7 58L59.9 59L60.4 59.5L60.8 59.8L61.7 60.4L62.3 61.4L62.6 61.7L63 61.5L63.4 61.4L63.4 61.9L63.4 62.4L63.5 62.9L63.8 63.4L64.2 63.9L64.2 65L64.2 65.5L63.3 64.9L62.9 64.4L62.9 63.9L62.9 63.4L62.5 63L62.6 63.5L62.5 63.9L62 63.7L61.8 64.2L61.4 63.9L61.3 63.5L60.8 63L60.4 62.8L59.6 62.7L58.7 62.7L58.3 62.5L58.1 61.8L57.8 60.8L57.4 60.1L57 59.8L57.3 60.5L57.4 61L57.5 61.5L57.5 62.1L57.1 62L56.7 61.8L56.5 61.3L56.1 60.9L55.6 60.3L55.4 59.1L55.1 58.4L55 58.9L54.7 59.3L54.3 59.6L54.2 59.2L54.2 58.7L54 59.2L53.8 59.7L53.2 60.1L52.8 60.4L52.1 59.9L52.1 59.4L52.1 58.9L52 58.5L52.2 57.7L52.5 57L53 57.1L53.3 56.7L53.3 56.2L53.7 56.1L54.1 55.7L54.2 55.2L54.5 54.9L54.9 54.8L55.2 54.4L55.2 53.6L56 52.3L56.8 51.6L55.9 50.6L55.1 49.8L54.6 50.3L54.1 50.9L53.7 50.4L52.9 50.1L52.5 49.4L52.2 48.9L51.8 48.7L51.4 48.5L50.2 48.5L49.8 48.3L49.5 47.8L49.1 47.3L49.1 46.8L49.6 46.5L49.8 45.8L49.4 45.5L48.6 44.8L48 44.4L47.3 44.3L46.4 44.2L46.1 43.4L46.2 42.7L45.6 42.2L45.6 41.6L45.9 41.2L45.4 41.2L45.1 40.5L44.6 40.4L45 39.9L44.9 39.4L44.4 39.5L44 39.3L43.6 39.5L43.1 39.3L41.8 38.1L41.3 37.8L40.7 37.8L40.3 37.7L39.9 38.2L39.5 38.7L39.1 38.9L38.6 38.7L38 38.8L37.7 39.5L37.3 39.5L36.9 40.5L36 40.3L35.6 40.4L34.5 40.2L33.8 39.9L33.3 39.5L33.3 38.8L32.8 39L32.5 39.7L31.9 40L31.6 40.5L30.8 41.3L30.5 41.6L29.9 41.2L29.4 41L28.8 41.2L28.3 41.8L27.9 42.1L27.7 42.5L27 42.8L26.7 43.1L26.2 43.7L25.6 43.9L23.9 45.1L24.1 36.8L25.6 36.9L27 36.9L28.5 37L29.9 37.1L31.5 37.1L32.9 37.2L34.4 37.2L36 37.3L37.4 37.3L38.9 37.4L40.3 37.4L41.9 37.5L43.3 37.5L44.8 37.5L46.2 37.6L47.8 37.6L49.2 37.6L50.7 37.7L52.2 37.7L53.7 37.7L55.2 37.8L56.6 37.8L58.1 37.8L59.6 37.8L61.1 37.8L62.5 37.9L64 37.9L65.5 37.9L67 37.9L68.4 37.9L69.9 37.9L71.4 37.9L71.3 39.1L71.5 40.4L71.5 41.6L71.6 42.9L71.7 44.1L71.7 45.3L71.8 46.4L71.8 47.6L72 48.9L72.1 50.1L72.1 51.4L72.2 52.6L72.2 53.8L72.3 54.9L72.3 56.3L72.5 57.4L72.5 58.3L72.6 58.9L73.4 58.9L74.3 58.9L75.5 59.1L76.4 59.1L77.4 59.1L78.5 59.1L79.5 59.1L80.2 59.1L80.3 59.8L79.6 59.8L79.9 60.3L80.2 60.6L80 61.6L79.7 62.6L79 62.8L79.1 62.3L78.7 62.4L78.5 62.8L78.2 63.8L78 64.6L77.4 64.6L77 65.1L76.8 66.1L76.5 66.4L76.1 66.4L75.6 66.4L74.9 66.6L74.4 66.6L73.9 66.6L73.5 66.6L73.2 67.1ZM81.1 59.1L81 60.1L80.7 60.7L80.8 59.6L80.8 59.1ZM68.4 67.4L67.8 66.9L68.4 66.7L68 66.2L68.6 66.2L68.8 66.7L68.6 67.4ZM68.1 64.1L67.7 63.9L67.9 63.2L68.3 63.6ZM78.2 66.3L78.6 65.4L79 64.9L79.1 64.3L79.3 63.8L79.7 63.1L80.2 61.9L79.8 62.9L79.4 64.1L79.1 65.1L78.6 65.8L78.5 66.3ZM74.6 41.4L74.9 40.6L74.4 39.9L74.6 39.3L75.1 38.6L75.5 38.1L75.6 37.4L75.8 36.9L76.2 36.6L76.7 36.3L77.5 35.9L78 35.8L79 35.4L79.7 35.4L80.1 34.9L79.9 34.1L80.3 33.9L80.9 33.2L81.6 32.7L82.2 32.1L83 31.7L83.5 31.4L84 31.2L84.4 31.1L84.8 30.9L84.7 30.2L84.5 29.7L83.7 29.2L83.3 28.7L83 28.1L82.1 27.2L81.9 26.6L81.3 26.6L80.9 26.2L80.5 24.4L80.3 23.9L79.6 23.7L79 23.2L79 22.2L79 21.7L79.1 20.9L79.1 20.4L79.4 20.1L79.9 20.1L80.1 19.7L80.2 19.2L80.5 18.9L80.6 18.4L80.2 17.9L79.9 17.6L79.7 17.1L79.7 16.6L80.4 16.1L81.5 15.1L81.6 14.7L82.7 13.6L83.1 12.9L83.2 12.4L84 11.4L84.3 11L84.8 10.9L86.3 11.4L87.6 12.2L88.9 12.8L90.1 13.7L91.4 14.3L92.7 15.1L93.8 15.8L95.1 16.6L95 17.6L94.6 18.8L94.1 19.8L93.9 20.3L93.8 20.8L93.6 21.3L93.1 21.6L92.8 22.3L92.6 21.3L92.3 21.8L91.8 22.3L91.4 22.6L91.3 23.3L90.8 24L90.8 24.6L90.7 25.1L90.8 25.5L91.3 25.6L92.2 25.6L93.7 26.1L94.2 26.4L94.1 25.8L93.8 25.1L94.2 25.3L94.4 25.9L94.5 26.6L94.5 27.6L94.4 28.4L94.3 29.3L94 30.3L93.9 30.8L93.8 31.3L93.8 31.8L93.7 32.3L93.6 33.1L93.5 33.9L93.4 34.8L93.1 36.8L93.2 34.4L93.3 33.6L93.5 32.9L93.6 32.4L93.2 32.9L92.6 33.5L92.8 34L92.8 34.5L92.5 35L92.6 35.5L92.4 36L92.1 36.3L91.9 37L91.9 37.5L92.1 38.1L91.7 38.5L91.6 39L91.2 39.1L91.1 39.5L90.7 39.7L90.4 40L90.5 40.8L90.5 41.3L89.7 40.7L89.3 40.8L89.1 41.2L89.3 41.7L89.2 42.3L88.6 42.3L88.5 42.7L88.3 43.2L88.9 43.2L89.1 43.8L88.7 44L88 44.5L87.6 44.7L87.8 44.2L88.2 43.9L87.8 43.5L87.4 44L87.3 44.5L86.5 44.7L86.3 45.2L87.3 45L86.9 45.4L86.4 46.2L85.4 47.9L84.9 48.1L85.3 48L84.9 48.7L84.8 49.1L84.3 49.2L84.4 49.6L84.1 50.1L83.6 50.6L83.1 50.9L82.5 51.1L81.9 50.6L82.1 50.1L82.3 49.6L83 48.1L83 47.4L82.7 46.9L82.3 46.7L81.8 46.7L81.1 46.4L80.4 46.4L80 46.7L79.6 46.8L79.3 46.4L78.8 45.6L78.3 44.9L77.8 44.9L77.5 44.6L77 44.3L76.6 44.1L75.3 42.6L74.9 42.3L74.7 41.9ZM89.7 42.3L90.5 42.2L90.1 42.7L89.8 43.2L89.4 43.3L88.9 43.3L88.6 42.8L89 42.8L89.2 43.2L89.6 42.5ZM92.6 38L92.8 37.5L93 37.1L92.9 37.6L92.6 38.1L92.4 38.6L92 39.5L91.4 40.6L91 41.1L91.1 40.6L91.3 40.1L92.3 38.3ZM120.9 0L121 0.6L121 1.6L121.1 2.6L121.1 3.6L121.1 4.6L121.2 5.5L121.2 6.5L121.2 7L121.3 7.6L121.3 8.6L121 9.1L120.9 10L120.6 10.3L120.2 10L119.4 9.9L118.4 10.4L117.9 9.9L117.6 10.4L117.1 10.6L116.5 10.5L116 10.7L115.3 11.2L114.9 11L114.6 10.4L114.4 9.9L114 9.7L114.4 10.2L114.4 10.9L114 11.2L113.5 11.1L112.9 11.3L112.4 11.6L111.6 11.3L110.7 11.5L110.3 11.7L109.6 11.6L109.1 11.6L108.5 11.8L107.8 12.1L107.6 11.6L107.5 11.1L106.8 11.8L106.5 12.3L106.3 12.7L105.7 12.8L105.3 12.8L105.1 13.4L104.8 13.7L104.4 13.5L103.8 13.6L103.2 14.2L102.8 14.1L102.4 14.3L101.8 14.6L101.2 14.9L100.6 15.5L100.2 15.6L100 16L99.6 15.8L99.1 16.2L98.6 16.2L98.2 15.8L97.8 15.2L97.4 14.7L98.2 14.2L98.8 13.7L99.5 13.2L100.2 12.8L99.8 11.8L99.6 10.3L99.6 9.5L99.7 8.8L99.7 8L99.8 7.1L99.8 6.5L99.7 5.6L99.8 5L99.8 4.1L99.9 3.3L99.9 2.6L99.9 1.8L100 1L100 0.3L120.9 0ZM126.2 0L126.6 0.4L126.7 0.9L126.7 1.4L126.7 1.9L127 2.4L127.3 2.7L127.7 2.8L128.1 3.5L128.1 4L127.9 4.5L127.5 4.4L127.3 3.7L127.5 3L126.8 3.2L126.5 2.7L126.4 2.2L126.1 1.7L126 2.4L126.3 3.1L126.6 3.6L126.4 4.1L126 3.9L125.9 4.3L126 4.9L125.7 5.8L125.8 6.3L126 7.3L125.7 8.6L125.3 9.1L124.7 9.2L124.3 9.3L123.8 9.4L122 10.1L121 10.3L120.5 10.7L120.9 10.3L121 9.1L121.3 7.6L121.2 7L121.2 6.5L121.2 5.5L121.1 4.6L121.1 3.6L121.1 2.6L121 1.6L121 0.6L120.9 0L126.2 0ZM129.7 6.7L128.9 7.5L128.7 7.1L128.6 6L128.5 5.3L128.5 4.8L128.7 4L129.1 4.1L129.5 4.3L129.4 4.8L129.6 5.8L129.7 6.6ZM127.2 5.7L127 5.2L126.6 4.9L126.6 4.4L127 4.5L127.4 4.9L127.4 5.4ZM124.5 12.2L124.6 13L124 13L124 12.4L124.2 12ZM126.7 6.1L126.7 6.9L126.6 7.4L126.4 6.9L126.3 6.4L126.4 5.7ZM127.6 5.7L127.8 5L128.2 4.5L128.3 5.2L128.3 6.5L128.4 7.1L128 7L127.6 7.4L126.9 7.9L126.9 7.4L127.3 7.2L127.2 6.5ZM136.8 0L136.9 0.4L136.8 0.9L137.2 1.7L138 2.1L138.5 2.3L140.1 2.4L139.4 2.6L140.1 2.7L140.5 2.7L141.1 2.1L142.2 1.7L142.9 1.3L143.4 0.8L143.3 0.3L144 0L144.2 0.6L143.6 1L144.1 0.9L144.3 2.1L144.3 3.3L143.8 3.1L141.8 3.6L141.2 3.6L140.8 3.8L140.3 4.3L140.3 3.8L139.8 4.2L139.2 4.1L138.8 4.4L138.5 4.1L137.9 5L137.6 5.3L137 5.5L136.5 5.6L135.5 6.3L135.1 6.1L135.4 5.8L135.5 5.3L135.5 4.1L135.3 3.6L135.7 3.1L135.6 2.6L135.4 3L134.9 2.6L134.5 3.2L134.1 4L133.7 4L133.4 4.6L133 4.6L133.1 5.1L132.7 4.8L132.2 4.5L132.3 5L132 5.5L132.1 6L131.6 6.3L131 6.7L130.3 6.6L130.6 6L129.8 6.2L130 6.6L129.6 6.1L129.5 5.3L129.4 4.9L129.5 4.4L129.1 4.1L128.7 4L129.3 2.6L129.6 1.9L129.3 2.3L128.9 3.1L128.4 3.1L127.7 2.8L127.3 2.7L127 2.4L126.7 1.4L126.7 0.9L126.3 0.6L126.2 0L136.8 0ZM143.2 8L143.7 8.8L144.3 9.5L144.3 10.3L143.5 10.5L142.7 10.6L142.2 10.4L141.1 10L140.7 9.8L140.4 9.5L141.2 9.6L141.9 9.8L142.4 9.6L143 9.5L143.6 9L143.1 9.2L143.4 8.7L143.3 8.3ZM137.6 8.3L137.9 7.8L138.3 8.5L137.8 8.7ZM136.5 7.7L136.9 8L137.3 8L137.5 8.8L135.5 9L135.1 9.1L134.5 9.5L134.2 10L133.5 9.4L134.1 9.2L134.5 8.8L134.8 8L135.2 7.8L135.5 7.3L136.1 7.1L136.5 7.1L136.9 7.5ZM143.9 3.6L144.1 4L143.8 4.3L143.6 5.3L143.8 4ZM132.9 7.8L132.4 8.1L131.9 8.3L132.2 8ZM134.7 6.5L135.1 6.3L134.7 6.8L134.1 7.4L133.4 7.7L133.8 7.4L134 7L134.5 6.7ZM0 41.5L0.3 41.2L0.8 41.1L1.3 40.9L2 40.5L2.7 40.2L3.2 39.4L3.6 38.9L5.2 37.8L6 37.4L6.3 36.7L6.6 36.2L6.7 35.7L6.3 35.2L6.7 34.7L6.9 34.3L7 33.9L7.3 33.4L7.3 32.9L7.4 32.4L7.9 32.3L7.9 31.8L8.2 31.3L8.3 30.3L8.6 29.7L8.8 29L9 28.2L9.2 27.7L9.5 27.1L10 26.7L10.3 26.1L10.2 25.4L10 24.9L10.3 23.9L10.3 23.1L10 22.4L9.6 21.9L9.7 21.2L10.3 20.9L11.4 20.8L11.5 22.2L11.5 23.5L11.4 24.8L11.3 26.2L11.2 27.5L11.2 28.8L11.1 30.2L11 31.5L10.9 32.6L10.9 33.8L10.8 35L10.7 36.1L12.4 36.2L14.1 36.3L15.7 36.4L17.4 36.5L19.1 36.6L20.7 36.7L22.4 36.7L24.1 36.8L23.6 45.3L25.4 43.9L26.1 43.9L26.5 43.4L27 42.8L27.7 42.5L27.9 42.1L28.6 41.3L29.3 41L30 41.4L30.4 41.6L31.6 40.5L31.9 40L32.3 39.8L32.6 39.3L33 38.7L33.5 39L33.2 39.3L33.8 39.9L34.5 40.2L35.5 40.4L36 40.3L36.9 40.5L37.3 40.1L37 39.8L37.6 39.5L37.5 39L38.4 38.7L39.1 38.9L39.5 38.7L39.9 38.2L40.3 37.9L40.7 37.8L41.3 37.8L41.8 38.1L42.8 39.1L43.3 39.5L44 39.3L44.4 39.5L44.9 39.4L45 39.9L44.5 40.2L44.7 40.9L44.9 40.5L45.2 41.2L45.6 41.7L45.3 42L46.1 42.6L46.2 43.1L46.1 43.7L46.2 44.1L45.8 45.1L45.6 45.6L45.2 46.2L45.1 46.7L44.8 47.2L43.9 46.3L43.2 45.7L42.5 45.1L41.8 44.5L41 43.9L40.4 43.2L39.7 42.6L38.9 42L38.2 42.3L38.3 43.2L38.1 44.2L37.7 44.7L37.5 45.5L37.3 46.2L36.9 47.1L36.4 47.6L35.9 48.3L35.6 48.6L35.2 49.4L34.8 49.6L34.4 49.7L34.2 50.2L33.6 50.5L33.1 50.3L32.7 50.8L32.3 51.3L31.8 52L31.4 52.6L30.7 52.3L30.2 51.9L29.8 51.6L29.1 52.4L28.5 53.4L28.2 54.5L27.8 54.8L27.4 55.5L27.3 56L27 56.8L26.6 57.3L26.3 57.8L25.7 58.4L24.7 58.2L24 58L23.4 57.6L22.9 57.5L22.4 56.1L21.1 55.5L20.9 56L20.4 57L20.4 58L20 58.5L19.8 59.2L19.3 59.3L19.1 59.8L18.8 60.1L18.5 61.1L17.9 61.7L17.2 62.2L17.2 62.7L16.8 63.7L16.4 64.3L16 65.1L15.6 65.6L14.7 66.4L14.2 67.1L13.8 67.5L13.1 68.2L12.5 69.3L12 70.1L12.2 70.6L12.7 71L12.2 71.8L11.5 72.3L11.8 73L10 74L9.6 74.3L9.2 73.8L8.6 73.6L7.7 73.9L7.1 74.2L6.4 74.5L5.8 75L5.2 74.6L4.6 74.1L4.2 74.2L3.9 74.5L4.1 75.2L2.8 76.3L1.9 76.2L0.4 76.3L0 76.5L0 41.5Z"/><path class="t" d="M80.8 59.1L80.4 58.9L80.2 59.1L79.5 59.1L78.5 59.1L77.4 59.1L76.4 59.1L75.5 59.1L74.3 58.9L73.4 58.9L72.6 58.9L72.5 58.3L72.5 57.4L72.3 56.3L72.3 54.9L72.2 53.8L72.2 52.6L72.1 51.4L72.1 50.1L72 48.9L71.8 47.6L71.8 46.4L71.7 45.3L71.7 44.1L71.6 42.9L71.5 41.6L71.5 40.4L71.3 39.1L71.4 37.9L71.7 37.4L72.1 36.9L72.5 36.6L72.8 36.3L73.1 36.1L73.4 36.1L73.8 35.9L74.2 35.9L74.7 35.9L75.2 36.1L75.5 36.1L75.7 36.3L76 36.4L75.6 36.9L75.2 37.8L74.4 38.8L73.9 38.9L73.8 39.4L74.2 40.1L74.3 40.6L74.3 41.3L74 41.9L73.9 42.3L74.2 42.6L74.7 43.3L75.2 44.1L75.6 44.4L76 44.8L76 45.1L76.2 45.4L76.4 45.8L76.5 46.3L76.4 47.1L76.2 47.4L76.4 47.8L76.4 48.3L76.4 48.6L76.5 48.9L76.8 49.3L77.1 49.6L77.5 50.3L77.5 50.8L77.5 51.1L78.4 52.3L79 52.9L79.4 53.4L79.9 53.6L80.3 53.4L80.7 55.2L80.8 56.1L80.5 55.1L80 55.3L80 55.6L79.6 55.6L80 55.9L79.1 56.4L79.1 56.9L79.6 56.8L79.9 56.8L80.3 57.1L80.5 56.7L80.7 56.4L80.8 56.7L80.8 57.4L80.9 57.7L80.9 58.2L80.9 58.6L81.1 59.1Z"/><g class="n"><text x="47.5" y="19.1">Pennsylvania</text><text x="37.4" y="75.1">Virginia</text><text x="17.0" y="50.5">West Virginia</text><text x="33.0" y="96.5">North Carolina</text><text x="58.7" y="46.8" font-size="2.96">Maryland</text><text x="7.0" y="10.3">Ohio</text><text x="91.8" y="8.0" font-size="2.96">New York</text><text x="110.4" y="8.0" font-size="2.96">Connecticut</text></g><circle class="io" cx="132.8" cy="82.8" r="13.2"/><path class="il" d="M143.5 80.9L143.4 81.6L143.7 82.1L143.7 82.6L143.3 83.1L143.5 82.6L143.5 81.9L143.4 81.4L143.5 80.9ZM126.4 78.8L126.3 78.3L126.4 77.8L126.5 77.3L126.8 76.8L127 76.2L126.9 75.7L127.9 74.8L128.6 74.4L128.9 74.8L129.4 75L129.7 75.5L130 75.9L130.5 76L131 76.1L131.3 75.6L131.5 76.2L132 76.2L132.3 76.6L131.8 76.7L131.5 77.1L130.9 77.5L130.6 78.1L130.9 78.5L131.3 78.8L131.8 79.1L132 79.8L132.3 79.3L132.7 78.8L132.4 78.3L132.5 77.6L133 77.5L133.5 77.8L133.5 78.3L134 78L134.4 78.4L134.9 78.9L135.3 79.2L135.4 79.7L134.8 80.1L134.3 80.1L133.9 80.5L133.5 81L133.8 80.6L134.4 80.4L134.5 80.9L135 81L134.6 81.5L134 81.2L133.5 81.3L132.9 81.4L132.4 81.7L132 82L131.5 82.1L131.7 81.5L131.4 81L131 80.6L130.5 80.5L130 80.3L129.1 80L128.3 79.7L127.5 79.4L127.1 79.1ZM135.6 79.7L136 80.1L136.3 80.6L135.8 80.7L135.3 80.6L135.4 79.9ZM132.6 75.5L133.1 75.8L133.5 76.1L133.9 76.5L133.5 76.8L133.9 77.3L133.3 77.4L132.9 77.1L133.1 76.5L132.7 76.2L132.1 76L131.7 75.7L132 75.3L132.5 75.5ZM130.8 75.1L130.8 75.6L130.3 75.7L129.8 75.7L129.9 75.2L130.4 74.8L130.6 75.3ZM132.3 73.8L132.8 73.6L133 74.2L132.7 74.6L132.2 74.8L132.3 74.3L132.3 73.8ZM126.4 78.8L127.1 79.1L127.5 79.4L128.3 79.7L129.1 80L129.6 80.1L130.1 80.3L130.6 80.6L131.1 80.7L131.4 81.1L131.7 81.7L132.2 81.9L132.6 81.6L133.2 81.4L133.7 81L134.2 81.3L133.7 81.7L133.8 82.2L133.3 82.3L132.9 82.8L132.7 83.3L132.6 83.8L132.1 84.1L131.7 84.5L131.7 85L131.9 85.5L131.6 85.9L131.3 85.4L131.2 84.8L130.6 84.6L130.1 84.6L129.6 84.7L129 84.6L128.5 84.8L128.4 85.3L128 84.9L127.9 84.3L127.4 84.3L127.2 83.8L126.7 83.3L126.2 83.2L125.7 82.7L125.4 82.2L125.1 81.8L125.1 81L125.2 80.5L125.4 80L125.8 79.5L126.1 78.9ZM128.6 74.4L127.9 74.8L126.9 75.6L127 76.1L126.8 76.8L126.8 76.3L126.8 75.8L126.7 75.2L126.2 75L126.7 74.8L126.2 74.8L125.7 74.9L125.2 74.7L125.7 74.7L126 74.3L126.4 73.8L126.9 73.8L127.4 73.3L127.9 73.3L128.4 73.3L128.5 73.8L128.6 74.3ZM138.9 71.1L139.3 71.4L139.8 71.7L140.3 71.9L139.8 72L139.4 71.7L138.9 71.3L138.5 71L137.7 70.7L137.1 70.5L136.4 70.2L135.8 70L136.3 70.1L137.1 70.3L137.6 70.5L138.4 70.9ZM139.7 71.6L140.2 71.9L139.4 71.4L138.9 71.1L139.7 71.5ZM133.3 96L133.8 95.5L133.9 95L134.3 94.7L134.8 94.2L135.5 94.2L136 94.3L136.5 94.4L137 94.3L136.6 94.6L136.2 94.9L136 95.4L135.3 95.5L134.8 95.7L134.3 95.9L133.8 96L133.3 96ZM132.9 96L133.4 95.5L133.6 95L133.9 94.5L133.9 93.9L134.4 94.2L134.3 94.7L133.9 95L133.8 95.5L133.4 95.8ZM145.6 79.7L145.5 79.2L145.3 78.7L145.1 78.1L144.8 77.6L144.6 77L144.4 76.5L144.8 77.3L145.1 78.1L145.4 79ZM145.1 78.1L145.3 78.7L145.5 79.2L145.6 79.7L145.7 80.2L145.8 80.8L145.9 81.4L145.8 80.9L145.6 80.4L145.4 79.8L145.2 79.1L144.9 78.5ZM133.6 87.5L133.9 87.1L134.4 87.3L133.9 87.5ZM135.7 71.5L135.2 71.4L134.7 71.3L135.4 71.4L135.9 71.3ZM127.9 70.7L127.2 70.9L127.7 70.7ZM128.4 70.4L128.9 70.2L129.4 70L129.9 70L130.4 69.8L131.1 69.7L131.6 69.7L132.5 69.6L133 69.6L133.6 69.6L134.2 69.7L134.8 69.8L135.3 69.8L135.8 70L136.3 70.1L136.9 70.3L137.3 70.6L138.1 70.9L138.6 71.1L139.1 71.4L139.7 71.9L140.2 72.2L140.8 72.4L141.2 72.8L141.5 73.2L141 72.9L140.5 72.7L140.5 73.2L140 73L139.5 73.1L138.8 72.7L138.3 72.6L137.8 72.5L137.3 72.5L137.3 71.9L137.7 72.3L138.2 72.2L137.5 71.9L137 71.8L136.5 71.3L136 71.1L135.6 70.8L135 71L135.3 70.6L134.8 70.8L134.3 70.8L133.8 70.8L133.3 70.9L132.8 71L132.3 70.9L131.8 70.6L131.2 70.8L130.7 70.8L129.9 71.2L129.4 71.5L128.9 71.6L128.5 72L128.2 72.5L127.6 72.8L127.1 73.1L127.4 72.7L126.9 72.7L126.8 72.2L127.1 71.8L126.5 71.9L127 71.4L127.5 71.8L127.7 71.2L128.4 70.8L128.9 70.3L128.3 70.5L127.8 70.6ZM135.2 72.7L135.8 72.7L135.3 72.8ZM137.2 72.4L137.5 72.8L137.9 73.2L138.4 73.6L139 73.9L139.5 74.2L139.7 74.7L138.9 74.4L138.5 73.8L137.8 73.3L137.3 72.9L137 72.5ZM133.6 73.6L133.9 73.2L134.4 73.4L134.9 73.6L135.3 73.9L135.8 74.2L136.2 74.6L136.4 75.1L136.2 75.6L136.2 76.1L136.1 76.7L136.2 77.2L135.7 77.4L135.2 77L134.8 76.5L134.7 76L134.3 75.5L133.9 75L133.3 74.8L132.9 74.5L133.1 74L133.5 73.7ZM125.4 82.5L125.9 82.9L126.6 83.4L127.1 83.6L127.2 84.1L127.7 84.2L128 84.8L128.3 85.3L128.2 85.9L128.2 86.4L128.4 86.9L128.9 87.1L129.4 87L129.8 86.6L130.3 86.6L130.2 87.1L129.6 87.3L129.1 87.8L128.6 87.5L128.1 87.4L127.6 87.1L127.2 86.7L126.7 86.2L126.7 85.6L126.4 84.9L126.2 84.4L125.9 83.8L125.9 83.2L125.7 83.7L125.8 84.2L125.9 84.7L125.6 84.2L125.4 83.7L125.4 83.1ZM136.9 94.9L136.4 94.8L136.9 94.5L137.2 94L136.7 94L136.7 93.5L136.2 93.4L135.8 93L135.3 93L134.8 92.7L134.3 92.9L133.8 92.8L133.3 92.7L133.3 92.2L133.8 91.8L134.2 91.3L134.1 90.8L134.6 90.7L135.1 90.8L135.6 90.5L135.2 90.2L135.7 90.2L136.2 89.9L136.4 90.4L136.9 90.3L137.4 90.1L137.9 90.1L138.1 89.6L138.4 90L138.8 90.3L139.5 90.2L140.2 90.2L140.7 90.1L141.2 90.1L141.2 90.7L140.7 91.4L140.4 92L140.1 92.6L139.7 93L139 93.4L138.4 93.8L138.1 94.2L137.5 94.5L137.1 94.8ZM134.1 92.9L134.7 92.7L135.3 93L135.8 93L136.2 93.4L136.7 93.5L136.1 93.8L135.6 94L135.1 94.3L134.6 94.3L134.2 93.9L134.2 93.4ZM134.1 91.8L133.4 92L133.1 92.4L133.5 92.7L134 92.9L134.3 93.4L134 93.8L133.3 93.7L132.7 93.4L132.2 92.8L131.8 92.3L131.4 91.9L131.9 91.9L132.3 91.6L132.8 91.4L133.4 91.5L133.9 91.5ZM134.8 90.8L134.1 90.8L134.2 91.3L134.1 91.8L133.7 91.5L133.2 91.3L132.7 91.1L132 90.8L132.4 90.4L132.3 89.8L132.7 89.3L133.1 89L133.6 88.7L133.4 89.2L133.5 89.7L134 89.8L134.5 89.9L134.7 90.4ZM132.4 89.5L131.9 89.4L131.4 89.6L131.1 89.2L131.6 89.4L132.1 89.3ZM131 88.9L130.5 88.8L130.1 88.4L130.6 88.2L131.1 88.1L131 88.6ZM131.1 88.1L130.6 88.2L130.1 88.3L130 87.8L130.5 87.8L131 88ZM129.1 87.9L129.5 87.6L130 87.8L129.6 88.1ZM136.2 89.9L135.7 90.2L135.2 90.2L135.6 90.5L135.1 90.8L134.6 90.6L134.6 90.1L134 89.8L133.5 89.7L133.4 89.2L134 88.9L134.5 89L135 89L135.6 88.9L136.1 89.1L136 89.6ZM137.1 90.3L136.5 90.5L136.4 90L136 89.7L136.3 89.2L136.8 89.5L136.8 90ZM137.5 90.1L137 90.2L136.9 89.6L137.4 89.5L137.6 90ZM141.3 75.8L141.8 76.2L142.3 76.5L142.3 77L142.1 77.5L141.6 77L141 76.9L141 76.1ZM132.8 91.1L132.5 91.6L132.1 91.9L131.7 91.5L131.8 91L132.3 91ZM131.4 86.3L131.9 86.5L132.4 86.7L132.9 86.9L132.3 87.1L132 86.7L131.5 86.6L131 86.5ZM143.8 84.6L143.7 84.1L144 83.7L144.4 84.1L144 84.6ZM144.4 84.1L144.2 83.6L144.8 82.8L144.4 81.9L144 81.2L144.5 80.9L145 80.9L145.3 81.4L145.2 81.9L145.1 82.5L145 83L145 83.5L144.9 84L144.4 84.1ZM143.3 83.2L143.7 82.6L143.7 82.1L143.4 81.6L143.6 81L144.1 81L144.4 81.9L144.7 82.6L144.4 83.3L144.2 83.8L143.7 84L143.5 83.5ZM145.6 83.4L145.5 82.9L145.4 82.4L145.6 83ZM145 78.8L145.4 79.5L145.5 80.1L145.7 80.6L145.6 81.1L145.5 81.6L145.5 82.1L145.3 81.6L145.1 80.8L145 79.8L144.9 79ZM145.6 83.4L145.6 82.8L145.5 82.3L145.4 81.8L145.6 81.3L145.7 80.8L145.8 81.3L145.9 81.8L145.9 82.4L145.9 83ZM146 82.3L146 82.8L145.9 82.2L145.9 81.6L145.8 81L145.7 80.5L145.8 81L145.9 81.6L146 82.1ZM145.4 82.8L145.6 83.4L145.4 82.9ZM145.3 82.9L145.5 83.5L145.5 84L145.2 83.5L145.3 83ZM144.8 84.1L145.1 83.6L145.3 84.2L145.1 84.8L144.8 84.3ZM144.2 84.4L144.6 84L144.9 84.4L144.6 84.8L144.1 84.9ZM145 83.7L145 83.2L145.1 82.6L145.2 82.1L145.4 82.6L145.2 83.3L145.1 83.8ZM146 81.7L146 82.2L145.9 81.7L145.9 81.2L145.8 80.6L145.7 79.9L145.8 80.6L145.9 81.1ZM146 83.4L146 83.9L145.9 83.3L146 82.8L146 83.4ZM144.2 78.2L143.7 78L143.4 77.4L143.9 77.7L144.1 78.2ZM143.6 81L143.5 80.4L143.6 79.8L143.5 79.2L143.1 78.8L143.1 78.3L143.2 77.8L143.3 77.3L143.7 77.9L144.2 78.2L144.5 78.7L144.8 79.1L145 79.8L145.1 80.6L144.5 80.9ZM143.2 74.8L142.8 74.3L143.2 74.7L143.5 75.1ZM142.8 74.2L142.4 73.8L142 73.4L142.5 73.9ZM140.9 72.3L140.4 72L139.9 71.7L140.5 72.1ZM142.2 73.6L141.8 73.2L141.3 72.8L141.9 73.2ZM143.2 74.7L142.7 74.3L142.4 73.8L142.8 74.3ZM139.6 74.3L139.1 73.9L138.6 73.7L138.1 73.4L137.7 73.1L138.2 73L138.6 73.3L139.1 73.6L139.6 73.8L140.2 74.2ZM139.9 73.2L140.4 73.1L140.8 73.5L140.9 74L140.5 73.7L140.1 73.4ZM140.5 73.2L140.5 72.7L141 73L141.3 73.4L141.8 74L141.3 73.8L141.5 74.3L141.1 74L140.8 73.5ZM140.5 73.7L140.9 74L141.4 74.3L141.1 74.8L140.6 74.6L140.4 74.1ZM141.6 74.9L141.9 75.3L141.8 75.8L141.6 75.3ZM141.5 74.4L141.9 74.7L141.9 75.2L141.6 74.8ZM141.8 74.1L142.2 74.6L141.7 74.6L141.5 74.1ZM140.6 74.6L141.1 74.8L141.4 75.2L141.7 75.7L141.2 75.7L140.7 75.2L140.5 74.7ZM142.2 74.8L142 74.3L142.4 74.6L142.6 75.1L142.2 74.8ZM142.6 75.1L143 75.4L143.3 75.8L142.8 75.5ZM141.9 73.3L142.4 73.8L142.7 74.3L143 74.8L142.5 74.6L142.2 74.1L142 73.6L141.6 73.2ZM141.8 78.4L142.3 78.7L142.6 79.2L142.1 78.9ZM142.6 79.1L142.2 78.7L142.1 78.2L141.6 78.3L141.8 77.8L142.2 77.4L142.6 77.8L142.9 78.3L142.8 78.8ZM130.7 69.8L130.2 69.9L129.7 70L129.2 70.1L129.7 70L130.2 69.9ZM141.8 75.7L142.3 75.9L142.8 75.8L143.2 76.3L142.7 76.1L142.2 76.2ZM140.3 76.1L139.8 75.9L139.3 75.5L139.8 75.7L140.4 75.8L140.9 76.1L140.8 76.6L140.4 76.3ZM137.4 75L137.8 75.3L137.4 75.8L137 75.5L137.3 75.1ZM137.4 72.5L138 72.5L138.5 72.6L139.1 72.9L139.4 73.3L138.8 73.3L138.3 72.9L137.7 72.8L137.2 72.5ZM136.5 93.8L136.9 94.1L136.6 94.5L136 94.3L135.5 94.2L136.1 93.8ZM143.8 75.5L143.5 75.1L143.2 74.7L142.8 74.2L143.4 74.9ZM143.1 78.8L143.5 79.1L143.5 79.6L143.6 80.1L143.4 80.7L143.5 81.2L143.5 81.9L143.5 82.6L143.3 83.1L143.2 82.5L143.2 82L143.2 81.5L143.2 81L143.1 80.4L143 79.9L142.9 79.3ZM144.4 76.4L144.6 77L144.8 77.6L144.5 77L144.1 76.5L143.8 76L143.6 75.5L144 75.8L144.3 76.3ZM144.8 77.6L145.1 78.1L145 78.8L144.5 78.7L144.2 78.2L143.9 77.7L144 77.2L144 76.7L143.8 76.2L144.5 77Z"/><circle class="id" cx="132.8" cy="82.8" r="2"/><circle class="ir" cx="132.8" cy="82.8" r="13.2"/></svg>
